<?xml version="1.0" encoding="utf-8"?>
<!-- Generator: Adobe Illustrator 19.0.0, SVG Export Plug-In . SVG Version: 6.00 Build 0)  -->
<svg version="1.1" id="Layer_1" xmlns="http://www.w3.org/2000/svg" xmlns:xlink="http://www.w3.org/1999/xlink" x="0px" y="0px"
	 width="805px" height="660px" viewBox="0 0 805 660" enable-background="new 0 0 805 660" xml:space="preserve">
<g id="XMLID_106_">
	
		<path id="XMLID_281_" fill-rule="evenodd" clip-rule="evenodd" fill="#ECECEC" stroke="#FFFFFF" stroke-width="3.0164" stroke-linejoin="round" stroke-miterlimit="2.6131" d="
		M402.307,69.004c-22.934-20.949-46.184-9.277-53.481-0.521c-22.936,27.2,11.781,49.816,16.263,73.369
		c11.364-3.649,23.459-5.941,37.219-5.941V69.004L402.307,69.004z M403.559,69.004c22.938-20.949,46.186-9.277,53.484-0.521
		c22.938,27.2-11.781,49.816-16.26,73.369c-11.367-3.649-23.462-5.941-37.223-5.941V69.004L403.559,69.004z"/>
	
		<path id="XMLID_274_" fill-rule="evenodd" clip-rule="evenodd" fill="#ECECEC" stroke="#FFFFFF" stroke-width="3.0164" stroke-linejoin="round" stroke-miterlimit="2.6131" d="
		M185.87,333.483c-15.111-26.618-30.944-53.233-46.056-80.568c-25.669-31.173-44.378-69.059-71.003-108.865
		c-13.194-19.661-17.512,4.316-15.835,29.014c6.237,48.677,38.861,84.166,74.363,117.736
		C146.772,304.948,167.161,320.053,185.87,333.483L185.87,333.483z M185.87,336.119c-20.389-22.3-29.265-23.019-49.654-45.319
		c-32.864-24.698-55.891-50.356-90.194-82.247c-17.031-15.105-23.028,10.551-12.473,31.891
		c22.068,48.677,61.167,65.464,98.349,88.48C153.967,338.758,179.633,367.77,185.87,336.119L185.87,336.119z M178.673,351.946
		c-23.028-15.827-31.902-11.511-53.972-27.335C91.12,306.865,91.12,297.034,52.976,280.25
		c-29.983-15.826-47.015-15.107-27.346,11.511c25.669,37.164,66.207,48.675,103.388,63.784
		C151.327,359.859,177.716,382.16,178.673,351.946L178.673,351.946z M179.633,367.053c-25.666-11.509-34.543-4.556-59.248-16.067
		c-36.462-7.914-39.101-17.504-79.881-28.294c-32.624-7.912-47.735-2.639-23.748,19.423c34.543,31.173,75.081,31.891,115.141,39.086
		C153.967,381.2,184.911,396.305,179.633,367.053L179.633,367.053z M183.234,390.072c-26.628-7.195-31.906-7.195-61.171-9.832
		c-36.222-5.275-41.737-10.551-81.558-13.188c-29.985-1.917-46.056,9.592-18.47,29.252c16.791,9.592,76.041,15.827,115.141,14.147
		C160.203,409.495,192.827,419.326,183.234,390.072L183.234,390.072z M189.231,413.809c-29.028-4.314-34.305-4.314-62.851-3.357
		c-36.22-0.958-44.137-7.193-82.278-3.596c-30.942,2.639-38.859,21.102-15.111,29.974c17.031,8.152,77.24,0,115.139-3.357
		C166.441,430.835,200.744,441.386,189.231,413.809L189.231,413.809z M187.55,424.602c-27.346,0-27.346,1.679-54.932,7.91
		c-35.263,6.955-37.182,1.679-73.404,12.47c-30.223,7.912-35.5,28.295-8.874,32.613c17.75,4.553,69.086-15.829,104.586-26.615
		C173.398,445.702,177.716,447.617,187.55,424.602L187.55,424.602z M188.509,440.428c-28.306,5.274-13.432,3.596-39.101,13.426
		c-35.262,12.23-37.899,9.591-71.722,25.66c-26.386,13.185-29.025,33.568-0.72,33.568c18.47,0,57.573-30.934,89.475-52.271
		C180.595,450.98,182.274,465.365,188.509,440.428L188.509,440.428z M195.466,439.467c-23.748,14.387-17.75,6.235-37.902,25.898
		c-28.545,23.741-31.904,20.143-57.571,47.718c-20.389,22.062-14.154,41.485,8.876,32.613c17.51-5.997,56.611-46.758,80.361-71.699
		C200.024,460.811,198.105,465.365,195.466,439.467L195.466,439.467z M214.176,452.894c-23.028,17.748-8.876,0-28.306,22.062
		c-25.667,26.615-26.626,26.615-48.694,55.87c-18.71,23.741-10.795,42.444,12.232,31.893c16.073-6.237,51.336-49.637,68.366-80.57
		C224.731,468.723,220.413,476.636,214.176,452.894L214.176,452.894z M244.161,459.132c-20.389,18.463-9.596,0.72-25.667,23.737
		c-22.068,30.214-23.028,30.214-42.457,62.107c-15.833,25.656-3.599,40.521,16.071,29.97c14.152-6.233,31.664-29.97,44.136-61.863
		C241.522,498.937,241.522,485.507,244.161,459.132L244.161,459.132z M276.065,465.365c-6.237,10.551-23.748,10.551-29.265,16.784
		c-5.995,34.532-12.234,34.532-28.306,67.141c-12.234,25.656,2.639,42.444,17.75,28.294c13.194-9.591,20.391-20.383,36.222-50.352
		C278.704,515.721,275.105,493.659,276.065,465.365L276.065,465.365z M307.969,475.916c-6.237,11.506-17.752,3.599-21.349,7.912
		c-7.916,36.207-18.47,45.079-34.303,76.972c-10.795,24.696,6.955,29.254,19.429,18.703c10.556-8.872,24.709-17.743,31.904-50.596
		C306.29,519.315,307.009,504.21,307.969,475.916L307.969,475.916z"/>
	
		<path id="XMLID_260_" fill-rule="evenodd" clip-rule="evenodd" fill="#ECECEC" stroke="#FFFFFF" stroke-width="3.0164" stroke-linejoin="round" stroke-miterlimit="2.6131" d="
		M181.016,292.184c-6.464-7.4-18.557-21.678-25.749-38.143c-17.412-39.812-48.481,14.278,32.421,81.08
		c-50.355-41.269-66.619-39.186-67.869-36.789c-2.815,5.315,11.572,34.911,56.818,56.589c-37.947-18.027-53.9-21.988-58.279-12.193
		c-4.482,10.111-9.592,20.428,71.312,38.665c-66.203-14.59-67.038-8.128-67.871,3.961c-0.731,10.736,7.193,15.528,52.337,15.841
		c-34.822-0.314-50.773,0.103-48.062,18.134c2.711,18.029,22.52,10.627,59.529,4.168c-32.007,6.043-56.297,18.446-47.227,33.973
		c9.07,15.528,23.772,6.669,50.252-16.984c-22.415,19.798-37.949,36.787-24.605,48.044c13.345,11.254,18.869-3.441,42.015-30.746
		c-19.914,24.491-28.044,43.456-17.306,49.192c11.26,5.731,21.894-4.484,34.613-37.729c-8.549,29.808-13.762,45.441-0.728,50.339
		c13.03,4.898,18.243-8.13,25.124-37.206c-0.731,32.722-1.04,50.544,14.075,50.334c15.118-0.205,15.535-15.109,16.263-47.835
		c0.105,29.599,8.654,44.813,19.186,45.022c10.529,0.209,15.429-16.156,11.467-48.877c0.105,0.105,1.669-26.053,1.564-26.158
		c0.105,0.105-70.268-3.855-70.374-3.96c0.107,0.105-26.687-19.488-26.792-19.593c0.104,0.104-10.948-24.701-11.051-24.803
		c0.103,0.102-0.523-30.015-0.626-30.12c0.102,0.105,13.762-23.449,13.762-23.449C203.116,332.515,192.066,310.42,181.016,292.184
		L181.016,292.184z"/>
	
		<path id="XMLID_259_" fill-rule="evenodd" clip-rule="evenodd" fill="#ECECEC" stroke="#FFFFFF" stroke-width="3.0164" stroke-linejoin="round" stroke-miterlimit="2.6131" d="
		M308.857,440.245c-150.236,24.282-33.989-86.083-122.918-150.594c-14.806-20.217-18.453,39.291,31.173,72.431
		c-45.039-29.911-60.783,10.63-18.14,23.03c-40.451-3.023-27.525,30.639-0.419,28.659c-24.083,8.339-11.26,43.353,14.285,26.681
		c-17.517,28.244,5.42,42.52,22.936,14.383c-6.985,30.013,21.685,37.725,28.565,7.712c3.336,28.866,28.984,27.304,26.377,4.898
		C296.137,492.979,318.762,487.557,308.857,440.245L308.857,440.245z"/>
	
		<path id="XMLID_258_" fill-rule="evenodd" clip-rule="evenodd" fill="#ECECEC" stroke="#FFFFFF" stroke-width="3.0164" stroke-linejoin="round" stroke-miterlimit="2.6131" d="
		M396.776,330.259c7.193,23.656,8.964,49.19,6.669,73.681c-29.296,16.572-62.866,32.203-92.997,48.775
		c1.98,29.076-18.871,26.677-20.433,4.065c1.04,26.886-24.083,25.01-25.23-3.546c-6.152,26.262-32.423,23.135-25.647-6.673
		c-15.534,25.433-37.116,14.699-21.687-10.209c-18.973,11.57-38.261-8.442-13.761-23.553c-26.168-3.649-25.645-29.806,3.963-25.741
		c-42.017-13.55-22.103-51.067,14.596-20.947c-32.111-29.39-45.249-48.149-33.156-72.329c16.682,15.53,33.363,31.058,50.045,45.753
		c15.744,14.59,20.225,34.911-0.417,45.231c-37.326,44.082,33.675,67.221,55.776,27.616c-9.696,1.459-25.959-20.843-21.685-32.412
		c8.028,12.298,38.471,8.335,53.484,2.606c-9.696,1.04-20.644,3.335-25.856-1.669c46.917-8.337,43.788-54.609,56.194-65.031
		c1.147,19.697-1.459,50.962-17.931,71.596c7.297-5.834,38.052-49.606,32.318-77.639
		C379.26,316.502,388.851,324.007,396.776,330.259L396.776,330.259z"/>
	
		<path id="XMLID_257_" fill-rule="evenodd" clip-rule="evenodd" fill="#ECECEC" stroke="#FFFFFF" stroke-width="3.0164" stroke-linejoin="round" stroke-miterlimit="2.6131" d="
		M322.611,274.844c0.938,24.075,26.273,44.813,5.838,75.245c-10.425,15.528-21.059,18.029-30.34,7.088
		c5.11,23.344,29.402,16.673,38.159,8.128c9.696-9.483,9.384-25.324,6.776-64.718c3.129,50.128,4.379,53.046,5.84,63.78
		c6.359-12.714,9.07-13.966,9.487-30.744c0.417-16.779-3.127-48.668-3.232-48.773c8.342,25.22,10.634,35.642,8.444,41.583
		c-11.988,32.41-5.734,62.842-5.838,62.737c5.735-20.74,16.16-13.341,12.719-50.025c0.209,7.711,3.754,16.26,7.819,22.615
		c0.104,0.105,2.713-42.415,2.608-42.52c1.042,48.252,6.673,23.763,2.294,68.678c6.359-19.591,20.016-23.344,14.387-42.518
		c-3.649-12.403-23.772-34.078-26.482-52.734c-2.502,5.522,25.44,50.023,28.148,44.501c-4.587-52.422-39.825-86.605-70.163-82.958
		L322.611,274.844L322.611,274.844z"/>
	
		<path id="XMLID_256_" fill-rule="evenodd" clip-rule="evenodd" fill="#ECECEC" stroke="#FFFFFF" stroke-width="3.0164" stroke-linejoin="round" stroke-miterlimit="2.6131" d="
		M304.693,234.595c26.585,26.055,38.157,33.143,44.204,66.179c-18.14-27.202-34.924-21.782-69.851-61.175L304.693,234.595
		L304.693,234.595z"/>
	
		<path id="XMLID_255_" fill-rule="evenodd" clip-rule="evenodd" fill="#ECECEC" stroke="#FFFFFF" stroke-width="3.0164" stroke-linejoin="round" stroke-miterlimit="2.6131" d="
		M335.962,230.764c56.402,27.41,38.678,48.149,60.05,60.133c-21.477,0.209-29.922-20.531-44.518-34.807
		c21.792,27.2,14.806,30.535,18.245,43.249c-23.353-38.248-36.907-28.347-53.379-59.196L335.962,230.764L335.962,230.764z"/>
	
		<path id="XMLID_254_" fill-rule="evenodd" clip-rule="evenodd" fill="#ECECEC" stroke="#FFFFFF" stroke-width="3.0164" stroke-linejoin="round" stroke-miterlimit="2.6131" d="
		M331.511,221.059c20.123,4.793,33.57,18.236,52.961,23.553c-15.221,3.96-30.545,0.833-46.185-12.819
		c15.534,13.967,11.155,18.448,16.993,22.925c-18.243-2.706-52.544-33.243-50.459-35.64L331.511,221.059L331.511,221.059z"/>
	
		<path id="XMLID_253_" fill-rule="evenodd" clip-rule="evenodd" fill="#ECECEC" stroke="#FFFFFF" stroke-width="3.0164" stroke-linejoin="round" stroke-miterlimit="2.6131" d="
		M261.926,256.646c-13.552-7.191-27.001-5.21-39.513,0.833c-13.031,6.671-25.021,7.816-37.845-3.439
		c7.297,20.947,23.25,28.242,46.605,13.235C238.99,262.273,246.811,256.02,261.926,256.646L261.926,256.646z"/>
	
		<path id="XMLID_252_" fill-rule="evenodd" clip-rule="evenodd" fill="#ECECEC" stroke="#FFFFFF" stroke-width="3.0164" stroke-linejoin="round" stroke-miterlimit="2.6131" d="
		M363.472,189.92c-25.647,8.859-72.876,0-109.366,0c-6.36,0-15.637,1.771-12.407,7.086l10.113,16.363l-10.841-15.737
		c-3.649-5.42-12.095,2.606-8.444,7.19l16.263,20.324l-17.933-19.595c-41.284,2.504-29.296,20.114-26.792,47.733
		c8.444-16.154,25.335-18.029,48.583-6.878c0,0,22.831,19.593,38.887,19.907c-7.609,1.874-16.055-4.17-26.48-7.088
		c-10.739-3.127-27.001,5.939-26.69,18.55c0.312,12.61,8.861,14.486,8.861,14.383c-2.397-19.176,7.611-26.995,29.401-22.199
		c10.739,2.397,20.434,3.856,22.519-0.938c-7.09-10.318-17.724-8.859-39.199-30.432c15.116,16.779,35.757,22.511,40.972,28.661
		c5.212,6.148,14.283,9.587,23.248,23.342c0-5.627,0-12.505-1.875-13.755c-1.773-1.252-28.463-23.449-35.553-27.2
		c-3.753-2.085-16.888-14.176-32.318-27.409c11.155,8.545,18.348,16.568,34.299,26.053c-1.042-4.375-1.145-7.397-4.275-11.986
		c4.484,6.358,27.004,23.139,38.473,24.805c-8.863-8.442-8.342-19.281-20.228-31.056c17.621,16.568,19.29,16.984,33.675,21.573
		c-10.113-7.818-0.833-15.216-27.211-31.16c0,0.103,38.471,9.273,45.77-9.38c0,0.103-16.993,3.959-30.131,1.354
		C332.403,211.805,354.088,206.698,363.472,189.92L363.472,189.92z"/>
	
		<path id="XMLID_251_" fill-rule="evenodd" clip-rule="evenodd" fill="#ECECEC" stroke="#FFFFFF" stroke-width="3.0164" stroke-linejoin="round" stroke-miterlimit="2.6131" d="
		M226.729,234l-6.462-1.98c-3.649-1.98-6.464,1.98-3.337,5.731C218.808,235.459,222.666,234.521,226.729,234L226.729,234z"/>
	
		<path id="XMLID_250_" fill-rule="evenodd" clip-rule="evenodd" fill="#ECECEC" stroke="#FFFFFF" stroke-width="3.0164" stroke-linejoin="round" stroke-miterlimit="2.6131" d="
		M316.947,212.161l-60.155-4.584c7.402,19.174,5.003,13.55,24.186,6.879C291.614,210.809,304.436,212.058,316.947,212.161
		L316.947,212.161z"/>
	
		<path id="XMLID_249_" fill-rule="evenodd" clip-rule="evenodd" fill="#ECECEC" stroke="#FFFFFF" stroke-width="3.0164" stroke-linejoin="round" stroke-miterlimit="2.6131" d="
		M273.256,212.161h-2.294v-1.873l-2.92,0.623v4.065c0,0.105,4.274-0.209,4.274-0.209L273.256,212.161L273.256,212.161z"/>
	
		<path id="XMLID_248_" fill-rule="evenodd" clip-rule="evenodd" fill="#ECECEC" stroke="#FFFFFF" stroke-width="3.0164" stroke-linejoin="round" stroke-miterlimit="2.6131" d="
		M299.147,446.714c1.355,2.19,3.649,2.399,4.275,6.983c0.416,4.584-2.085,5.212-3.023,7.921c0,0.105-3.13-2.813-3.651-7.297
		C296.018,449.946,298.418,449.113,299.147,446.714L299.147,446.714z M277.044,447.028c1.147,2.394,3.441,2.708,3.649,7.397
		c0.105,4.589-2.502,5.003-3.649,7.507c0,0.105-2.816-3.023-3.023-7.507C273.707,450.051,276.106,449.423,277.044,447.028
		L277.044,447.028z M252.544,446.404c0.312,2.604,2.397,3.542,1.251,8.126c-1.251,4.379-3.858,4.065-5.631,6.046
		c0,0.105-1.878-3.646-0.833-8.026C248.374,448.28,250.876,448.38,252.544,446.404L252.544,446.404z M229.189,438.795
		c-0.312,2.604,1.461,4.063-0.833,8.233c-2.397,3.855-4.796,2.918-6.985,4.374c0,0.105-0.938-4.065,1.251-8.023
		C224.707,439.524,227.106,440.252,229.189,438.795L229.189,438.795z M218.034,422.432c-1.771,1.98-1.04,4.168-5.629,6.255
		c-4.588,2.188-6.359,0-9.384,0.103c-0.103,0,1.773-3.854,6.152-5.941C213.552,420.661,215.325,422.537,218.034,422.432
		L218.034,422.432z M211.572,400.652c-2.501,0.728-3.127,3.02-8.132,2.292c-5.005-0.521-5.422-3.336-8.028-4.793
		c-0.105-0.105,3.544-2.397,8.445-1.875C208.756,396.794,209.277,399.19,211.572,400.652L211.572,400.652z M231.902,360.944
		c-1.878-6.357-11.574-12.61-17.098-18.134c-5.526-5.522-12.302-15.007-12.2-20.74c-0.102-0.102,12.721,10.213,17.931,15.218
		C225.75,342.289,235.758,350.834,231.902,360.944L231.902,360.944z M216.889,378.869c-3.441-1.145-4.9,0.105-10.948-3.439
		c-5.943-3.751-5.212-5.939-8.028-8.752c-0.105-0.107,5.212,0.624,11.05,4.063C214.699,374.18,214.49,376.265,216.889,378.869
		L216.889,378.869z"/>
	
		<path id="XMLID_239_" fill="#ECECEC" stroke="#FFFFFF" stroke-width="3.0164" stroke-linejoin="round" stroke-miterlimit="2.6131" d="
		M121.142,366.24c-22.068-1.679-60.209-20.383-76.041-25.658 M288.576,527.376c-5.278,16.784-14.151,31.889-21.348,38.126
		 M252.354,529.055c-5.518,10.786-11.515,22.302-20.389,30.929 M218.533,517.544c-4.318,11.511-23.03,32.853-31.904,41.721
		 M183.99,505.314c-7.916,11.51-25.667,32.613-37.901,40.525 M160.24,482.297c-16.071,10.551-33.821,30.929-46.053,38.846
		 M141.531,463.59c-14.152,10.555-48.695,23.021-59.25,30.214 M137.932,444.171c-17.51,6.952-56.611,8.872-70.763,15.105
		 M124.74,421.15c-19.432,4.316-57.571,0-73.402,3.599 M123.061,393.815c-21.351-1.919-61.171-3.596-77.96-9.834 M120.422,337.943
		c-23.99-12.468-52.293-30.931-68.366-42.44 M115.864,300.778c-24.707-18.703-47.735-46.04-61.169-60.188 M129.059,266.249
		c-22.79-21.342-44.139-56.592-53.015-75.295"/>
	
		<path id="XMLID_225_" fill="#ECECEC" stroke="#FFFFFF" stroke-width="3.0164" stroke-linejoin="round" stroke-miterlimit="2.6131" d="
		M143.391,377.966c-16.679-3.23-23.667,14.799-1.459,18.76 M145.164,346.596c-28.67-12.193-30.755,11.672-5.317,18.658
		 M154.653,315.124c-33.156-18.134-36.802-12.714-10.948,16.049 M153.506,259.056c-15.013-10.944-13.554,17.506-1.254,35.849
		 M174.774,301.472l-20.12-23.553 M185.408,349.307l-33.78-23.761 M170.188,366.087l-27.629-9.799 M173.21,390.159l-28.567-2.501
		 M191.141,415.381l-45.247,1.564 M143.184,406.625c-17.517,4.379-15.846,20.324,1.668,19.386 M146,440.705
		c-10.322,7.714-6.257,26.365,13.761,17.301 M183.218,434.034l-19.078,11.881 M201.463,445.915l-20.956,24.073 M169.038,465.509
		c-12.198,14.695-1.145,29.389,14.492,14.485 M192.915,481.974c-11.365,13.548-3.754,35.744,15.325,12.4 M219.29,507.613
		c0.521,6.46,8.759,17.194,19.914,0.519 M212.098,471.449l-12.407,17.403 M236.181,476.971l-5.212,21.054 M272.15,510.74
		c2.918,10.106-7.925,26.886-18.038,13.548 M263.496,473.639l-1.878,28.347 M291.123,476.348l2.19,26.576 M305.718,505.947
		c-2.292,28.238-13.657,20.526-20.328,2.29"/>
	
		<path id="XMLID_177_" fill-rule="evenodd" clip-rule="evenodd" fill="#ECECEC" stroke="#FFFFFF" stroke-width="3.0164" stroke-linejoin="round" stroke-miterlimit="2.6131" d="
		M495.761,476.234c5.998,11.511,18.468,3.599,22.07,7.917c6.953,36.207,18.468,45.079,33.581,76.967
		c11.515,24.701-5.278,29.254-18.472,18.703c-10.795-8.867-24.945-17.744-31.902-50.592
		C498.401,519.638,496.481,504.529,495.761,476.234L495.761,476.234z M529.343,465.687c6.237,10.547,23.75,10.547,27.348,16.784
		c7.197,34.528,13.43,34.528,29.263,67.14c13.194,25.656-1.679,42.44-17.748,28.295c-13.194-9.592-20.391-20.383-37.184-50.356
		C524.785,516.039,529.343,493.982,529.343,465.687L529.343,465.687z M560.289,459.45c20.387,18.463,9.831,0.72,25.664,23.741
		c21.351,30.21,23.99,30.21,42.461,62.103c16.073,25.661,3.594,40.525-16.792,29.974c-12.475-6.233-30.947-29.974-43.417-61.867
		C561.964,499.255,561.964,485.826,560.289,459.45L560.289,459.45z M590.272,453.217c22.31,17.744,8.876,0,28.548,22.062
		c25.669,26.615,26.384,26.615,49.414,55.869c16.792,23.737,9.836,42.44-13.194,31.889c-16.073-6.233-52.293-49.637-67.406-80.566
		C580.676,469.042,584.274,476.954,590.272,453.217L590.272,453.217z M609.943,439.788c23.03,14.389,17.748,6.235,37.18,25.9
		c27.348,23.736,31.906,20.138,57.571,47.713c21.111,22.062,14.873,41.485-9.836,32.613c-16.788-5.993-55.892-46.758-78.677-71.694
		C605.385,461.129,605.385,465.687,609.943,439.788L609.943,439.788z M616.181,440.747c28.308,5.276,13.194,3.599,38.859,13.43
		c35.5,12.226,37.179,9.592,70.765,25.656c27.584,13.19,29.263,33.568,1.919,33.568c-18.712,0-58.53-30.929-89.477-52.271
		C623.138,451.298,622.178,465.687,616.181,440.747L616.181,440.747z M616.181,424.922c29.023,0,28.308,1.677,55.651,7.912
		c36.22,6.953,37.18,1.679,73.404,12.47c30.223,7.912,34.541,28.295,8.872,32.609c-17.508,4.558-69.081-15.825-104.346-26.615
		C631.05,446.023,627.691,447.94,616.181,424.922L616.181,424.922z M616.181,414.131c27.344-4.316,33.581-4.316,60.929-3.356
		c38.139-0.96,45.096-7.195,84.195-3.599c29.267,2.639,38.143,21.102,14.154,29.974c-16.788,8.154-77.002,0-116.101-3.356
		C638.247,431.155,603.706,441.707,616.181,414.131L616.181,414.131z M621.458,390.393c25.665-7.195,31.902-7.195,60.21-9.832
		c37.18-5.275,43.417-10.551,82.276-13.19c30.947-1.917,46.06,9.593,18.472,29.256c-15.833,9.589-76.043,15.824-115.861,14.147
		C645.204,409.816,611.623,419.647,621.458,390.393L621.458,390.393z M624.817,367.372c25.665-11.509,33.821-4.554,60.209-16.064
		c35.501-7.912,38.139-17.503,78.917-28.295c31.906-7.912,48.694-2.639,24.709,19.423c-34.545,31.173-76.043,31.891-116.821,39.086
		C650.482,381.521,618.82,396.628,624.817,367.372L624.817,367.372z M624.817,352.267c23.025-15.826,31.902-11.51,54.932-27.335
		c34.541-17.746,34.541-27.577,71.005-44.361c30.942-15.827,46.775-15.107,28.303,11.511
		c-25.669,37.166-66.447,48.675-104.586,63.782C653.36,360.179,625.777,382.481,624.817,352.267L624.817,352.267z M618.82,336.44
		c20.147-22.299,28.303-23.019,49.414-45.319c32.866-24.698,55.891-50.356,90.436-82.247c16.788-15.107,23.026,10.551,13.19,31.891
		c-23.025,48.677-61.889,65.461-100.028,88.482C650.482,339.079,624.817,368.093,618.82,336.44L618.82,336.44z M618.82,333.804
		c14.869-26.618,30.942-53.233,46.056-80.568c25.664-31.173,43.177-69.06,70.765-108.865c13.194-19.661,17.748,4.318,15.113,29.016
		c-5.518,48.675-38.144,84.165-73.644,117.735C657.678,305.269,638.247,320.374,618.82,333.804L618.82,333.804z"/>
	
		<path id="XMLID_163_" fill-rule="evenodd" clip-rule="evenodd" fill="#ECECEC" stroke="#FFFFFF" stroke-width="3.0164" stroke-linejoin="round" stroke-miterlimit="2.6131" d="
		M624.006,292.184c6.464-7.4,18.559-21.678,25.752-38.143c17.412-39.812,48.481,14.278-32.425,81.08
		c50.356-41.269,66.621-39.186,67.873-36.789c2.813,5.315-11.572,34.911-56.821,56.589c37.947-18.027,53.898-21.988,58.278-12.193
		c4.484,10.111,9.591,20.428-71.311,38.665c66.203-14.59,67.036-8.128,67.869,3.961c0.733,10.736-7.192,15.528-52.336,15.841
		c34.824-0.314,50.775,0.103,48.062,18.134c-2.708,18.029-22.515,10.627-59.529,4.168c32.011,6.043,56.302,18.446,47.229,33.973
		c-9.068,15.528-23.772,6.669-50.252-16.984c22.415,19.798,37.952,36.787,24.605,48.044c-13.347,11.254-18.869-3.441-42.017-30.746
		c19.916,24.491,28.046,43.456,17.307,49.192c-11.258,5.731-21.892-4.484-34.615-37.729c8.553,29.808,13.766,45.441,0.733,50.339
		c-13.033,4.898-18.245-8.13-25.128-37.206c0.732,32.722,1.047,50.544-14.071,50.334c-15.122-0.205-15.536-15.109-16.265-47.835
		c-0.105,29.599-8.654,44.813-19.183,45.022c-10.53,0.209-15.432-16.156-11.472-48.877c-0.1,0.105-1.666-26.053-1.561-26.158
		c-0.105,0.105,70.268-3.855,70.373-3.96c-0.105,0.105,26.689-19.488,26.794-19.593c-0.105,0.104,10.948-24.701,11.053-24.803
		c-0.104,0.102,0.519-30.015,0.624-30.12c-0.104,0.105-13.761-23.449-13.761-23.449C601.905,332.515,612.953,310.42,624.006,292.184
		L624.006,292.184z"/>
	
		<path id="XMLID_162_" fill-rule="evenodd" clip-rule="evenodd" fill="#ECECEC" stroke="#FFFFFF" stroke-width="3.0164" stroke-linejoin="round" stroke-miterlimit="2.6131" d="
		M495.761,440.245c150.236,24.282,33.987-86.083,122.919-150.594c14.804-20.217,18.454,39.291-31.173,72.431
		c45.039-29.911,60.781,10.63,18.14,23.03c40.451-3.023,27.523,30.639,0.419,28.659c24.081,8.339,11.258,43.353-14.285,26.681
		c17.512,28.244-5.422,42.52-22.939,14.383c6.988,30.013-21.682,37.725-28.565,7.712c-3.336,28.866-28.984,27.304-26.375,4.898
		C508.48,492.979,485.856,487.557,495.761,440.245L495.761,440.245z"/>
	
		<path id="XMLID_161_" fill-rule="evenodd" clip-rule="evenodd" fill="#ECECEC" stroke="#FFFFFF" stroke-width="3.0164" stroke-linejoin="round" stroke-miterlimit="2.6131" d="
		M407.842,330.259c-7.193,23.656-8.966,49.19-6.672,73.681c29.296,16.572,62.868,32.203,92.999,48.775
		c-1.984,29.076,18.869,26.677,20.43,4.065c-1.042,26.886,24.086,25.01,25.233-3.546c6.15,26.262,32.421,23.135,25.647-6.673
		c15.532,25.433,37.114,14.699,21.687-10.209c18.973,11.57,38.261-8.442,13.761-23.553c26.166-3.649,25.647-29.806-3.965-25.741
		c42.017-13.55,22.106-51.067-14.594-20.947c32.111-29.39,45.249-48.149,33.153-72.329c-16.679,15.53-33.363,31.058-50.042,45.753
		c-15.746,14.59-20.225,34.911,0.414,45.231c37.328,44.082-33.673,67.221-55.774,27.616c9.696,1.459,25.957-20.843,21.682-32.412
		c-8.026,12.298-38.471,8.335-53.484,2.606c9.696,1.04,20.644,3.335,25.856-1.669c-46.915-8.337-43.788-54.609-56.192-65.031
		c-1.147,19.697,1.456,50.962,17.931,71.596c-7.297-5.834-38.056-49.606-32.32-77.639
		C425.358,316.502,415.767,324.007,407.842,330.259L407.842,330.259z"/>
	
		<path id="XMLID_160_" fill-rule="evenodd" clip-rule="evenodd" fill="#ECECEC" stroke="#FFFFFF" stroke-width="3.0164" stroke-linejoin="round" stroke-miterlimit="2.6131" d="
		M482.41,274.844c-0.938,24.075-26.271,44.813-5.84,75.245c10.429,15.528,21.063,18.029,30.34,7.088
		c-5.107,23.344-29.398,16.673-38.156,8.128c-9.696-9.483-9.382-25.324-6.778-64.718c-3.127,50.128-4.379,53.046-5.836,63.78
		c-6.359-12.714-9.072-13.966-9.487-30.744c-0.418-16.779,3.127-48.668,3.228-48.773c-8.34,25.22-10.634,35.642-8.44,41.583
		c11.986,32.41,5.731,62.842,5.836,62.737c-5.736-20.74-16.16-13.341-12.719-50.025c-0.209,7.711-3.751,16.26-7.821,22.615
		c-0.105,0.105-2.713-42.415-2.604-42.52c-1.042,48.252-6.673,23.763-2.294,68.678c-6.36-19.591-20.019-23.344-14.39-42.518
		c3.651-12.403,23.771-34.078,26.48-52.734c2.503,5.522-25.433,50.023-28.147,44.501c4.584-52.422,39.823-86.605,70.163-82.958
		L482.41,274.844L482.41,274.844z"/>
	
		<path id="XMLID_159_" fill-rule="evenodd" clip-rule="evenodd" fill="#ECECEC" stroke="#FFFFFF" stroke-width="3.0164" stroke-linejoin="round" stroke-miterlimit="2.6131" d="
		M499.923,234.595c-26.585,26.055-38.157,33.143-44.202,66.179c18.14-27.202,34.924-21.782,69.849-61.175L499.923,234.595
		L499.923,234.595z"/>
	
		<path id="XMLID_158_" fill-rule="evenodd" clip-rule="evenodd" fill="#ECECEC" stroke="#FFFFFF" stroke-width="3.0164" stroke-linejoin="round" stroke-miterlimit="2.6131" d="
		M469.059,230.764c-56.402,27.41-38.676,48.149-60.048,60.133c21.473,0.209,29.922-20.531,44.516-34.807
		c-21.791,27.2-14.804,30.535-18.245,43.249c23.353-38.248,36.905-28.347,53.379-59.196L469.059,230.764L469.059,230.764z"/>
	
		<path id="XMLID_157_" fill-rule="evenodd" clip-rule="evenodd" fill="#ECECEC" stroke="#FFFFFF" stroke-width="3.0164" stroke-linejoin="round" stroke-miterlimit="2.6131" d="
		M473.107,221.059c-20.121,4.793-33.572,18.236-52.96,23.553c15.218,3.96,30.545,0.833,46.182-12.819
		c-15.532,13.967-11.153,18.448-16.993,22.925c18.245-2.706,52.546-33.243,50.461-35.64L473.107,221.059L473.107,221.059z"/>
	
		<path id="XMLID_156_" fill-rule="evenodd" clip-rule="evenodd" fill="#ECECEC" stroke="#FFFFFF" stroke-width="3.0164" stroke-linejoin="round" stroke-miterlimit="2.6131" d="
		M543.095,256.646c13.552-7.191,27.004-5.21,39.513,0.833c13.029,6.671,25.019,7.816,37.842-3.439
		c-7.297,20.947-23.248,28.242-46.601,13.235C566.03,262.273,558.209,256.02,543.095,256.646L543.095,256.646z"/>
	
		<path id="XMLID_155_" fill-rule="evenodd" clip-rule="evenodd" fill="#ECECEC" stroke="#FFFFFF" stroke-width="3.0164" stroke-linejoin="round" stroke-miterlimit="2.6131" d="
		M441.148,189.92c25.643,8.859,72.872,0,109.362,0c6.359,0,15.637,1.771,12.409,7.086l-10.115,16.363l10.844-15.737
		c3.65-5.42,12.095,2.606,8.444,7.19l-16.265,20.324l17.931-19.595c41.289,2.504,29.298,20.114,26.795,47.733
		c-8.445-16.154-25.333-18.029-48.581-6.878c0,0-22.834,19.593-38.889,19.907c7.611,1.874,16.055-4.17,26.48-7.088
		c10.739-3.127,27.004,5.939,26.69,18.55c-0.31,12.61-8.859,14.486-8.859,14.383c2.394-19.176-7.611-26.995-29.402-22.199
		c-10.739,2.397-20.435,3.856-22.52-0.938c7.092-10.318,17.726-8.859,39.203-30.432c-15.118,16.779-35.762,22.511-40.974,28.661
		c-5.212,6.148-14.285,9.587-23.248,23.342c0-5.627,0-12.505,1.875-13.755c1.771-1.252,28.461-23.449,35.553-27.2
		c3.751-2.085,16.888-14.176,32.316-27.409c-11.153,8.545-18.345,16.568-34.296,26.053c1.042-4.375,1.143-7.397,4.27-11.986
		c-4.479,6.358-26.999,23.139-38.466,24.805c8.859-8.442,8.34-19.281,20.225-31.056c-17.621,16.568-19.288,16.984-33.677,21.573
		c10.115-7.818,0.833-15.216,27.213-31.16c0,0.103-38.47,9.273-45.768-9.38c0,0.103,16.989,3.959,30.127,1.354
		C472.213,211.805,450.53,206.698,441.148,189.92L441.148,189.92z"/>
	
		<path id="XMLID_154_" fill-rule="evenodd" clip-rule="evenodd" fill="#ECECEC" stroke="#FFFFFF" stroke-width="3.0164" stroke-linejoin="round" stroke-miterlimit="2.6131" d="
		M577.885,234l6.464-1.98c3.651-1.98,6.464,1.98,3.337,5.731C585.81,235.459,581.954,234.521,577.885,234L577.885,234z"/>
	
		<path id="XMLID_153_" fill-rule="evenodd" clip-rule="evenodd" fill="#ECECEC" stroke="#FFFFFF" stroke-width="3.0164" stroke-linejoin="round" stroke-miterlimit="2.6131" d="
		M487.671,212.161l60.158-4.584c-7.402,19.174-5.007,13.55-24.19,6.879C513.004,210.809,500.18,212.058,487.671,212.161
		L487.671,212.161z"/>
	
		<path id="XMLID_152_" fill-rule="evenodd" clip-rule="evenodd" fill="#ECECEC" stroke="#FFFFFF" stroke-width="3.0164" stroke-linejoin="round" stroke-miterlimit="2.6131" d="
		M531.768,212.161h2.29v-1.873l2.922,0.623v4.065c0,0.105-4.275-0.209-4.275-0.209L531.768,212.161L531.768,212.161z"/>
	
		<path id="XMLID_151_" fill-rule="evenodd" clip-rule="evenodd" fill="#ECECEC" stroke="#FFFFFF" stroke-width="3.0164" stroke-linejoin="round" stroke-miterlimit="2.6131" d="
		M505.471,446.714c-1.356,2.19-3.651,2.399-4.275,6.983c-0.419,4.584,2.085,5.212,3.023,7.921c0,0.105,3.127-2.813,3.651-7.297
		C508.598,449.946,506.199,449.113,505.471,446.714L505.471,446.714z M527.572,447.028c-1.147,2.394-3.441,2.708-3.646,7.397
		c-0.104,4.589,2.499,5.003,3.646,7.507c0,0.105,2.818-3.023,3.023-7.507C530.909,450.051,528.51,449.423,527.572,447.028
		L527.572,447.028z M552.072,446.404c-0.31,2.604-2.395,3.542-1.247,8.126c1.247,4.379,3.855,4.065,5.626,6.046
		c0,0.105,1.876-3.646,0.833-8.026C556.242,448.28,553.742,448.38,552.072,446.404L552.072,446.404z M575.429,438.795
		c0.31,2.604-1.461,4.063,0.833,8.233c2.394,3.855,4.793,2.918,6.983,4.374c0,0.105,0.938-4.065-1.252-8.023
		C579.909,439.524,577.514,440.252,575.429,438.795L575.429,438.795z M586.582,422.432c1.771,1.98,1.042,4.168,5.631,6.255
		c4.588,2.188,6.359,0,9.382,0.103c0.105,0-1.771-3.854-6.15-5.941C591.066,420.661,589.291,422.537,586.582,422.432
		L586.582,422.432z M593.046,400.652c2.503,0.728,3.127,3.02,8.135,2.292c5.003-0.521,5.417-3.336,8.026-4.793
		c0.104-0.105-3.546-2.397-8.445-1.875C595.859,396.794,595.341,399.19,593.046,400.652L593.046,400.652z M572.716,360.944
		c1.876-6.357,11.572-12.61,17.098-18.134c5.526-5.522,12.3-15.007,12.2-20.74c0.101-0.102-12.723,10.213-17.935,15.218
		C578.871,342.289,568.86,350.834,572.716,360.944L572.716,360.944z M587.729,378.869c3.441-1.145,4.898,0.105,10.944-3.439
		c5.945-3.751,5.216-5.939,8.03-8.752c0.105-0.107-5.212,0.624-11.053,4.063C589.919,374.18,590.128,376.265,587.729,378.869
		L587.729,378.869z"/>
	
		<path id="XMLID_142_" fill="#ECECEC" stroke="#FFFFFF" stroke-width="3.0164" stroke-linejoin="round" stroke-miterlimit="2.6131" d="
		M515.991,527.188c4.584,16.47,14.385,31.789,21.787,38.248 M553.52,529.482c3.755,10.734,10.634,21.054,19.082,31.16
		 M586.987,518.02c3.751,10.734,22.729,31.788,31.174,41.895 M620.246,504.887c8.026,11.672,26.795,33.559,38.576,41.271
		 M645.474,482.689c14.075,10.32,32.839,30.851,44.625,38.562 M663.2,463.825c14.075,10.32,47.957,22.72,59.739,30.432
		 M666.223,444.027c19.183,7.293,57.026,9.273,71.52,15.005 M679.984,421.828c19.811,3.96,57.968-0.731,73.5,3.23 M681.651,393.585
		c21.896-1.461,60.99-3.96,77.255-9.482 M684.573,338.663c24.291-13.236,52.022-31.577,68.287-43.458 M688.638,301.352
		c24.291-18.967,47.02-46.269,61.614-61.592 M675.186,266.024c23.562-20.948,44.52-56.59,53.174-74.412 M683.474,365.688
		c21.896-1.459,59.948-19.383,76.213-24.908 M661.63,377.966c16.679-3.23,23.667,14.799,1.456,18.76 M659.855,346.596
		c28.669-12.193,30.759,11.672,5.321,18.658 M650.368,315.124c33.153-18.134,36.804-12.714,10.948,16.049 M651.515,259.056
		c15.013-10.944,13.557,17.506,1.252,35.849 M630.247,301.472l20.121-23.553 M619.613,349.307l33.777-23.761 M634.836,366.087
		l27.628-9.799 M631.813,390.159l28.565-2.501 M613.882,415.381l45.245,1.564 M661.839,406.625
		c17.512,4.379,15.846,20.324-1.67,19.386 M659.022,440.705c10.324,7.714,6.259,26.365-13.762,17.301 M621.803,434.034
		l19.078,11.881 M603.558,445.915l20.958,24.073 M635.983,465.509c12.2,14.695,1.143,29.389-14.494,14.485 M612.107,481.974
		c11.362,13.548,3.755,35.744-15.327,12.4 M585.731,507.613c-0.523,6.46-8.758,17.194-19.916,0.519 M592.924,471.449l12.41,17.403
		 M568.843,476.971l5.212,21.054 M532.871,510.74c-2.918,10.106,7.926,26.886,18.036,13.548 M541.525,473.639l1.88,28.347
		 M513.898,476.348l-2.189,26.576 M499.303,505.947c2.29,28.238,13.657,20.526,20.33,2.29"/>
	
		<path id="XMLID_96_" fill-rule="evenodd" clip-rule="evenodd" fill="#ECECEC" stroke="#FFFFFF" stroke-width="3.0164" stroke-linejoin="round" stroke-miterlimit="2.6131" d="
		M185.467,105.804c34.613-9.066,39.929,3.96,26.897,34.706c-10.736,25.322-8.652,45.229,26.066,48.147
		c-26.273-0.105-55.361-2.294-47.229-45.857C193.494,130.505,207.463,114.453,185.467,105.804L185.467,105.804z"/>
	
		<path id="XMLID_95_" fill-rule="evenodd" clip-rule="evenodd" fill="#ECECEC" stroke="#FFFFFF" stroke-width="3.0164" stroke-linejoin="round" stroke-miterlimit="2.6131" d="
		M161.935,124.023c-36.281-9.797-49.314,13.443-31.068,27.202c5.212,3.854,15.741,16.152,9.591,21.988
		c-4.9,4.482-9.696,2.813-13.242-0.938c-13.238-14.487-13.968,3.96-11.988,10.108c2.294,6.983,6.152,25.012,6.257,24.91
		c2.397,0.833-3.858-31.579-0.835-32.726c3.232-1.145,5.317,20.219,20.644,19.802c7.088-0.105,11.467-8.128,15.116-19.177
		c-2.501,24.387-24.814,35.747,8.759,49.606c-17.203-21.05-1.564-23.239,4.274-39.289c4.379-12.298-8.654-34.704-14.806-41.164
		C143.273,132.465,147.86,125.898,161.935,124.023L161.935,124.023z"/>
	
		<path id="XMLID_94_" fill-rule="evenodd" clip-rule="evenodd" fill="#ECECEC" stroke="#FFFFFF" stroke-width="3.0164" stroke-linejoin="round" stroke-miterlimit="2.6131" d="
		M125.188,129.168c19.914-15.528,30.131,2.187,44.411-1.145c16.265-3.963,25.752-32.621,45.56-21.261
		c-6.15-9.485-20.12-18.446-31.276-15.737c-13.554,3.439-15.118,14.697-23.769,20.324
		C149.271,118.329,133.424,116.87,125.188,129.168L125.188,129.168z"/>
	
		<path id="XMLID_93_" fill-rule="evenodd" clip-rule="evenodd" fill="#ECECEC" stroke="#FFFFFF" stroke-width="3.0164" stroke-linejoin="round" stroke-miterlimit="2.6131" d="
		M617.938,105.804c-34.615-9.066-39.932,3.96-26.899,34.706c10.739,25.322,8.654,45.229-26.066,48.147
		c26.275-0.105,55.36-2.294,47.229-45.857C609.909,130.505,595.938,114.453,617.938,105.804L617.938,105.804z"/>
	
		<path id="XMLID_92_" fill-rule="evenodd" clip-rule="evenodd" fill="#ECECEC" stroke="#FFFFFF" stroke-width="3.0164" stroke-linejoin="round" stroke-miterlimit="2.6131" d="
		M641.47,124.023c36.281-9.797,49.309,13.443,31.064,27.202c-5.212,3.854-15.742,16.152-9.587,21.988
		c4.898,4.482,9.692,2.813,13.238-0.938c13.242-14.487,13.971,3.96,11.99,10.108c-2.294,6.983-6.15,25.012-6.255,24.91
		c-2.399,0.833,3.856-31.579,0.833-32.726c-3.232-1.145-5.317,20.219-20.644,19.802c-7.088-0.105-11.467-8.128-15.118-19.177
		c2.504,24.387,24.814,35.747-8.758,49.606c17.202-21.05,1.566-23.239-4.27-39.289c-4.379-12.298,8.654-34.704,14.804-41.164
		C660.13,132.465,655.541,125.898,641.47,124.023L641.47,124.023z"/>
	
		<path id="XMLID_91_" fill-rule="evenodd" clip-rule="evenodd" fill="#ECECEC" stroke="#FFFFFF" stroke-width="3.0164" stroke-linejoin="round" stroke-miterlimit="2.6131" d="
		M678.218,129.168c-19.916-15.528-30.131,2.187-44.416-1.145c-16.265-3.963-25.752-32.621-45.559-21.261
		c6.15-9.485,20.121-18.446,31.274-15.737c13.556,3.439,15.122,14.697,23.771,20.324
		C654.133,118.329,669.979,116.87,678.218,129.168L678.218,129.168z"/>
	
		<path id="XMLID_372_" fill-rule="evenodd" clip-rule="evenodd" fill="#ECECEC" stroke="#FFFFFF" stroke-width="3.0164" stroke-linejoin="round" stroke-miterlimit="10" d="
		M365.088,141.392c-10.32-40.019-3.335-94.316,37.952-71.91c41.284-22.406,48.271,31.891,37.742,72.015
		C418.677,71.985,384.48,70.003,365.088,141.392L365.088,141.392z M399.389,135.972c-3.23-48.147-37.74-84.206-52.127-63.884
		c-9.382,13.443,5.422,21.573,18.452,32.724c10.217,8.754,17.829,18.76,20.019,31.577L399.389,135.972L399.389,135.972z
		 M406.686,135.972c3.236-48.147,37.742-84.206,52.132-63.884c9.382,13.443-5.422,21.573-18.455,32.724
		c-10.22,8.754-17.826,18.76-20.02,31.577L406.686,135.972L406.686,135.972z"/>
	
		<path id="XMLID_87_" fill="#ECECEC" stroke="#FFFFFF" stroke-width="3.0164" stroke-linejoin="round" stroke-miterlimit="2.6131" d="
		M365.088,141.392c-10.32-40.019-3.335-94.316,37.952-71.91c41.284-22.406,48.271,31.891,37.742,72.015
		C418.677,71.985,384.48,70.003,365.088,141.392L365.088,141.392z M399.389,135.972c-3.23-48.147-37.74-84.206-52.127-63.884
		c-9.382,13.443,5.422,21.573,18.452,32.724c10.217,8.754,17.829,18.76,20.019,31.577 M406.686,135.972
		c3.236-48.147,37.742-84.206,52.132-63.884c9.382,13.443-5.422,21.573-18.455,32.724c-10.22,8.754-17.826,18.76-20.02,31.577"/>
	
		<polygon id="XMLID_83_" fill-rule="evenodd" clip-rule="evenodd" fill="#ECECEC" stroke="#FFFFFF" stroke-width="3.0164" stroke-linejoin="round" stroke-miterlimit="2.6131" points="
		398.667,53.232 408.57,53.232 408.57,135.669 398.667,135.669 398.667,53.232 	"/>
	
		<path id="XMLID_82_" fill-rule="evenodd" clip-rule="evenodd" fill="#ECECEC" stroke="#FFFFFF" stroke-width="3.0164" stroke-linejoin="round" stroke-miterlimit="2.6131" d="
		M403.247,10.364c6.977,0,12.669,5.692,12.669,12.667c0,6.974-5.692,12.664-12.669,12.664c-6.979,0-12.671-5.69-12.671-12.664
		C390.576,16.056,396.268,10.364,403.247,10.364L403.247,10.364z"/>
	
		<polygon id="XMLID_81_" fill-rule="evenodd" clip-rule="evenodd" fill="#ECECEC" stroke="#FFFFFF" stroke-width="3.0164" stroke-linejoin="round" stroke-miterlimit="2.6131" points="
		400.285,19.537 400.285,6.199 406.542,6.199 406.542,20.371 419.675,20.371 419.675,25.79 406.647,25.79 406.647,39.963 
		400.285,39.963 400.285,25.687 387.359,25.687 387.359,19.537 400.285,19.537 	"/>
	
		<path id="XMLID_80_" fill-rule="evenodd" clip-rule="evenodd" fill="#ECECEC" stroke="#FFFFFF" stroke-width="3.0164" stroke-linejoin="round" stroke-miterlimit="2.6131" d="
		M363.472,140.986c26.897-8.752,53.172-8.752,78.4,0v13.862c-27.627-8.023-53.693-7.504-78.4,0V140.986L363.472,140.986z"/>
	
		<path id="XMLID_79_" fill-rule="evenodd" clip-rule="evenodd" fill="#ECECEC" stroke="#FFFFFF" stroke-width="3.0164" stroke-linejoin="round" stroke-miterlimit="2.6131" d="
		M403.127,39.481c4.907,0,8.911,3.913,8.911,8.71c0,4.796-4.004,8.708-8.911,8.708c-4.907,0-8.909-3.913-8.909-8.708
		C394.218,43.394,398.22,39.481,403.127,39.481L403.127,39.481z"/>
	
		<path id="XMLID_78_" fill-rule="evenodd" clip-rule="evenodd" fill="#ECECEC" stroke="#FFFFFF" stroke-width="3.0164" stroke-linejoin="round" stroke-miterlimit="2.6131" d="
		M403.703,91.65c3.441,0,6.25,2.528,6.25,5.631c0,3.099-2.809,5.629-6.25,5.629c-3.441,0-6.248-2.53-6.248-5.629
		C397.454,94.178,400.261,91.65,403.703,91.65L403.703,91.65z"/>
	
		<path id="XMLID_77_" fill-rule="evenodd" clip-rule="evenodd" fill="#ECECEC" stroke="#FFFFFF" stroke-width="3.0164" stroke-linejoin="round" stroke-miterlimit="2.6131" d="
		M403.703,64.555c3.441,0,6.25,2.53,6.25,5.631c0,3.101-2.809,5.629-6.25,5.629c-3.441,0-6.248-2.528-6.248-5.629
		C397.454,67.085,400.261,64.555,403.703,64.555L403.703,64.555z"/>
	
		<path id="XMLID_76_" fill-rule="evenodd" clip-rule="evenodd" fill="#ECECEC" stroke="#FFFFFF" stroke-width="3.0164" stroke-linejoin="round" stroke-miterlimit="2.6131" d="
		M372.61,141.392c2.804,0,5.092,2.061,5.092,4.588s-2.288,4.587-5.092,4.587c-2.807,0-5.094-2.059-5.094-4.587
		S369.803,141.392,372.61,141.392L372.61,141.392z"/>
	
		<path id="XMLID_75_" fill-rule="evenodd" clip-rule="evenodd" fill="#ECECEC" stroke="#FFFFFF" stroke-width="3.0164" stroke-linejoin="round" stroke-miterlimit="2.6131" d="
		M392.837,138.561c2.804,0,5.092,2.061,5.092,4.586c0,2.528-2.288,4.589-5.092,4.589s-5.092-2.061-5.092-4.589
		C387.745,140.622,390.033,138.561,392.837,138.561L392.837,138.561z"/>
	
		<path id="XMLID_74_" fill-rule="evenodd" clip-rule="evenodd" fill="#ECECEC" stroke="#FFFFFF" stroke-width="3.0164" stroke-linejoin="round" stroke-miterlimit="2.6131" d="
		M414.28,138.561c2.804,0,5.09,2.061,5.09,4.586c0,2.528-2.285,4.589-5.09,4.589c-2.809,0-5.094-2.061-5.094-4.589
		C409.186,140.622,411.471,138.561,414.28,138.561L414.28,138.561z"/>
	
		<path id="XMLID_73_" fill-rule="evenodd" clip-rule="evenodd" fill="#ECECEC" stroke="#FFFFFF" stroke-width="3.0164" stroke-linejoin="round" stroke-miterlimit="2.6131" d="
		M433.698,142.2c2.805,0,5.095,2.061,5.095,4.587c0,2.527-2.29,4.588-5.095,4.588c-2.804,0-5.094-2.061-5.094-4.588
		C428.604,144.261,430.894,142.2,433.698,142.2L433.698,142.2z"/>
	
		<path id="XMLID_72_" fill-rule="evenodd" clip-rule="evenodd" fill="#ECECEC" stroke="#FFFFFF" stroke-width="3.0164" stroke-linejoin="round" stroke-miterlimit="2.6131" d="
		M403.703,118.745c3.441,0,6.25,2.53,6.25,5.629c0,3.101-2.809,5.631-6.25,5.631c-3.441,0-6.248-2.53-6.248-5.631
		C397.454,121.275,400.261,118.745,403.703,118.745L403.703,118.745z"/>
	
		<path id="XMLID_71_" fill-rule="evenodd" clip-rule="evenodd" fill="#ECECEC" stroke="#FFFFFF" stroke-width="3.0164" stroke-linejoin="round" stroke-miterlimit="2.6131" d="
		M516.798,126.025c16.126-12.71,32.469-5.629,37.602-0.318c16.126,16.505-8.283,30.227-11.436,44.516
		c-7.986-2.214-16.492-3.605-26.166-3.605V126.025L516.798,126.025z M515.917,126.025c-16.125-12.71-32.469-5.629-37.602-0.318
		c-16.126,16.505,8.283,30.227,11.436,44.516c7.986-2.214,16.492-3.605,26.166-3.605V126.025L515.917,126.025z"/>
	
		<path id="XMLID_68_" fill-rule="evenodd" clip-rule="evenodd" fill="#ECECEC" stroke="#FFFFFF" stroke-width="3.0164" stroke-linejoin="round" stroke-miterlimit="2.6131" d="
		M516.388,90.438c-4.907,0-8.911,3.452-8.911,7.683c0,4.233,4.004,7.685,8.911,7.685c4.903,0,8.907-3.453,8.907-7.685
		C525.295,93.89,521.291,90.438,516.388,90.438L516.388,90.438z"/>
	
		<polygon id="XMLID_67_" fill-rule="evenodd" clip-rule="evenodd" fill="#ECECEC" stroke="#FFFFFF" stroke-width="3.0164" stroke-linejoin="round" stroke-miterlimit="2.6131" points="
		518.417,96.503 518.417,87.84 514.02,87.84 514.02,96.439 504.782,96.439 504.782,99.726 513.946,99.726 513.946,108.327 
		518.417,108.327 518.417,99.665 527.507,99.665 527.507,96.503 518.417,96.503 	"/>
	
		<path id="XMLID_347_" fill-rule="evenodd" clip-rule="evenodd" fill="#ECECEC" stroke="#FFFFFF" stroke-width="3.0164" stroke-linejoin="round" stroke-miterlimit="10" d="
		M543.095,169.699c7.253-24.28,2.347-57.224-26.681-43.628c-29.028-13.596-33.939,19.349-26.537,43.692
		C505.419,127.589,529.461,126.387,543.095,169.699L543.095,169.699z M518.979,166.41c2.273-29.213,26.532-51.089,36.647-38.758
		c6.599,8.157-3.808,13.088-12.972,19.855c-7.184,5.311-12.536,11.382-14.076,19.159L518.979,166.41L518.979,166.41z M513.85,166.41
		c-2.277-29.213-26.537-51.089-36.652-38.758c-6.595,8.157,3.812,13.088,12.976,19.855c7.184,5.311,12.531,11.382,14.071,19.159
		L513.85,166.41L513.85,166.41z"/>
	
		<path id="XMLID_63_" fill="#ECECEC" stroke="#FFFFFF" stroke-width="3.0164" stroke-linejoin="round" stroke-miterlimit="2.6131" d="
		M543.095,169.699c7.253-24.28,2.347-57.224-26.681-43.628c-29.028-13.596-33.939,19.349-26.537,43.692
		C505.419,127.589,529.461,126.387,543.095,169.699L543.095,169.699z M518.979,166.41c2.273-29.213,26.532-51.089,36.647-38.758
		c6.599,8.157-3.808,13.088-12.972,19.855c-7.184,5.311-12.536,11.38-14.076,19.159 M513.85,166.41
		c-2.277-29.213-26.537-51.089-36.652-38.758c-6.595,8.157,3.812,13.088,12.976,19.855c7.179,5.311,12.531,11.38,14.071,19.159"/>
	
		<polygon id="XMLID_59_" fill-rule="evenodd" clip-rule="evenodd" fill="#ECECEC" stroke="#FFFFFF" stroke-width="3.0164" stroke-linejoin="round" stroke-miterlimit="2.6131" points="
		519.629,116.723 512.668,116.723 512.668,166.738 519.629,166.738 519.629,116.723 	"/>
	
		<path id="XMLID_58_" fill-rule="evenodd" clip-rule="evenodd" fill="#ECECEC" stroke="#FFFFFF" stroke-width="3.0164" stroke-linejoin="round" stroke-miterlimit="2.6131" d="
		M516.044,139.776c-2.417,0-4.392,1.533-4.392,3.413s1.975,3.418,4.392,3.418c2.421,0,4.396-1.538,4.396-3.418
		S518.465,139.776,516.044,139.776L516.044,139.776z"/>
	
		<path id="XMLID_57_" fill-rule="evenodd" clip-rule="evenodd" fill="#ECECEC" stroke="#FFFFFF" stroke-width="3.0164" stroke-linejoin="round" stroke-miterlimit="2.6131" d="
		M516.044,123.192c-2.417,0-4.392,1.535-4.392,3.417c0,1.88,1.975,3.415,4.392,3.415c2.421,0,4.396-1.535,4.396-3.415
		C520.44,124.727,518.465,123.192,516.044,123.192L516.044,123.192z"/>
	
		<path id="XMLID_56_" fill-rule="evenodd" clip-rule="evenodd" fill="#ECECEC" stroke="#FFFFFF" stroke-width="3.0164" stroke-linejoin="round" stroke-miterlimit="2.6131" d="
		M516.044,156.355c-2.417,0-4.392,1.533-4.392,3.415c0,1.88,1.975,3.415,4.392,3.415c2.421,0,4.396-1.536,4.396-3.415
		C520.44,157.887,518.465,156.355,516.044,156.355L516.044,156.355z"/>
	
		<path id="XMLID_55_" fill-rule="evenodd" clip-rule="evenodd" fill="#ECECEC" stroke="#FFFFFF" stroke-width="3.0164" stroke-linejoin="round" stroke-miterlimit="2.6131" d="
		M544.308,169.699c-18.913-5.311-37.38-5.311-55.119,0v8.409c19.423-4.868,37.746-4.552,55.119,0V169.699L544.308,169.699z"/>
	
		<path id="XMLID_54_" fill-rule="evenodd" clip-rule="evenodd" fill="#ECECEC" stroke="#FFFFFF" stroke-width="3.0164" stroke-linejoin="round" stroke-miterlimit="2.6131" d="
		M537.896,170.105c-1.975,0-3.581,1.25-3.581,2.783c0,1.533,1.605,2.783,3.581,2.783c1.971,0,3.577-1.25,3.577-2.783
		C541.473,171.355,539.867,170.105,537.896,170.105L537.896,170.105z"/>
	
		<path id="XMLID_53_" fill-rule="evenodd" clip-rule="evenodd" fill="#ECECEC" stroke="#FFFFFF" stroke-width="3.0164" stroke-linejoin="round" stroke-miterlimit="2.6131" d="
		M523.733,168.081c-1.971,0-3.576,1.251-3.576,2.783c0,1.536,1.605,2.785,3.576,2.785c1.976,0,3.581-1.249,3.581-2.785
		C527.315,169.333,525.709,168.081,523.733,168.081L523.733,168.081z"/>
	
		<path id="XMLID_52_" fill-rule="evenodd" clip-rule="evenodd" fill="#ECECEC" stroke="#FFFFFF" stroke-width="3.0164" stroke-linejoin="round" stroke-miterlimit="2.6131" d="
		M508.769,168.081c-1.972,0-3.581,1.251-3.581,2.783c0,1.536,1.609,2.785,3.581,2.785c1.971,0,3.581-1.249,3.581-2.785
		C512.349,169.333,510.74,168.081,508.769,168.081L508.769,168.081z"/>
	
		<path id="XMLID_51_" fill-rule="evenodd" clip-rule="evenodd" fill="#ECECEC" stroke="#FFFFFF" stroke-width="3.0164" stroke-linejoin="round" stroke-miterlimit="2.6131" d="
		M495.012,170.508c-1.971,0-3.581,1.25-3.581,2.783c0,1.533,1.61,2.783,3.581,2.783c1.971,0,3.581-1.25,3.581-2.783
		C498.592,171.758,496.983,170.508,495.012,170.508L495.012,170.508z"/>
	
		<path id="XMLID_50_" fill-rule="evenodd" clip-rule="evenodd" fill="#ECECEC" stroke="#FFFFFF" stroke-width="3.0164" stroke-linejoin="round" stroke-miterlimit="2.6131" d="
		M516.196,108.229c-3.445,0-6.263,2.187-6.263,4.872c0,2.68,2.818,4.868,6.263,4.868c3.455,0,6.264-2.187,6.264-4.868
		C522.46,110.416,519.651,108.229,516.196,108.229L516.196,108.229z"/>
	
		<path id="XMLID_49_" fill-rule="evenodd" clip-rule="evenodd" fill="#ECECEC" stroke="#FFFFFF" stroke-width="3.0164" stroke-linejoin="round" stroke-miterlimit="2.6131" d="
		M287.82,126.025c16.126-12.71,32.471-5.629,37.602-0.318c16.123,16.505-8.283,30.227-11.436,44.516
		c-7.989-2.214-16.492-3.605-26.166-3.605V126.025L287.82,126.025z M286.938,126.025c-16.125-12.71-32.471-5.629-37.602-0.318
		c-16.123,16.505,8.283,30.227,11.436,44.516c7.989-2.214,16.492-3.605,26.166-3.605V126.025L286.938,126.025z"/>
	
		<path id="XMLID_46_" fill-rule="evenodd" clip-rule="evenodd" fill="#ECECEC" stroke="#FFFFFF" stroke-width="3.0164" stroke-linejoin="round" stroke-miterlimit="2.6131" d="
		M287.407,90.438c-4.907,0-8.909,3.452-8.909,7.683c0,4.233,4.002,7.685,8.909,7.685c4.907,0,8.907-3.453,8.907-7.685
		C296.314,93.89,292.314,90.438,287.407,90.438L287.407,90.438z"/>
	
		<polygon id="XMLID_45_" fill-rule="evenodd" clip-rule="evenodd" fill="#ECECEC" stroke="#FFFFFF" stroke-width="3.0164" stroke-linejoin="round" stroke-miterlimit="2.6131" points="
		289.438,96.503 289.438,87.84 285.039,87.84 285.039,96.439 275.803,96.439 275.803,99.726 284.965,99.726 284.965,108.327 
		289.438,108.327 289.438,99.665 298.526,99.665 298.526,96.503 289.438,96.503 	"/>
	
		<path id="XMLID_324_" fill-rule="evenodd" clip-rule="evenodd" fill="#ECECEC" stroke="#FFFFFF" stroke-width="3.0164" stroke-linejoin="round" stroke-miterlimit="10" d="
		M314.117,169.699c7.256-24.28,2.344-57.224-26.681-43.628c-29.028-13.596-33.939,19.349-26.537,43.692
		C276.438,127.589,300.482,126.387,314.117,169.699L314.117,169.699z M289.998,166.41c2.275-29.213,26.535-51.089,36.652-38.758
		c6.595,8.157-3.812,13.088-12.974,19.855c-7.184,5.311-12.534,11.382-14.076,19.159L289.998,166.41L289.998,166.41z
		 M284.869,166.41c-2.27-29.213-26.535-51.089-36.65-38.758c-6.597,8.157,3.812,13.088,12.974,19.855
		c7.182,5.311,12.533,11.382,14.073,19.159L284.869,166.41L284.869,166.41z"/>
	
		<path id="XMLID_41_" fill="#ECECEC" stroke="#FFFFFF" stroke-width="3.0164" stroke-linejoin="round" stroke-miterlimit="2.6131" d="
		M314.117,169.699c7.256-24.28,2.344-57.224-26.681-43.628c-29.028-13.596-33.939,19.349-26.537,43.692
		C276.438,127.589,300.482,126.387,314.117,169.699L314.117,169.699z M289.998,166.41c2.275-29.213,26.535-51.089,36.652-38.758
		c6.595,8.157-3.812,13.088-12.974,19.855c-7.184,5.311-12.534,11.38-14.076,19.159 M284.869,166.41
		c-2.27-29.213-26.535-51.089-36.65-38.758c-6.597,8.157,3.812,13.088,12.974,19.855c7.182,5.311,12.533,11.38,14.073,19.159"/>
	
		<polygon id="XMLID_37_" fill-rule="evenodd" clip-rule="evenodd" fill="#ECECEC" stroke="#FFFFFF" stroke-width="3.0164" stroke-linejoin="round" stroke-miterlimit="2.6131" points="
		290.65,116.723 283.687,116.723 283.687,166.738 290.65,166.738 290.65,116.723 	"/>
	
		<path id="XMLID_36_" fill-rule="evenodd" clip-rule="evenodd" fill="#ECECEC" stroke="#FFFFFF" stroke-width="3.0164" stroke-linejoin="round" stroke-miterlimit="2.6131" d="
		M287.067,139.776c-2.42,0-4.394,1.533-4.394,3.413s1.974,3.418,4.394,3.418c2.419,0,4.392-1.538,4.392-3.418
		S289.486,139.776,287.067,139.776L287.067,139.776z"/>
	
		<path id="XMLID_35_" fill-rule="evenodd" clip-rule="evenodd" fill="#ECECEC" stroke="#FFFFFF" stroke-width="3.0164" stroke-linejoin="round" stroke-miterlimit="2.6131" d="
		M287.067,123.192c-2.42,0-4.394,1.535-4.394,3.417c0,1.88,1.974,3.415,4.394,3.415c2.419,0,4.392-1.535,4.392-3.415
		C291.459,124.727,289.486,123.192,287.067,123.192L287.067,123.192z"/>
	
		<path id="XMLID_34_" fill-rule="evenodd" clip-rule="evenodd" fill="#ECECEC" stroke="#FFFFFF" stroke-width="3.0164" stroke-linejoin="round" stroke-miterlimit="2.6131" d="
		M287.067,156.355c-2.42,0-4.394,1.533-4.394,3.415c0,1.88,1.974,3.415,4.394,3.415c2.419,0,4.392-1.536,4.392-3.415
		C291.459,157.887,289.486,156.355,287.067,156.355L287.067,156.355z"/>
	
		<path id="XMLID_33_" fill-rule="evenodd" clip-rule="evenodd" fill="#ECECEC" stroke="#FFFFFF" stroke-width="3.0164" stroke-linejoin="round" stroke-miterlimit="2.6131" d="
		M315.329,169.699c-18.913-5.311-37.382-5.311-55.119,0v8.409c19.421-4.868,37.746-4.552,55.119,0V169.699L315.329,169.699z"/>
	
		<path id="XMLID_32_" fill-rule="evenodd" clip-rule="evenodd" fill="#ECECEC" stroke="#FFFFFF" stroke-width="3.0164" stroke-linejoin="round" stroke-miterlimit="2.6131" d="
		M308.915,170.105c-1.971,0-3.578,1.25-3.578,2.783c0,1.533,1.607,2.783,3.578,2.783c1.974,0,3.583-1.25,3.583-2.783
		C312.498,171.355,310.889,170.105,308.915,170.105L308.915,170.105z"/>
	
		<path id="XMLID_31_" fill-rule="evenodd" clip-rule="evenodd" fill="#ECECEC" stroke="#FFFFFF" stroke-width="3.0164" stroke-linejoin="round" stroke-miterlimit="2.6131" d="
		M294.757,168.081c-1.971,0-3.581,1.251-3.581,2.783c0,1.536,1.609,2.785,3.581,2.785c1.971,0,3.581-1.249,3.581-2.785
		C298.338,169.333,296.728,168.081,294.757,168.081L294.757,168.081z"/>
	
		<path id="XMLID_30_" fill-rule="evenodd" clip-rule="evenodd" fill="#ECECEC" stroke="#FFFFFF" stroke-width="3.0164" stroke-linejoin="round" stroke-miterlimit="2.6131" d="
		M279.788,168.081c-1.971,0-3.579,1.251-3.579,2.783c0,1.536,1.607,2.785,3.579,2.785c1.974,0,3.581-1.249,3.581-2.785
		C283.368,169.333,281.761,168.081,279.788,168.081L279.788,168.081z"/>
	
		<path id="XMLID_29_" fill-rule="evenodd" clip-rule="evenodd" fill="#ECECEC" stroke="#FFFFFF" stroke-width="3.0164" stroke-linejoin="round" stroke-miterlimit="2.6131" d="
		M266.035,170.508c-1.974,0-3.583,1.25-3.583,2.783c0,1.533,1.61,2.783,3.583,2.783c1.969,0,3.578-1.25,3.578-2.783
		C269.614,171.758,268.004,170.508,266.035,170.508L266.035,170.508z"/>
	
		<path id="XMLID_28_" fill-rule="evenodd" clip-rule="evenodd" fill="#ECECEC" stroke="#FFFFFF" stroke-width="3.0164" stroke-linejoin="round" stroke-miterlimit="2.6131" d="
		M287.22,108.229c-3.45,0-6.265,2.187-6.265,4.872c0,2.68,2.816,4.868,6.265,4.868c3.45,0,6.264-2.187,6.264-4.868
		C293.483,110.416,290.67,108.229,287.22,108.229L287.22,108.229z"/>
	
		<path id="XMLID_11_" fill-rule="evenodd" clip-rule="evenodd" fill="#ECECEC" stroke="#FFFFFF" stroke-width="3.0164" stroke-linejoin="round" stroke-miterlimit="2.6131" d="
		M401.094,653.801c-6.15-43.98-92.266,0.414-92.266-50.439V395.76h184.635v207.602C493.463,654.216,407.349,609.821,401.094,653.801
		L401.094,653.801z"/>
	
		<path id="XMLID_10_" fill-rule="evenodd" clip-rule="evenodd" fill="#ECECEC" stroke="#FFFFFF" stroke-width="3.0164" stroke-linejoin="round" stroke-miterlimit="2.6131" d="
		M414.851,458.037c12.51,8.859,16.16,17.198,33.363,19.074c-7.301-5.836-3.441-19.074,1.042-24.596
		c-7.406,12.3,7.502,10.734,11.677,18.027c3.022-1.666,8.34-4.479,12.824-3.542c-7.406-14.381,5.107-23.76-13.557-37.727
		c-1.356,0.728-2.708,1.459-4.065,2.189c5.107-5.001,6.255-3.96,5.84-11.984c-8.444,1.561-8.03,1.666-11.158,9.482
		c0.628-2.083,1.562-4.17,1.876-6.357c-5.003-2.085-8.34-3.646-14.49-1.668c0.519,0.209,1.147,0.416,1.771,0.626
		c-2.394,0.626-5.526,1.459-8.026,2.085c0.624,0.105,1.252,0.209,1.876,0.312c-3.756,1.98-5.526,5.003-8.235,8.442
		c1.457-0.731,2.918-1.459,4.479-2.188c-3.646,3.96-7.502,7.607-10.839,11.774c1.042-0.416,2.085-0.728,3.022-1.042
		c-1.67,1.878-3.86,4.379-5.421,6.253c1.042-0.314,2.085-0.624,3.127-0.833C412.557,451.368,417.665,453.867,414.851,458.037
		L414.851,458.037z M458.325,448.659c1.457,0.31,6.045,4.17,5.526,5.522C462.076,458.87,461.243,455.119,458.325,448.659
		L458.325,448.659z"/>
	
		<path id="XMLID_7_" fill-rule="evenodd" clip-rule="evenodd" fill="#ECECEC" stroke="#FFFFFF" stroke-width="3.0164" stroke-linejoin="round" stroke-miterlimit="2.6131" d="
		M412.827,464.51c16.265,10.63,18.45,14.904,36.176,16.151c7.088,6.774,7.297,18.969,7.297,18.969
		c-9.173-10.529-30.336-10.111-43.059-6.778c0,0.109,0.314-8.649,0.314-8.75c0,0.1-5.836-0.314-5.836-0.418
		C407.929,480.766,412.099,472.221,412.827,464.51L412.827,464.51z"/>
	
		<path id="XMLID_6_" fill-rule="evenodd" clip-rule="evenodd" fill="#ECECEC" stroke="#FFFFFF" stroke-width="3.0164" stroke-linejoin="round" stroke-miterlimit="2.6131" d="
		M356.188,411.532l-4.793-12.401c-0.938-2.711,2.708-3.441,3.858-0.835l4.065,9.692L356.188,411.532L356.188,411.532z"/>
	
		<path id="XMLID_5_" fill-rule="evenodd" clip-rule="evenodd" fill="#ECECEC" stroke="#FFFFFF" stroke-width="3.0164" stroke-linejoin="round" stroke-miterlimit="2.6131" d="
		M462.586,473.403c5.526-3.437,9.596-4.375,12.614-3.332c0.523,5.003,1.671,6.046-2.708,8.231c0,0.105-1.566-1.147-1.566-1.247
		c0,0.1-0.1,1.457-0.1,1.352C468.426,481.848,467.279,475.907,462.586,473.403L462.586,473.403z"/>
	
		<path id="XMLID_3_" fill-rule="evenodd" clip-rule="evenodd" fill="#ECECEC" stroke="#FFFFFF" stroke-width="3.0164" stroke-linecap="square" stroke-linejoin="round" stroke-miterlimit="2.6131" d="
		M416.469,497.668c14.071-4.689,33.463-1.875,42.641,9.483c0,0,16.784,2.713,17.826,2.294c4.17-1.457,10.324-1.876,9.177,5.731
		c0,0.109-8.759,27.1-8.759,27.1c0,6.25-18.245,4.898-18.245,4.898c0,0.105,5.631-8.963,5.631-9.068
		c0,0.105,7.297,1.561,7.297,1.457c3.232-2.708,2.918-13.862,7.193-19.069c0-2.189-1.252-3.232-3.856-3.023
		c-16.265,11.049-24.295,7.088-24.295,4.584c0,0.104,2.294,3.96,2.294,3.856c0,0.104,0.314,3.856,0.314,3.755
		c0,0.1-0.314,5.103-0.314,4.999c0,0.104,0.314,5.003,0.314,4.898c0,0.105,0.833,7.297,0.833,7.297
		c0.938,1.252,1.98,2.504,3.023,3.751c-0.31,2.294-0.519,4.584-0.728,6.878c0,0.105,4.17,11.986,4.17,11.882
		c0,0.105,0.314,4.584,0.314,4.479c0,0.104,2.29,3.965,2.29,3.856c0,0.109,3.132,6.255,3.132,6.15
		c0,0.105-10.739,0.419-10.739,0.314c0,0.105-0.733-7.192-0.733-7.192c0-1.566,0-3.127,0-4.584c0,0.105-4.898-6.045-4.898-6.15
		c0,0.105-2.294-10.525-2.294-10.63c0,0.104-2.709-6.045-2.709-6.15c0,0.105-6.05-6.774-6.05-6.878c0,0.104-3.855-5.522-3.855-5.627
		c0,0.105-2.608-6.46-2.608-6.564c0,0.105-4.584-2.189-4.584-2.294c0,0.105-7.197-0.624-7.197-0.729
		c0,0.105-5.108-1.356-5.003-1.461c-0.105,0.104-11.781,0.728-11.781,0.728l-3.44,6.05c-0.105,0.1-4.274,6.669-4.172,6.564
		c-0.103,0.104-2.397,5.731-2.292,5.627c-0.105,0.105-4.274,3.232-4.17,3.127c-0.105,0.105-0.419,3.751-0.419,3.751v3.856
		c-0.102,0.104,6.362,1.566,6.464,1.461c-0.102,0.105,4.901,3.96,5.005,3.856c-0.105,0.104,5.631,5.836,5.731,5.731
		c-0.1,0.105,3.027,4.584,3.027,4.584l0.31,4.584c-0.1,0.105-9.173-0.31-9.068-0.418c-0.105,0.109,0.728-4.998,0.728-4.998
		l-3.751-4.17c-0.105,0.105-8.549-2.918-8.447-3.023c-0.102,0.105-8.027-3.332-7.923-3.437c-0.105,0.104-4.274-1.461-4.17-1.566
		c-0.105,0.104,0.207-5.522,0.314-5.627c-0.107,0.105,4.063-6.774,4.168-6.878c-0.104,0.104,0.314-6.045,0.419-6.15
		c-0.105,0.105-1.252-4.793-1.147-4.898c-0.105,0.104-0.417-4.166-0.312-4.27c-0.105,0.105-0.105-4.379,0-4.484
		c-0.105,0.104-3.963,7.297-3.858,7.192c-0.105,0.105-5.005,2.813-4.901,2.709c-0.104,0.104-5.422,4.689-5.317,4.588
		c-0.105,0.101-7.611,1.876-7.611,1.876l-4.587,3.437c-0.104,0.104,1.773,5.422,1.875,5.317c-0.102,0.105-0.519,9.273-0.416,9.168
		c-0.103,0.105-4.17,4.17-4.17,4.17l-1.876,6.046c-0.107,0.105-0.107,3.96,0,3.855c-0.107,0.105-9.279-0.628-9.177-0.728
		c-0.103,0.1,3.336-8.34,3.441-8.445c-0.105,0.105,2.606-7.502,2.711-7.607c-0.105,0.105,0.626-7.921,0.731-8.026
		c-0.105,0.105-3.546-5.936-3.441-6.045c-0.105,0.109-0.105-6.041,0-6.146c-0.105,0.105,6.359-1.77,6.464-1.875
		c-0.105,0.105,5.631-2.918,5.734-3.022c-0.102,0.105,1.042-4.17,1.147-4.275c-0.105,0.105-4.275-7.088-4.17-7.188
		c-0.105,0.101-2.399-5.212-2.294-5.317c-0.105,0.105,0.626-9.068,0.731-9.173c-0.105,0.104,4.067-7.917,4.17-8.021
		c-0.103,0.105-5.422,0.833-5.317,0.728c-0.105,0.104-4.693,4.375-4.586,4.27c-0.107,0.104-1.566,5.003-1.461,4.898
		c-0.105,0.105-0.833,6.988-0.728,6.879c-0.105,0.109-2.294-5.313-2.294-5.313l-3.13,7.607c-0.103,0.105,1.461,5.417,1.566,5.317
		c-0.105,0.1-1.252,5.417-1.15,5.312c-0.102,0.105-1.873,8.44-1.873,8.44l-3.025,4.17c-0.105,0.105,0.209-6.774,0.312-6.874
		c-0.103,0.1-2.606,6.146-2.606,6.146l-4.587,3.437c-0.104,0.109-8.132,4.693-8.027,4.589c-0.105,0.105,6.359-7.193,6.464-7.297
		c-0.105,0.105,3.023-9.378,3.127-9.483c-0.105,0.105-5.421,5.417-5.317,5.313c-0.104,0.105,0.938-5.208,1.042-5.313
		c-0.105,0.105-0.105-8.34,0-8.44c-0.105,0.1-5.005,3.227-4.898,3.123c-0.107,0.104,4.794-7.188,4.898-7.293
		c-0.105,0.104,1.042-7.921,1.147-8.026c-0.105,0.104-1.251-5.208-1.147-5.317c-0.105,0.109,1.98-4.999,1.98-4.999h-4.17
		c-0.105,0.105,2.501-3.751,2.606-3.751c-0.105,0,3.025-4.17,3.025-4.17l3.856-4.274c-0.104,0,9.384-3.437,9.487-3.437
		c-0.102,0,12.095,4.27,12.2,4.27c-0.105,0,4.796,7.611,4.9,7.611c-0.105,0,2.918-6.879,3.023-6.879
		c-0.105,0,6.048-2.294,6.152-2.294c-0.104,0,10.111,0,10.111,0C391.134,490.789,404.27,494.231,416.469,497.668L416.469,497.668z"
		/>
	
		<path id="XMLID_2_" fill-rule="evenodd" clip-rule="evenodd" fill="#ECECEC" stroke="#FFFFFF" stroke-width="3.0164" stroke-linejoin="round" stroke-miterlimit="2.6131" d="
		M368.73,443.883c-1.354-0.624-3.336-1.041-5.107-1.145c-0.626,0-1.252,0.312-1.878,0.417c0,0-3.335,0.104-3.232,0.104
		c-0.102,0-3.232,0-3.127,0c-0.105,0-1.773-1.356-1.668-1.356c-0.105,0-0.312-3.23-0.207-3.23c-0.105,0,1.564-3.649,1.666-3.649
		c-0.103,0-0.624-6.774-0.521-6.774c-0.103,0-0.521-3.021-0.417-3.021c-0.105,0-1.147-1.668-1.042-1.668
		c-0.104,0-1.252-2.813-1.147-2.813c-0.105,0-0.938-2.813-0.833-2.813c-0.105,0,1.773-2.711,1.876-2.711
		c-0.103,0,2.085-4.584,2.189-4.584c-0.104,0,2.399-3.96,2.504-3.96c-0.105,0,3.96-2.19,4.065-2.19c-0.105,0,3.858,1.773,3.96,1.773
		c-0.102,0,2.608,3.958,2.711,3.958c-0.103,0-0.207,3.023-0.207,3.023c-1.461,1.042-3.441,2.813-3.337,2.813
		c-0.105,0-1.668-0.833-1.564-0.833c-0.104,0-1.771-0.312-1.771-0.312c-0.523,0.728-1.147,1.561-1.773,2.085
		c0,0-0.104,3.228,0,3.228c-0.104,0,0.938,4.484,1.042,4.484c-0.104,0,0.417,2.394,0.521,2.394c-0.105,0,0.626,3.232,0.728,3.232
		c-0.102,0,0.209,2.918,0.209,2.918c1.042-0.207,2.399-0.417,3.337-0.521c0,0,0.312-5.003,0.416-5.003
		c-0.105,0,1.98-2.397,2.085-2.397c-0.105,0,1.564-1.147,1.564-1.147c0.938,0,1.98,0,2.816,0c1.252,0,2.606,0.107,3.649,0.314
		c0.728,0.209,1.459,0.731,1.982,1.147c0.417,0.417,1.145,1.042,1.145,1.457c0,0.626-0.833,1.252-1.459,1.564
		c-1.459,0.731-4.065,0.209-4.9,1.669c-0.626,1.145,2.713,0,3.858,0c1.042,0,2.083-0.626,2.918-0.312
		c1.044,0.417,1.773,1.669,2.503,2.502c0.938,1.145,1.875,2.499,2.502,3.856c0.833,2.085,1.459,4.584,2.087,6.774
		c0.103,0.626,0.519,1.25,0.519,1.98c0,0,2.399,1.566,2.399,1.461c0,0.105,2.501,0.728,2.501,0.624c0,0.105,2.711,0.414,2.711,0.31
		c0,0.104-4.17-2.083-4.17-2.188c0,0.105-1.669-1.875-1.669-1.875c-0.104-1.04-0.418-2.188-0.73-3.023
		c-0.312-0.938-1.145-1.873-1.459-2.708c-0.314-0.731-0.521-1.773-0.835-2.397c-0.417-0.833-1.04-1.669-1.668-2.397
		c-0.519-0.626-1.25-1.563-1.876-2.294c-0.521-0.624-2.083-1.04-2.083-1.98c0-0.833,1.771-1.25,2.397-0.938
		c1.042,0.521,1.042,2.085,1.669,2.918c0.624,0.833,1.666,1.668,2.397,2.294c0.521,0.521,0.938,1.666,1.668,1.773
		c0.731,0.1,1.147-1.045,1.669-1.147c0.521,0,1.147,0.102,1.459,0.312c0.626,0.521,0.938,1.564,1.355,2.189
		c0.314,0.417,0.523,1.25,1.044,1.459c0.936,0.414,3.44,1.666,3.337,0.624c-0.212-1.459-2.503-1.771-3.441-2.709
		c-0.523-0.418-1.147-1.252-1.461-1.875c-0.417-0.835-0.624-1.98-0.938-2.813c-0.417-0.94-0.521-3.127-1.564-2.92
		c-1.042,0.209,0.521,2.397,0.105,3.23c-0.209,0.417-1.356,0.107-1.773-0.31c-0.521-0.523-0.626-1.564-1.145-2.294
		c-0.417-0.521-0.94-1.356-1.67-1.771c-0.417-0.209-1.666,0.207-1.771-0.314c-0.104-0.728,1.668-1.875,1.042-2.189
		c-1.042-0.519-2.294,0.731-3.441,0.731c-0.519,0-1.147-0.519-1.564-0.938c-0.521-0.521-1.354-1.145-1.459-1.98
		c-0.105-0.938,0.105-2.19,0.626-3.023c1.25-1.978,2.918-3.751,4.586-5.417c0.94-0.938,2.294-1.668,3.441-2.189
		c1.666-0.728,3.544-1.564,5.317-2.085c2.189-0.624,4.586-1.459,6.776-1.564c1.773,0,3.753,0.105,5.317,0.731
		c1.25,0.521,2.292,1.666,3.025,2.606c0.624,0.833,1.252,1.98,1.352,2.918c0.105,0.938,0.105,2.292-0.31,3.022
		c-0.419,0.624-1.566,1.145-2.399,1.145c-0.833,0-1.668-0.938-2.606-1.145c-0.938-0.209-2.085-0.314-3.232-0.314
		c-0.938,0-1.983,0.314-2.92,0.521c-0.833,0.105-3.335,0.938-2.502,0.938c1.564,0,3.13-0.938,4.691-1.04
		c1.147,0,2.399,0.102,3.337,0.416c1.147,0.312,2.503,0.833,3.127,1.769c0.728,1.045,0.728,2.711,0.728,3.96
		c0,1.252-0.414,2.502-0.624,3.544c-0.209,1.564-0.626,3.232-1.147,4.689c-0.207,0.835-0.835,1.773-1.252,2.503
		c-0.417,0.731-0.938,1.771-1.668,2.188c-0.521,0.314-2.19-0.417-2.083,0.209c0.102,0.833,1.98,0.624,2.397,1.354
		c0.209,0.521-0.314,1.25-0.314,1.98c-0.103,0.938,0.105,2.187-0.312,3.232c-0.312,0.728-1.355,0.936-1.98,1.457
		c0,0-2.085,1.564-2.085,1.459c0,0.105,4.482-1.354,4.482-1.459c0,0.105,1.252-3.335,1.252-3.335c0,0.73,0.104,1.564,0,2.189
		c0,0.624-0.521,1.354-0.728,2.188c0,0-2.399,3.544-2.399,3.439c0,0.105-5.005,2.813-5.005,2.708c0,0.105-13.031,5.631-13.031,5.526
		c0,0.105,13.24-4.484,13.24-4.588c0,0.105,4.691-2.709,4.691-2.813c0,0.105,3.025-3.542,3.025-3.542
		c0.207-0.523,0.624-1.356,0.936-1.878c0,0,1.461,1.983,1.461,1.878c0,0.105-1.354,3.856-1.354,3.751
		c0,0.105-2.087,3.441-2.087,3.336c0,0.105-2.606,4.166-2.606,4.061c0,0.105-2.606,3.546-2.606,3.441c0,0.105-4.17,4.17-4.17,4.065
		c0,0.105-2.294,1.666-2.294,1.561c0,0.105,3.753-1.457,3.753-1.561c0,0.105,2.294-2.189,2.294-2.294
		c0,0.105,2.397-2.604,2.397-2.708c0,0.105,2.294-3.542,2.294-3.651c0,0.109,2.189-2.709,2.189-2.809c0,0.1,1.564-2.19,1.564-2.294
		c0,0.105,1.461-4.17,1.461-4.274c0,0.105,1.771,3.232,1.771,3.127c0,0.105,0,2.085,0,1.98c0,0.105-0.31,4.689-0.31,4.584
		c0,0.105-0.942,4.274-0.942,4.17c0,0.105-2.083,3.856-2.083,3.751c0,0.105-1.668,5.317-1.668,5.212
		c0,0.105-2.711,4.375-2.711,4.275c0,0.1-1.983,3.123-1.983,3.018c0,0.105,4.589-4.898,4.589-4.998c0,0.101,1.354-3.232,1.354-3.337
		c0,0.105,1.459-3.441,1.459-3.542c0,0.1,1.147-3.027,1.147-3.127c0,0.1,1.461-2.085,1.461-2.19c0,0.105,0.624-3.437,0.624-3.546
		c0,0.109,0-4.999,0-5.103c0,0.105,4.17,2.918,4.17,2.813c0,0.105-0.519,5.522-0.519,5.417c0,0.104,0,3.755,0,3.646
		c0,0.109-0.733,3.965-0.733,3.86c0,0.105-2.394,7.712-2.394,7.607c0,0.104-1.771,4.793-1.771,4.689
		c0,0.105-1.151,4.379-1.151,4.274c0,0.105,0.419,4.998,0.419,4.898c0,0.1,1.771,4.479,1.771,4.375c0,0.104,3.127,9.382,3.127,9.277
		c0,0.105,1.775,12.196,1.775,12.087c0,0.109-0.314,9.173-0.314,9.068c0,0.104,0.733,5.107,0.733,5.003
		c0,0.104,3.542,6.045,3.542,5.94c0,0.105,2.604,2.085,2.604,1.98c0,0.104,6.883,8.335,6.883,8.335
		c-0.519,0.209-1.356,0.733-1.875,1.147c0,0-4.693-1.98-4.693-2.085c0,0.105-5.422-2.813-5.422-2.918
		c0,0.105-6.774-1.875-6.774-1.98c0,0.104-3.963-0.833-3.963-0.938c0,0.105-1.459-3.437-1.459-3.542
		c0,0.105-0.417-5.317-0.417-5.421c0,0.104-0.209-4.165-0.209-4.27c0,0.105-0.314-3.441-0.314-3.546
		c0,0.105-18.764-0.519-18.764-0.624c0,0.105,0.728-10.315,0.728-10.42c0,0.105,8.966-0.728,8.966-0.728
		c-0.105-0.523-0.207-1.251-0.312-1.67c0,0-12.928,0-12.928-0.105c0,0.105-0.521-20.321-0.521-20.426
		c0,0.105-6.359-1.666-6.359-1.77c0,0.104-3.546-3.751-3.546-3.856c0,0.105-2.501-4.17-2.394-4.275
		c-0.107,0.105,6.253-0.624,6.253-0.728c0,0.105,5.629-4.48,5.629-4.584c0,0.105-2.499,1.147-2.499,1.042
		c0,0.105-3.858,1.875-3.858,1.771c0,0.104-2.92,0.419-2.92,0.314c0,0.105-0.209-7.507-0.209-7.607c0,0.1,6.988-1.147,6.988-1.252
		c0,0.105-4.901-0.105-4.901-0.209c0,0.104-1.878-2.399-1.878-2.499c0,0.101-0.938-4.174-0.938-4.274c0,0.101,0,3.437,0,3.337
		c0,0.1-3.022,3.018-2.92,2.913c-0.102,0.105-4.586,3.96-4.482,3.86c-0.104,0.1-4.274,1.666-4.172,1.561
		c-0.102,0.105-6.357,2.085-6.253,1.98c-0.104,0.105,1.354-3.541,1.457-3.646c-0.103,0.105-2.606,1.247-2.502,1.143
		c-0.105,0.105-2.187,1.67-2.085,1.566c-0.102,0.105-4.586,1.042-4.484,0.938c-0.102,0.105,2.19-4.274,2.294-4.379
		c-0.105,0.105-3.858,1.356-3.751,1.252c-0.107,0.104-2.92,1.251-2.816,1.147c-0.105,0.105-6.778,0.314-6.673,0.209
		c-0.105,0.105,5.214-3.127,5.317-3.232c-0.103,0.105-0.103-3.336,0-3.437c-0.103,0.101,3.544-4.693,3.651-4.798
		c-0.107,0.104,5.212-2.709,5.317-2.813c-0.105,0.105,1.98-3.96,2.085-4.061c-0.105,0.1-3.023,3.332-2.92,3.228
		c-0.103,0.104-4.068,1.771-3.96,1.666c-0.107,0.105-2.19,2.085-2.087,1.98c-0.103,0.104-4.482,1.98-4.379,1.875
		c-0.102,0.105-2.816,1.252-2.711,1.147c-0.105,0.105,0.209-4.898,0.314-5.003c-0.105,0.105,2.503-2.085,2.606-2.185
		c-0.103,0.1-0.312-5.941-0.209-6.046c-0.102,0.105-2.397-1.042-2.294-1.147c-0.102,0.105,0.523-3.544,0.628-3.649
		c-0.105,0.105-4.901-2.397-4.796-2.397c-0.104,0,11.572-8.649,11.677-8.649c-0.105,0,8.549-7.607,8.651-7.607
		c-0.102,0,2.294,0.312,2.401,0.312c-0.107,0,2.187,2.292,2.292,2.292c-0.105,0-1.042,2.397-0.938,2.397
		c-0.104,0-2.501,1.878-2.399,1.878c-0.102,0-1.564,1.666-1.459,1.666c-0.105,0-1.878,1.878-1.878,1.878
		c0.521,0.207,1.357,0.417,1.878,0.728c0,0-1.459,2.397-1.357,2.397c-0.102,0-1.98,3.753-1.875,3.753
		c-0.105,0,3.441-4.482,3.544-4.482c-0.103,0,2.918-0.209,3.025-0.209c-0.107,0,0.521,1.459,0.624,1.459
		c-0.103,0,0.94,3.232,1.042,3.232c-0.103,0,1.356,0.728,1.461,0.728c-0.104,0,1.98,0.207,2.085,0.207c-0.105,0,0,3.441,0.105,3.336
		c-0.105,0.105-0.521,2.604-0.419,2.499c-0.102,0.105,3.13-0.938,3.232-1.042c-0.102,0.105-0.728,3.023-0.626,2.918
		c-0.103,0.105-0.417,3.856-0.312,3.755c-0.105,0.101-0.626,3.437-0.731,3.437c-1.564,0.833-2.813,4.898-2.711,4.793
		c-0.103,0.105,3.546-3.127,3.65-3.232c-0.104,0.105,1.459-5.313,1.564-5.417c-0.105,0.105,0.938-4.484,1.042-4.584
		c-0.105,0.1,3.232-2.608,3.335-2.713c-0.102,0.105,2.92-1.352,2.92-1.457c0,0.105-1.98-1.668-1.98-1.668
		C367.481,444.3,369.147,444.092,368.73,443.883L368.73,443.883z"/>
	
		<path id="XMLID_1_" fill-rule="evenodd" clip-rule="evenodd" fill="#ECECEC" stroke="#FFFFFF" stroke-width="3.0164" stroke-linejoin="round" stroke-miterlimit="2.6131" d="
		M359.102,416.751l64.639,158.827l5.627,10.32c0,0-2.185-11.467-2.185-11.572c0,0.105-64.641-159.345-64.641-159.345
		C361.915,413.209,358.161,414.668,359.102,416.751L359.102,416.751z"/>
</g>
<g id="XMLID_178_">
</g>
<g id="XMLID_179_">
</g>
<g id="XMLID_180_">
</g>
<g id="XMLID_181_">
</g>
<g id="XMLID_182_">
</g>
<g id="XMLID_183_">
</g>
<g id="XMLID_184_">
</g>
<g id="XMLID_185_">
</g>
<g id="XMLID_186_">
</g>
<g id="XMLID_187_">
</g>
<g id="XMLID_188_">
</g>
<g id="XMLID_189_">
</g>
<g id="XMLID_190_">
</g>
<g id="XMLID_191_">
</g>
<g id="XMLID_192_">
</g>
</svg>
