<?xml version="1.0" encoding="utf-8"?>
<!-- Generator: Adobe Illustrator 19.0.0, SVG Export Plug-In . SVG Version: 6.00 Build 0)  -->
<svg version="1.1" id="Capa_1" xmlns="http://www.w3.org/2000/svg" xmlns:xlink="http://www.w3.org/1999/xlink" x="0px" y="0px"
	 width="56px" height="56px" viewBox="-453 253 56 56" style="enable-background:new -453 253 56 56;" xml:space="preserve">
<style type="text/css">
	.st0{fill:#E91313;stroke:#E91313;stroke-width:2;stroke-linecap:round;stroke-linejoin:round;stroke-miterlimit:10;}
	.st1{fill:#E91313;}
	.st2{fill:#00004A;}
</style>
<g>
	<path class="st0" d="M-407.6,271.3v27c0,2.4-2,4.4-4.4,4.4h-4.4v-27c0-2.4,2-4.4,4.4-4.4H-407.6z"/>
	<rect x="-445" y="254.6" class="st1" width="10.3" height="3.4"/>
	<g>
		<path class="st2" d="M-408.5,253.9h-14.3c-1.6,0-3.2,0.6-4.3,1.8l-7.8,7.8h-8.3c-2.4,0-4.4,2-4.4,4.4v34c0,3.4,2.7,6.1,6.1,6.1
			h33.1c3.4,0,6.1-2.7,6.1-6.1v-41.8C-402.5,256.7-405.1,253.9-408.5,253.9z M-404.1,301.8c0,2.4-2,4.4-4.4,4.4h-33
			c-2.4,0-4.4-2-4.4-4.4v-34c0-1.4,1.2-2.6,2.6-2.6h8.7c0.2,0,0.5-0.1,0.6-0.3l8.1-8.1c0.8-0.8,1.9-1.3,3.1-1.3h14.4
			c2.4,0,4.4,2,4.4,4.4v41.9H-404.1z"/>
	</g>
	<g>
		<path class="st2" d="M-434.6,253.9H-445c-0.5,0-0.9,0.4-0.9,0.9v3.5c0,0.5,0.4,0.9,0.9,0.9h10.4c0.5,0,0.9-0.4,0.9-0.9v-3.5
			C-433.8,254.3-434.1,253.9-434.6,253.9z M-435.5,257.5h-8.7v-1.7h8.7V257.5z"/>
	</g>
	<g>
		<path class="st2" d="M-408.5,257.5H-419c-4.3,0-7.8,3.5-7.8,7.8v1.7c0,0.5,0.4,0.9,0.9,0.9h19.2c0.5,0,0.9-0.4,0.9-0.9v-7
			C-405.9,258.7-407,257.5-408.5,257.5z M-407.6,266.2H-425v-0.9c0-3.4,2.7-6.1,6.1-6.1h10.5c0.5,0,0.9,0.4,0.9,0.9v6.1H-407.6z"/>
	</g>
	<path class="st2" d="M-405.9,270.5v27.9c0,3.4-2.7,6.1-6.1,6.1h-5.2c-0.5,0-0.9-0.4-0.9-0.9v-27.9c0-3.4,2.7-6.1,6.1-6.1h5.2
		C-406.3,269.7-405.9,270-405.9,270.5z M-407.6,298.3v-27h-4.4c-2.4,0-4.4,2-4.4,4.4v27h4.4C-409.5,302.8-407.6,300.8-407.6,298.3z"
		/>
	<g>
		<rect x="-444.3" y="257.5" class="st2" width="1.7" height="7"/>
	</g>
	<g>
		<rect x="-437.3" y="257.5" class="st2" width="1.7" height="7"/>
	</g>
	<g>
		<path class="st2" d="M-432,276.5c0-0.1-0.1-0.2-0.1-0.3l-5.2-8.7c-0.1-0.1-0.1-0.2-0.2-0.2c-0.4-0.3-1-0.2-1.3,0.2l-5.2,8.7
			c-0.1,0.1-0.1,0.2-0.1,0.3c-0.1,0.4-0.1,0.7-0.1,1.1c0,3.8,2.7,6.8,6.1,6.8s6.1-3.1,6.1-6.8C-432,277.3-432,276.8-432,276.5z
			 M-438.1,282.7c-2.4,0-4.4-2.3-4.4-5.1c0-0.2,0-0.5,0-0.7l4.3-7.3l4.3,7.3c0,0.2,0,0.5,0,0.7
			C-433.8,280.5-435.8,282.7-438.1,282.7z"/>
	</g>
	<g>
		<rect x="-444.3" y="286.2" class="st2" width="12.2" height="1.7"/>
	</g>
	<g>
		<rect x="-444.3" y="289.7" class="st2" width="24.4" height="1.7"/>
	</g>
	<g>
		<rect x="-444.3" y="293.2" class="st2" width="24.4" height="1.7"/>
	</g>
	<g>
		<rect x="-444.3" y="296.7" class="st2" width="24.4" height="1.7"/>
	</g>
	<g>
		<rect x="-444.3" y="300.2" class="st2" width="24.4" height="1.7"/>
	</g>
</g>
</svg>
