<?xml version="1.0" encoding="utf-8"?>
<!-- Generator: Adobe Illustrator 19.0.0, SVG Export Plug-In . SVG Version: 6.00 Build 0)  -->
<svg version="1.1" id="Capa_1" xmlns="http://www.w3.org/2000/svg" xmlns:xlink="http://www.w3.org/1999/xlink" x="0px" y="0px"
	 width="54px" height="54px" viewBox="-10 254 54 54" style="enable-background:new -10 254 54 54;" xml:space="preserve">
<style type="text/css">
	.st0{fill:#E91313;stroke:#E91313;stroke-width:2;stroke-linecap:round;stroke-linejoin:round;stroke-miterlimit:10;}
	.st1{fill:#E91313;}
	.st2{fill:#00004A;}
</style>
<g>
	<path class="st0" d="M34.4,271.4v27c0,2.4-2,4.4-4.4,4.4h-4.4v-27c0-2.4,2-4.4,4.4-4.4H34.4z"/>
	<rect x="-2.9" y="254.7" class="st1" width="10.3" height="3.4"/>
	<g>
		<path class="st2" d="M33.5,254H19.2c-1.6,0-3.2,0.6-4.3,1.8l-7.8,7.8h-8.3c-2.4,0-4.4,2-4.4,4.4v34c0,3.4,2.7,6.1,6.1,6.1h33.1
			c3.4,0,6.1-2.7,6.1-6.1v-41.8C39.6,256.7,36.9,254,33.5,254z M37.9,301.9c0,2.4-2,4.4-4.4,4.4H0.5c-2.4,0-4.4-2-4.4-4.4v-34
			c0-1.4,1.2-2.6,2.6-2.6h8.7c0.2,0,0.5-0.1,0.6-0.3l8.1-8.1c0.8-0.8,1.9-1.3,3.1-1.3h14.4c2.4,0,4.4,2,4.4,4.4V301.9z"/>
	</g>
	<g>
		<path class="st2" d="M7.4,254H-3c-0.5,0-0.9,0.4-0.9,0.9v3.5c0,0.5,0.4,0.9,0.9,0.9H7.4c0.5,0,0.9-0.4,0.9-0.9v-3.5
			C8.3,254.4,7.9,254,7.4,254z M6.5,257.5h-8.7v-1.7h8.7V257.5z"/>
	</g>
	<g>
		<path class="st2" d="M33.5,257.5H23.1c-4.3,0-7.8,3.5-7.8,7.8v1.7c0,0.5,0.4,0.9,0.9,0.9h19.2c0.5,0,0.9-0.4,0.9-0.9v-7
			C36.2,258.7,35,257.5,33.5,257.5z M34.4,266.2H17v-0.9c0-3.4,2.7-6.1,6.1-6.1h10.5c0.5,0,0.9,0.4,0.9,0.9V266.2z"/>
	</g>
	<path class="st2" d="M36.2,270.5v27.9c0,3.4-2.7,6.1-6.1,6.1h-5.2c-0.5,0-0.9-0.4-0.9-0.9v-27.9c0-3.4,2.7-6.1,6.1-6.1h5.2
		C35.8,269.7,36.2,270.1,36.2,270.5z M34.4,298.4v-27h-4.4c-2.4,0-4.4,2-4.4,4.4v27h4.4C32.5,302.8,34.4,300.8,34.4,298.4z"/>
	<g>
		<rect x="-2.2" y="257.5" class="st2" width="1.7" height="7"/>
	</g>
	<g>
		<rect x="4.8" y="257.5" class="st2" width="1.7" height="7"/>
	</g>
	<g>
		<path class="st2" d="M10,276.5c0-0.1-0.1-0.2-0.1-0.3l-5.2-8.7c-0.1-0.1-0.1-0.2-0.2-0.2c-0.4-0.3-1-0.2-1.3,0.2l-5.2,8.7
			c-0.1,0.1-0.1,0.2-0.1,0.3c-0.1,0.4-0.1,0.7-0.1,1.1c0,3.8,2.7,6.8,6.1,6.8s6.1-3.1,6.1-6.8C10,277.3,10,276.9,10,276.5z
			 M3.9,282.7c-2.4,0-4.4-2.3-4.4-5.1c0-0.2,0-0.5,0-0.7l4.3-7.3l4.3,7.3c0,0.2,0,0.5,0,0.7C8.3,280.5,6.3,282.7,3.9,282.7z"/>
	</g>
	<g>
		<rect x="-2.2" y="286.2" class="st2" width="12.2" height="1.7"/>
	</g>
	<g>
		<rect x="-2.2" y="289.7" class="st2" width="24.4" height="1.7"/>
	</g>
	<g>
		<rect x="-2.2" y="293.2" class="st2" width="24.4" height="1.7"/>
	</g>
	<g>
		<rect x="-2.2" y="296.7" class="st2" width="24.4" height="1.7"/>
	</g>
	<g>
		<rect x="-2.2" y="300.2" class="st2" width="24.4" height="1.7"/>
	</g>
</g>
</svg>
