<?xml version="1.0" encoding="utf-8"?>
<!-- Generator: Adobe Illustrator 19.0.0, SVG Export Plug-In . SVG Version: 6.00 Build 0)  -->
<svg version="1.1" id="Layer_1" xmlns="http://www.w3.org/2000/svg" xmlns:xlink="http://www.w3.org/1999/xlink" x="0px" y="0px"
	 width="1000px" height="1000px" viewBox="0 0 1000 1000" style="enable-background:new 0 0 1000 1000;" xml:space="preserve">
<style type="text/css">
	.st0{fill:url(#XMLID_63_);}
	.st1{fill:url(#XMLID_64_);}
	.st2{fill:#FFFFFF;}
	.st3{fill:#00004A;}
	.st4{opacity:0.55;fill:#1E25A2;}
	.st5{opacity:0.7;fill:#1E25A2;}
	.st6{fill:none;stroke:#FF1515;stroke-width:2;stroke-linecap:round;stroke-miterlimit:10;}
	.st7{fill:none;stroke:#FF1515;stroke-width:2;stroke-linecap:round;stroke-linejoin:round;stroke-miterlimit:10;}
	.st8{fill:none;stroke:#FFFFFF;stroke-width:2;stroke-linecap:round;stroke-linejoin:round;stroke-miterlimit:10;}
	.st9{fill:none;stroke:#3548FF;stroke-width:2;stroke-linecap:round;stroke-miterlimit:10;}
	.st10{fill:none;stroke:#3548FF;stroke-width:2;stroke-linecap:round;stroke-linejoin:round;stroke-miterlimit:10;}
	.st11{fill:none;stroke:#FFFFFF;stroke-width:2;stroke-miterlimit:10;}
	.st12{fill:none;stroke:#FF1515;stroke-width:2;stroke-linejoin:round;}
	.st13{fill:none;stroke:#FF1515;stroke-width:2;stroke-linejoin:round;stroke-dasharray:3.0708,3.0708;}
	.st14{fill:none;stroke:#FF1515;stroke-width:2;stroke-linejoin:round;stroke-dasharray:3.3385,3.3385;}
	.st15{fill:none;stroke:#FFFFFF;stroke-width:2;stroke-linecap:round;stroke-miterlimit:10;}
	.st16{fill:#3548FF;}
	.st17{fill:none;stroke:#FFFFFF;stroke-width:2;stroke-linejoin:round;stroke-miterlimit:10;stroke-dasharray:2;}
	.st18{fill:none;stroke:#3548FF;stroke-width:2;stroke-linejoin:round;stroke-miterlimit:10;}
	.st19{fill:none;}
	.st20{fill:#E91313;stroke:#E91313;stroke-width:2;stroke-linecap:round;stroke-linejoin:round;stroke-miterlimit:10;}
</style>
<g id="XMLID_1_">
	<g id="XMLID_2_">
		<g id="XMLID_3_">
			<g id="XMLID_178_">
				<linearGradient id="XMLID_63_" gradientUnits="userSpaceOnUse" x1="211.6666" y1="22" x2="211.6666" y2="116">
					<stop  offset="0" style="stop-color:#A9B0FF"/>
					<stop  offset="1" style="stop-color:#2F40EC"/>
				</linearGradient>
				<path id="XMLID_179_" class="st0" d="M256.7,23.9c-1.2-1.2-2.9-1.9-4.7-1.9c-1.8,0-3.4,0.7-4.7,1.9l-6.3,6.3l1.5,0.8
					c1.7,0.9,3,1.9,4.1,3c1.1,1.1,2,2.4,3,4.1l0.8,1.5l6.3-6.3c1.2-1.2,1.9-2.9,1.9-4.7S258,25.2,256.7,23.9z M255,31.5l-4,4
					c-0.8-1.3-1.6-2.3-2.6-3.3c-0.9-0.9-2-1.8-3.3-2.6l4-4c0.8-0.8,1.8-1.2,2.9-1.2c1.1,0,2.1,0.4,2.9,1.2h0
					c0.8,0.8,1.2,1.8,1.2,2.9C256.2,29.7,255.8,30.7,255,31.5z M182.2,52.9l2.2,2.2c-4.5,2.5-7.3,7.4-7,12.7
					c0.1,1.2,0.7,2.2,1.7,2.9c1,0.7,2.3,0.9,3.5,0.5l13.6-4.4l6,6l-1,1c-0.7,0.7-1.1,1.7-1.1,2.8s0.4,2,1.1,2.8c1.5,1.5,4,1.5,5.5,0
					l1-1l6,6l-4.4,13.6c-0.4,1.2-0.2,2.5,0.5,3.5c0.7,1,1.7,1.6,2.9,1.7c0.3,0,0.5,0,0.8,0c5,0,9.5-2.7,11.9-7l2.2,2.2
					c1.5,1.5,4,1.5,5.5,0c0.7-0.7,1.1-1.7,1.1-2.8c0-1-0.4-2-1.1-2.8l-4.9-4.9l7.4-24.1l-1.6,0c-3.9,0-7.6-1.4-10.7-3.9l-1.4-1.1
					l-5.5,17.2l-3.2-3.2l1-1c0.7-0.7,1.1-1.7,1.1-2.8c0-1-0.4-2-1.1-2.8c-1.5-1.5-4-1.5-5.5,0l-1,1l-3.2-3.2l17.2-5.5l-1.1-1.4
					c-2.5-3.1-3.8-6.8-3.9-10.7l0-1.6l-24.1,7.4l-4.9-4.9c-1.5-1.5-4-1.5-5.5,0C180.7,48.9,180.7,51.4,182.2,52.9z M184,49.2
					c0.6-0.5,1.5-0.6,2.1,0l6,6l22.4-6.9c0.3,3.2,1.4,6.4,3.3,9.2L200,63.1l7.8,7.8l2.8-2.8c0.6-0.5,1.5-0.6,2.1,0
					c0.3,0.3,0.4,0.6,0.4,1c0,0.4-0.2,0.8-0.4,1l-2.8,2.8l7.8,7.8l5.7-17.7c2.8,1.8,5.9,3,9.2,3.3l-6.9,22.4l6,6
					c0.3,0.3,0.4,0.6,0.4,1c0,0.4-0.2,0.8-0.4,1c-0.6,0.6-1.5,0.6-2.1,0l-4.8-4.8l-0.7,1.7c-1.8,4.5-6.2,7.4-11,7.1
					c-0.6,0-0.9-0.4-1-0.6c-0.3-0.4-0.3-0.9-0.2-1.3l4.8-15l-8.8-8.8l-2.8,2.8c-0.6,0.6-1.5,0.6-2.1,0c-0.3-0.3-0.4-0.6-0.4-1
					c0-0.4,0.2-0.8,0.4-1l2.8-2.8l-8.8-8.8l-15,4.8c-0.4,0.1-0.9,0.1-1.3-0.2c-0.2-0.1-0.6-0.5-0.6-1c-0.3-4.8,2.6-9.3,7.1-11
					l1.7-0.7l-4.8-4.8C183.4,50.6,183.4,49.7,184,49.2z M238.3,99.1c-1-0.1-2.1,0.1-2.9,0.8c-13.2,10.3-31.3,10.9-45.2,1.7
					c0.8-3.1-0.1-6.4-2.4-8.7c-2.3-2.3-5.6-3.2-8.7-2.4c-9.2-14-8.6-32.1,1.7-45.2c1.3-1.7,1-4.1-0.7-5.5c-1.7-1.3-4.2-1-5.5,0.7
					c-12.6,16.1-13.2,38.2-1.7,55c-1.7,3.5-1,7.8,1.8,10.6c2.8,2.8,7,3.5,10.6,1.8c8,5.5,17.2,8.2,26.4,8.2
					c10.1,0,20.2-3.3,28.6-9.9c1.7-1.3,2-3.8,0.7-5.5C240.3,99.8,239.4,99.3,238.3,99.1z M238.7,104.2
					c-15.5,12.1-36.7,12.5-52.7,1.2l-0.6-0.5l-0.7,0.4c-2.7,1.6-6.1,1.2-8.3-1c-2.2-2.2-2.6-5.6-1-8.3l0.4-0.7l-0.5-0.6
					c-11.3-16-10.9-37.2,1.2-52.7c0.5-0.6,1.4-0.7,2-0.3c0.6,0.5,0.8,1.4,0.3,2c-11.1,14.3-11.6,33.9-1.3,48.9l0.5,0.8l0.9-0.3
					c2.5-0.9,5.2-0.3,7.1,1.6c1.9,1.9,2.5,4.6,1.6,7.1l-0.3,0.9l0.8,0.5c15,10.3,34.6,9.8,48.9-1.3c0.3-0.2,0.7-0.3,1.1-0.3
					c0.4,0,0.7,0.2,0.9,0.5l0,0C239.5,102.8,239.4,103.7,238.7,104.2z M234.3,31.8c-3.9,0-7.6,1.5-10.3,4.3
					c-2.8,2.8-4.3,6.4-4.3,10.3c0,3.9,1.5,7.6,4.3,10.3c2.8,2.8,6.4,4.3,10.3,4.3s7.6-1.5,10.3-4.3c2.8-2.8,4.3-6.4,4.3-10.3
					c0-3.9-1.5-7.6-4.3-10.3C241.9,33.3,238.2,31.8,234.3,31.8z M242.9,55c-2.3,2.3-5.4,3.6-8.6,3.6s-6.3-1.3-8.6-3.6
					c-2.3-2.3-3.6-5.4-3.6-8.6c0-3.3,1.3-6.3,3.6-8.6c2.3-2.3,5.4-3.6,8.6-3.6s6.3,1.3,8.6,3.6c2.3,2.3,3.6,5.4,3.6,8.6
					C246.4,49.6,245.2,52.7,242.9,55z M227.7,39.8c-1.8,1.8-2.7,4.1-2.7,6.6c0,2.5,1,4.8,2.7,6.6c1.8,1.8,4.1,2.7,6.6,2.7
					c2.5,0,4.8-1,6.6-2.7c3.6-3.6,3.6-9.5,0-13.1C237.2,36.2,231.3,36.2,227.7,39.8z M239.1,51.2c-1.3,1.3-3,2-4.8,2
					c-1.8,0-3.5-0.7-4.8-2c-1.3-1.3-2-3-2-4.8c0-1.8,0.7-3.5,2-4.8c1.3-1.3,3.1-2,4.8-2c1.7,0,3.5,0.7,4.8,2
					C241.8,44.2,241.8,48.6,239.1,51.2z M234.3,42.5c-2.2,0-3.9,1.8-3.9,3.9c0,2.2,1.8,3.9,3.9,3.9c2.2,0,3.9-1.8,3.9-3.9
					C238.2,44.2,236.4,42.5,234.3,42.5z M234.3,47.8c-0.8,0-1.5-0.7-1.5-1.5c0-0.8,0.7-1.5,1.5-1.5s1.5,0.7,1.5,1.5
					C235.7,47.2,235.1,47.8,234.3,47.8z"/>
			</g>
		</g>
	</g>
	<g id="XMLID_6_">
		<linearGradient id="XMLID_64_" gradientUnits="userSpaceOnUse" x1="64.5729" y1="32.9727" x2="64.5729" y2="105.0274">
			<stop  offset="0" style="stop-color:#A9B0FF"/>
			<stop  offset="1" style="stop-color:#2F40EC"/>
		</linearGradient>
		<path id="XMLID_28_" class="st1" d="M95.4,105c-5.6,0-10.4-3.8-11.8-9.2c-1.7-0.1-3.2-0.7-4.5-1.6c-1.5,1.1-3.3,1.7-5.2,1.7H50.9
			c-1.6,5.4-6.6,9.2-12.2,9.2c-5.6,0-10.4-3.8-11.8-9.2h-1.1c-2.4,0-4.5-0.9-6-2.6c-1.5-1.7-2.3-3.9-2.1-6.3l0.8-8h-1.1
			c-1,0-1.8-0.4-2.5-1.1c-0.7-0.7-1-1.6-1-2.5c0.1-2,1.7-3.5,3.6-3.5l33.2,0c1.5,0,2.8-1.3,2.9-2.8c0-1.3-0.9-2.5-2.2-2.7H24.7
			c-1,0-1.8-0.4-2.5-1.1s-1-1.6-1-2.5c0.1-1.9,1.7-3.5,3.6-3.5h27c1.5,0,2.8-1.3,2.8-2.8c0-1.3-0.9-2.5-2.2-2.7H13.5
			c-0.9,0-1.8-0.4-2.5-1c-0.7-0.7-1-1.6-1-2.5c0.1-1.9,1.7-3.5,3.6-3.5h28.3l0,0h11.3c1.4,0,2.6-1.1,2.6-2.5c0-0.7-0.2-1.3-0.7-1.8
			c-0.5-0.5-1.1-0.7-1.7-0.7H22.1l0.7-5.4c0.2-1.8,1.8-3.3,3.6-3.3h53c2.4,0,4.5,0.9,6,2.6c1.5,1.7,2.3,3.9,2.1,6.3l-0.5,4l15.9,0
			c1.3,0,2.5,0.7,3.1,1.9l9.7,18.8c1.9,0,3.5,1.5,3.5,3.4l0,0.4l-1.5,17.1c-0.4,4.6-4.5,8.4-9.1,8.4h-0.8
			C106.1,101.2,101.1,105,95.4,105z M79.2,91.5l0.7,0.6c1.1,1.1,2.6,1.7,4.2,1.7h1.3l0.1,0.9c0.8,4.8,5,8.3,9.9,8.3
			c4.9,0,9.3-3.5,10.4-8.4l0.2-0.8h2.4c3.6,0,6.8-2.9,7.1-6.5l1.6-17.2l0,0c0-0.8-0.7-1.4-1.4-1.4h-1.3l-10.3-19.9
			c-0.2-0.5-0.7-0.8-1.3-0.8l-18.2,0l0.8-6.3c0.2-1.7-0.4-3.4-1.5-4.7c-1.1-1.3-2.7-1.9-4.5-1.9h-53c-0.8,0-1.5,0.6-1.6,1.4
			l-0.4,3.1h29c1.2,0,2.4,0.5,3.2,1.3c0.8,0.9,1.3,2,1.3,3.3c-0.1,2.5-2.2,4.5-4.7,4.5h-8.6l0,0H13.6c-0.8,0-1.5,0.7-1.5,1.5
			c0,0.4,0.1,0.8,0.4,1c0.3,0.3,0.6,0.4,1,0.4l39.3,0c2.3,0.4,4.1,2.4,4,4.8c-0.1,2.6-2.3,4.8-4.9,4.8h-27c-0.8,0-1.6,0.7-1.6,1.5
			c0,0.4,0.1,0.8,0.4,1c0.3,0.3,0.6,0.4,1,0.4l26.8,0c2.4,0.3,4.1,2.4,4.1,4.8c-0.1,2.6-2.3,4.8-4.9,4.8l-33.2,0
			c-0.8,0-1.6,0.7-1.6,1.5c0,0.4,0.1,0.8,0.4,1c0.3,0.3,0.6,0.4,1,0.4h3.3l-1,10.2c-0.2,1.8,0.4,3.4,1.5,4.7
			c1.1,1.3,2.7,1.9,4.5,1.9h2.8l0.1,0.9c0.8,4.8,5,8.3,9.9,8.3c4.9,0,9.3-3.5,10.4-8.4l0.2-0.8H74c1.6,0,3.2-0.6,4.5-1.7L79.2,91.5z
			 M95.6,100c-2,0-3.8-0.8-5.2-2.2c-1.4-1.4-2.1-3.3-2-5.2c0.1-4,3.5-7.3,7.5-7.3c2,0,3.8,0.8,5.2,2.2s2.1,3.3,2,5.2
			C103,96.7,99.6,100,95.6,100z M95.9,87.3c-2.9,0-5.4,2.4-5.5,5.3c0,1.4,0.5,2.7,1.5,3.7c1,1,2.3,1.5,3.7,1.5
			c2.9,0,5.4-2.4,5.5-5.3c0-1.4-0.5-2.7-1.5-3.7C98.6,87.8,97.3,87.3,95.9,87.3z M38.8,100c-2,0-3.8-0.8-5.2-2.2s-2.1-3.3-2-5.2
			c0.1-4,3.5-7.3,7.5-7.3c2,0,3.8,0.8,5.2,2.2s2.1,3.3,2,5.2C46.2,96.7,42.9,100,38.8,100z M39.1,87.3c-2.9,0-5.4,2.4-5.5,5.3
			c0,1.4,0.5,2.7,1.5,3.7c1,1,2.3,1.5,3.7,1.5c2.9,0,5.4-2.4,5.5-5.3c0-1.4-0.5-2.7-1.5-3.7C41.9,87.8,40.5,87.3,39.1,87.3z
			 M108.6,90.8h-2.5l-0.2-0.8c-1-4.6-5.1-7.8-9.8-7.8c-4.8,0-9,3.2-10.3,7.8l-0.2,0.7h-1.3c-0.9,0-1.8-0.4-2.4-1
			c-0.6-0.7-0.9-1.5-0.8-2.5L84.4,51l9.4,0l-1.3,14c-0.2,1.8,0.4,3.4,1.5,4.7c1.1,1.3,2.7,1.9,4.5,1.9h15.4l-1.4,15.5
			C112.4,89.2,110.6,90.8,108.6,90.8z M107.7,88.7h0.9c0.9,0,1.8-0.8,1.9-1.8l1.2-13.3H98.5c-2.4,0-4.5-0.9-6-2.6
			c-1.5-1.7-2.3-3.9-2.1-6.3L91.5,53l-5.3,0l-3.1,34.5c0,0.4,0.1,0.7,0.3,0.9c0.2,0.2,0.4,0.3,0.6,0.3c1.8-5.1,6.6-8.6,12-8.6
			C101.5,80.2,106.1,83.7,107.7,88.7z"/>
	</g>
	<g id="XMLID_26_">
		<path id="XMLID_37_" class="st2" d="M328.8,70.3c0-3.1,0.3-6.2,0.7-9.3l-2.6-0.4c-0.5,3.2-0.8,6.4-0.8,9.7l0.8,0L328.8,70.3z"/>
		<path id="XMLID_38_" class="st2" d="M333.7,47.2l-2.4-1.1c-1.3,3-2.4,6.1-3.2,9.3l2.5,0.7C331.4,53,332.4,50,333.7,47.2z"/>
		<path id="XMLID_47_" class="st2" d="M341.1,34.8l-2.1-1.6c-2,2.6-3.8,5.3-5.4,8.2l2.3,1.3C337.5,39.9,339.2,37.2,341.1,34.8z"/>
		<path id="XMLID_48_" class="st2" d="M363.7,17l-1.1-2.4c-3,1.4-5.8,2.9-8.6,4.7l1.4,2.2C358.1,19.9,360.9,18.3,363.7,17z"/>
		<path id="XMLID_70_" class="st2" d="M377.5,12.6L377,10c-3.2,0.6-6.4,1.5-9.4,2.6l0.9,2.5C371.4,14,374.4,13.2,377.5,12.6z"/>
		<path id="XMLID_71_" class="st2" d="M349.8,22.5c-2.6,2-5,4.2-7.2,6.6l1.9,1.8c2.1-2.3,4.4-4.4,6.9-6.3L349.8,22.5z"/>
		<path id="XMLID_72_" class="st2" d="M360.1,121.7l-1.2,2.3c2.9,1.5,5.9,2.9,8.9,4l0.9-2.5C365.7,124.5,362.8,123.2,360.1,121.7z"
			/>
		<path id="XMLID_73_" class="st2" d="M329,75.5l-2.6,0.2c0.3,3.3,0.9,6.5,1.7,9.6l2.5-0.7C329.9,81.7,329.3,78.6,329,75.5z"/>
		<path id="XMLID_74_" class="st2" d="M346.5,115.3c2.4,2.2,5,4.2,7.8,6l1.4-2.2c-2.6-1.7-5.1-3.6-7.4-5.7L346.5,115.3z"/>
		<path id="XMLID_75_" class="st2" d="M329.7,90.5c1.1,3.1,2.5,6.1,4.1,8.9l2.3-1.3c-1.5-2.7-2.8-5.6-3.9-8.5L329.7,90.5z"/>
		<path id="XMLID_76_" class="st2" d="M336.5,103.9c1.8,2.7,3.9,5.3,6.1,7.6l1.9-1.8c-2.1-2.3-4.1-4.7-5.9-7.3L336.5,103.9z"/>
	</g>
	<g id="XMLID_5_">
		<path id="XMLID_25_" class="st2" d="M440.3,10c-13.8,0-25,11.2-25,25c0,13.8,11.2,25,25,25c0.9,0,1.5-0.7,1.5-1.5
			c0-0.9-0.7-1.5-1.5-1.5c-12.1,0-21.9-9.8-21.9-21.9c0-12.1,9.8-21.9,21.9-21.9s21.9,9.8,21.9,21.9c0,5-2.7,10.1-6.5,12.2
			c-1.4,0.8-2.9,1.1-4.5,1.2c1-0.6,1.8-1.4,2.4-2.3c0.1-0.2,0.3-0.3,0.4-0.5c0.5-1.2,0.5-2.6,0.8-3.9c0.4-1.6-7.1-4.8-7.8-2.8
			c-0.2,0.8-0.6,3.1-1.1,3.8c-0.4,0.6-1.5,0.3-2.1-0.3c-1.7-1.5-3.6-3.6-5.3-5.3l0,0c0,0-0.1-0.1-0.1-0.1c0,0-0.1-0.1-0.1-0.1l0,0
			c-1.7-1.7-3.8-3.6-5.3-5.3c-0.6-0.6-0.8-1.7-0.3-2.1c0.6-0.5,3-0.8,3.8-1.1c2-0.7-1.1-8.2-2.8-7.8c-1.3,0.3-2.6,0.3-3.9,0.8
			c-0.2,0.1-0.4,0.2-0.5,0.4c-4.3,2.7-4.8,9.3-0.7,14.2c1.6,1.9,3.3,3.7,5,5.5l0,0c0,0,0.1,0.1,0.1,0.1c0,0,0.1,0.1,0.1,0.1l0,0
			c1.8,1.7,3.9,4.2,7.3,6.5c7.2,4.8,12.7,3.5,16,1.7c5.6-3.1,8.1-9.7,8.1-14.9C465.3,21.2,454.1,10,440.3,10z"/>
	</g>
	<g id="XMLID_27_">
		<path id="XMLID_39_" class="st3" d="M416.7,97.2c1.9,1.9,5,1.9,7,0l5.4-5.4c-1.9,0.2-3.1-0.4-3.5-0.5l-4,4c-0.8,0.8-2.2,0.8-3,0
			c-0.8-0.8-0.8-2.2,0-3c0.2-0.2,6.4-6.4,6.2-6.2c0.8-0.8,2.2-0.8,3,0c0.1,0.1,0.1,0.1,0.2,0.2c0.3,0,0.6,0,0.8-0.2l1.4-1.4
			c-0.1-0.2-0.3-0.4-0.4-0.6c-1.9-1.9-5.1-1.9-7,0l-6.2,6.2C414.8,92.1,414.8,95.3,416.7,97.2z"/>
		<path id="XMLID_40_" class="st3" d="M437.9,76.1c-1.9-1.9-5-1.9-7,0l-5.2,5.2c1.9-0.2,3.1,0.4,3.5,0.5l3.7-3.7
			c0.8-0.8,2.2-0.8,3,0s0.8,2.2,0,3l-4.8,4.8l-1.1,1.1c-0.8,0.8-2.2,0.8-3,0c-0.1-0.1-0.1-0.1-0.2-0.2c-0.3,0-0.6,0-0.8,0.2
			l-1.4,1.4c0.1,0.2,0.3,0.4,0.4,0.6c1.9,1.9,5.1,1.9,7,0l6-6C439.8,81.1,439.8,78,437.9,76.1z"/>
	</g>
	<g id="XMLID_42_">
		<g id="XMLID_920_">
			<g id="XMLID_921_">
				<path id="XMLID_922_" class="st3" d="M80.2,229l-0.6-9.1c-0.3-4.2-3-7.7-6.9-9.1l-2-0.7l-0.6-0.2L59.3,206c0,0-0.1,0-0.1,0
					c0,0,0,0-0.1,0c0,0,0,0-0.1,0c0,0,0,0-0.1,0c0,0,0,0-0.1,0c0,0-0.1,0-0.1,0c0,0,0,0,0,0c0,0,0,0-0.1,0c-0.1,0-0.2,0-0.3,0
					c0,0,0,0,0,0c-0.3,0-0.5,0.1-0.7,0.3c0,0,0,0-0.1,0c0,0,0,0,0,0c0,0-0.1,0.1-0.1,0.1l-3.4-1l0-2.6c3.2-2.1,5.7-6,5.8-9.7h0.1
					c1.4,0,2.6-1.1,2.6-2.6v-2.4c0-0.3-0.1-0.6-0.2-0.9c0.6-0.3,1-1,1-1.7v-1.3c0-1-0.7-1.8-1.6-1.9v-0.4c0-0.1,0-0.2,0-0.3
					c0-1.2-0.2-2.3-0.6-3.4c-0.2-0.5-0.7-0.8-1.2-0.6c-0.5,0.2-0.8,0.7-0.6,1.2c0.3,0.9,0.4,1.9,0.5,2.9c0,0.1,0,0.2,0,0.3v1.3
					c0,0.5,0.4,1,1,1h0.6c0,0,0,0,0,0.1v1.3c0,0,0,0.1,0,0.1H33.8c0,0,0,0,0-0.1v-1.3c0,0,0-0.1,0-0.1h0.6c0.5,0,1-0.4,1-1v-1.3
					c0-0.1,0-0.2,0-0.3c0.1-5,3.8-9.3,8.6-10.1v3.5v0c0,0.9,0.3,1.7,0.9,2.2c0,0,0,0,0,0c0,0,0,0,0,0c0.6,0.6,1.4,0.9,2.2,0.9h0h1.1
					h0c0.9,0,1.7-0.3,2.2-0.9c0,0,0,0,0,0c0,0,0,0,0,0c0.6-0.6,0.9-1.4,0.9-2.2v0v-3.5c2.6,0.5,5,1.9,6.6,4.1
					c0.3,0.4,0.9,0.5,1.3,0.2c0.4-0.3,0.5-0.9,0.2-1.3c-2-2.8-5.1-4.6-8.4-5c-0.5-1-1.6-1.7-2.8-1.7h-1.1c-1.2,0-2.3,0.7-2.8,1.7
					c-2.8,0.3-5.4,1.6-7.4,3.7c-2.1,2.2-3.4,5.2-3.5,8.3c0,0.1,0,0.2,0,0.3v0.4c-0.9,0.2-1.6,1-1.6,1.9v1.3c0,0.8,0.4,1.4,1,1.7
					c-0.1,0.3-0.2,0.6-0.2,0.9v2.4c0,1.4,1.1,2.6,2.6,2.6h0.1c0.1,3.6,2.6,7.5,5.8,9.7l0,2.5l-3.4,1c0,0-0.1-0.1-0.1-0.1
					c0,0,0,0,0,0c0,0,0,0-0.1,0c-0.2-0.2-0.5-0.3-0.7-0.3c0,0,0,0,0,0c-0.1,0-0.2,0-0.3,0c0,0-0.1,0-0.1,0c0,0,0,0,0,0
					c0,0-0.1,0-0.1,0c0,0,0,0-0.1,0c0,0,0,0-0.1,0c0,0,0,0-0.1,0c0,0,0,0-0.1,0c0,0-0.1,0-0.1,0l-9.2,3.3l-2.2,0.8h0l-2,0.7
					c-3.9,1.4-6.6,5-6.9,9.1l-0.1,1.1c0,0.5,0.4,1,0.9,1c0.5,0,1-0.4,1-0.9l0.1-1.1c0.2-3.4,2.4-6.3,5.6-7.4l0.7-0.3v18h-5.8
					c-0.3,0-0.6-0.1-0.8-0.3c-0.2-0.2-0.3-0.5-0.3-0.8l0.3-4.2c0-0.5-0.4-1-0.9-1c-0.5,0-1,0.4-1,0.9l-0.3,4.2
					c-0.1,0.8,0.2,1.6,0.8,2.3c0.6,0.6,1.4,0.9,2.2,0.9h6.8h7.2h31h7.2h6.8c0.8,0,1.6-0.3,2.2-0.9C79.9,230.7,80.2,229.8,80.2,229z
					 M60,187.6L60,187.6c0.4,0,0.7,0.3,0.7,0.6v2.4c0,0.4-0.3,0.6-0.6,0.6H60V187.6z M45.8,171c0-0.1,0-0.2,0-0.3c0,0,0,0,0,0
					c0.1-0.5,0.6-1,1.2-1h1.1c0.6,0,1.1,0.4,1.2,1c0,0,0,0,0,0c0,0.1,0,0.2,0,0.3v4c0,0.4-0.1,0.7-0.4,0.9c0,0,0,0,0,0c0,0,0,0,0,0
					c-0.2,0.2-0.5,0.3-0.9,0.3h-1.1c-0.3,0-0.6-0.1-0.9-0.3c0,0,0,0,0,0l0,0c-0.2-0.2-0.4-0.6-0.4-0.9L45.8,171L45.8,171z
					 M35.3,191.3L35.3,191.3c-0.4,0-0.7-0.3-0.7-0.6v-2.4c0-0.4,0.3-0.6,0.6-0.6h0.1V191.3z M31.2,230.3h-5.3v-18.7l3.4-1.2l1.9-0.7
					L31.2,230.3z M37.2,192.9v-0.6v-4.6h20.9v4.6l0,0v0.6c0,3.3-2.6,7.2-5.7,8.9c0,0,0,0,0,0c-0.1,0.1-0.2,0.1-0.3,0.2
					c0,0,0,0-0.1,0c-0.2,0.1-0.4,0.2-0.7,0.3c0,0-0.1,0-0.1,0c-0.1,0-0.2,0.1-0.2,0.1c0,0-0.1,0-0.1,0c-0.1,0-0.2,0.1-0.3,0.1
					l-0.1,0c-0.2,0.1-0.4,0.1-0.7,0.2c-0.9,0.2-1.6,0.3-2.2,0.3c-0.8,0-1.7-0.2-2.9-0.5c-0.1,0-0.2-0.1-0.3-0.1c0,0-0.1,0-0.1,0
					c-0.1,0-0.2-0.1-0.3-0.1c0,0,0,0-0.1,0c-0.2-0.1-0.4-0.2-0.7-0.3c0,0,0,0,0,0C40,200.3,37.2,196.2,37.2,192.9z M41.9,207.1
					c0.7-0.2,1.2-0.8,1.2-1.6l0-1.7c0.1,0,0.1,0.1,0.2,0.1c0.1,0,0.1,0,0.2,0.1c0.1,0,0.2,0.1,0.3,0.1c0,0,0.1,0,0.1,0
					c0.1,0,0.3,0.1,0.4,0.1c0.3,0.1,0.6,0.2,0.9,0.2c0.1,0,0.2,0,0.2,0.1c0,0,0,0,0,0c0.8,0.2,1.5,0.3,2.2,0.3c0,0,0,0,0,0h0
					c0.8,0,1.5-0.1,2.4-0.3c0.3-0.1,0.6-0.1,1-0.2l0.1,0c0.1,0,0.3-0.1,0.4-0.1c0,0,0.1,0,0.1,0c0.1,0,0.2-0.1,0.3-0.1
					c0,0,0.1,0,0.1,0c0.1,0,0.2-0.1,0.3-0.1l0,1.7c0,0.7,0.5,1.4,1.2,1.6l2.6,0.8c0,0,0,0,0,0c-0.1,0.1-0.3,0.2-0.4,0.3
					c0,0,0,0-0.1,0.1c-0.1,0.1-0.3,0.2-0.4,0.3c0,0,0,0-0.1,0c-0.1,0.1-0.3,0.2-0.4,0.3c0,0,0,0-0.1,0c-0.1,0.1-0.3,0.2-0.4,0.3
					c0,0,0,0,0,0c-0.1,0.1-0.3,0.2-0.4,0.3c0,0,0,0-0.1,0c-0.1,0.1-0.3,0.2-0.4,0.2c0,0-0.1,0-0.1,0c-0.1,0.1-0.3,0.1-0.4,0.2
					c0,0-0.1,0-0.1,0c-0.1,0.1-0.3,0.1-0.4,0.2c0,0-0.1,0-0.1,0c-0.2,0.1-0.3,0.1-0.5,0.2c0,0-0.1,0-0.1,0c-0.2,0-0.3,0.1-0.5,0.1
					c0,0,0,0,0,0c-0.2,0-0.3,0.1-0.5,0.1c0,0-0.1,0-0.1,0c-0.2,0-0.3,0.1-0.5,0.1c0,0-0.1,0-0.1,0c-0.2,0-0.3,0.1-0.5,0.1
					c0,0-0.1,0-0.1,0c-0.2,0-0.3,0-0.5,0.1c0,0-0.1,0-0.1,0c-0.2,0-0.3,0-0.5,0c0,0,0,0-0.1,0c-0.2,0-0.4,0-0.5,0c0,0,0,0,0,0
					c-0.2,0-0.4,0-0.5,0c0,0,0,0-0.1,0c-0.2,0-0.3,0-0.5,0c0,0,0,0-0.1,0c-0.2,0-0.3,0-0.5-0.1c0,0,0,0-0.1,0c-0.2,0-0.3,0-0.5-0.1
					c0,0,0,0-0.1,0c-0.2,0-0.3-0.1-0.5-0.1c0,0,0,0,0,0c-0.4-0.1-0.7-0.2-1-0.3c0,0,0,0,0,0c-0.2-0.1-0.3-0.1-0.5-0.2c0,0,0,0-0.1,0
					c-0.2-0.1-0.3-0.1-0.5-0.2c0,0,0,0-0.1,0c-0.2-0.1-0.3-0.1-0.5-0.2c0,0,0,0-0.1,0c-0.2-0.1-0.3-0.2-0.5-0.2c0,0,0,0,0,0
					c-0.3-0.2-0.6-0.4-0.9-0.5c0,0,0,0,0,0c-0.1-0.1-0.3-0.2-0.4-0.3c0,0,0,0-0.1,0c-0.1-0.1-0.3-0.2-0.4-0.3c0,0,0,0-0.1-0.1
					c-0.1-0.1-0.3-0.2-0.4-0.3c0,0,0,0,0,0L41.9,207.1z M36.5,207.9l0.8,0.8c2.7,2.7,6.4,4.3,10.3,4.3c0,0,0,0,0,0h0
					c2.4,0,4.7-0.6,6.8-1.7c1.2-0.6,2.2-1.4,3.2-2.3c0,0,0,0,0,0c0.1-0.1,0.1-0.1,0.2-0.2c0,0,0.1-0.1,0.1-0.1l0,0l0.8-0.8l0.7,0.3
					l0.3,0.1l-1.2,1.2c-2.9,2.9-6.8,4.5-11,4.5s-8-1.6-11-4.5l-1.2-1.2L36.5,207.9z M62.2,230.3H33.1v-21.2l0.4-0.1l1.8,1.9
					c0,0,0,0,0,0c3.3,3.3,7.7,5.1,12.3,5.1s9-1.8,12.3-5.1c0,0,0,0,0,0l1.8-1.9l0.4,0.1V230.3z M69.4,230.3h-5.3v-20.5l1.9,0.7
					l3.4,1.2V230.3z M78,230c-0.2,0.2-0.5,0.3-0.8,0.3h-5.8v-18l0.7,0.3c3.2,1.1,5.4,4.1,5.6,7.4l0.6,9.1
					C78.3,229.4,78.2,229.7,78,230z"/>
			</g>
		</g>
		<g id="XMLID_891_">
			<path id="XMLID_906_" class="st3" d="M261.5,200.6c-0.2-0.2-0.6-0.3-0.9-0.2c-0.3,0.1-0.5,0.4-0.5,0.7v14.1
				c0,0.4,0.4,0.8,0.8,0.8h14.1c0.3,0,0.6-0.2,0.7-0.5c0.1-0.3,0.1-0.6-0.2-0.9L261.5,200.6z M261.8,214.5v-11.4l11.4,11.4H261.8z"
				/>
			<path id="XMLID_898_" class="st3" d="M301.7,172.4l-4.1-4.1c-0.3-0.3-0.8-0.3-1.1,0l-23.9,23.9c-0.1,0.1-0.1,0.2-0.2,0.3
				l-2.6,6.6l-10.6-10.6l1.9-1.9c0.3-0.3,0.3-0.8,0-1.1c-0.3-0.3-0.8-0.3-1.1,0l-1.9,1.9l-3.2-3.2v-15.9c0-0.4-0.4-0.8-0.8-0.8H245
				c-0.4,0-0.8,0.4-0.8,0.8v63.4c0,0.4,0.4,0.8,0.8,0.8h9.1c0.4,0,0.8-0.4,0.8-0.8V223h36.6l2.2,2.2c0.2,0.2,0.4,0.2,0.6,0.2
				s0.4-0.1,0.6-0.2c0.3-0.3,0.3-0.8,0-1.1l-23.8-23.8l6.6-2.6c0.1,0,0.2-0.1,0.3-0.2l23.9-23.9c0.1-0.1,0.2-0.4,0.2-0.6
				C302,172.8,301.9,172.6,301.7,172.4z M253.3,230.9h-7.5v-1.4h1.4c0.4,0,0.8-0.4,0.8-0.8c0-0.4-0.4-0.8-0.8-0.8h-1.4v-2.5h1.4
				c0.4,0,0.8-0.4,0.8-0.8c0-0.4-0.4-0.8-0.8-0.8h-1.4v-2.5h1.4c0.4,0,0.8-0.4,0.8-0.8s-0.4-0.8-0.8-0.8h-1.4v-2.5h1.4
				c0.4,0,0.8-0.4,0.8-0.8s-0.4-0.8-0.8-0.8h-1.4v-2.5h1.4c0.4,0,0.8-0.4,0.8-0.8s-0.4-0.8-0.8-0.8h-1.4V209h1.4
				c0.4,0,0.8-0.4,0.8-0.8s-0.4-0.8-0.8-0.8h-1.4v-2.5h1.4c0.4,0,0.8-0.4,0.8-0.8c0-0.4-0.4-0.8-0.8-0.8h-1.4v-2.5h1.4
				c0.4,0,0.8-0.4,0.8-0.8s-0.4-0.8-0.8-0.8h-1.4v-2.5h1.4c0.4,0,0.8-0.4,0.8-0.8c0-0.4-0.4-0.8-0.8-0.8h-1.4v-2.5h1.4
				c0.4,0,0.8-0.4,0.8-0.8s-0.4-0.8-0.8-0.8h-1.4v-2.5h1.4c0.4,0,0.8-0.4,0.8-0.8c0-0.4-0.4-0.8-0.8-0.8h-1.4v-2.5h1.4
				c0.4,0,0.8-0.4,0.8-0.8c0-0.4-0.4-0.8-0.8-0.8h-1.4v-2.5h1.4c0.4,0,0.8-0.4,0.8-0.8s-0.4-0.8-0.8-0.8h-1.4v-2.5h1.4
				c0.4,0,0.8-0.4,0.8-0.8c0-0.4-0.4-0.8-0.8-0.8h-1.4v-2.5h1.4c0.4,0,0.8-0.4,0.8-0.8c0-0.4-0.4-0.8-0.8-0.8h-1.4v-1.4h7.5
				L253.3,230.9L253.3,230.9z M254.9,221.4v-35l3.9,3.9l-2.3,2.3c-0.3,0.3-0.3,0.8,0,1.1c0.2,0.2,0.4,0.2,0.6,0.2s0.4-0.1,0.6-0.2
				l2.3-2.3l1.8,1.8l-2.3,2.3c-0.3,0.3-0.3,0.8,0,1.1c0.2,0.2,0.4,0.2,0.6,0.2s0.4-0.1,0.6-0.2l2.3-2.3l1.8,1.8l-2.3,2.3
				c-0.3,0.3-0.3,0.8,0,1.1c0.2,0.2,0.4,0.2,0.6,0.2s0.4-0.1,0.6-0.2l2.3-2.3l1.8,1.8l-2.3,2.3c-0.3,0.3-0.3,0.8,0,1.1
				c0.2,0.2,0.4,0.2,0.6,0.2s0.4-0.1,0.6-0.2l2.3-2.3l1.8,1.8l-2.3,2.3c-0.3,0.3-0.3,0.8,0,1.1c0.2,0.2,0.4,0.2,0.6,0.2
				s0.4-0.1,0.6-0.2l2.3-2.3l1.8,1.8l-2.3,2.3c-0.3,0.3-0.3,0.8,0,1.1c0.2,0.2,0.4,0.2,0.6,0.2s0.4-0.1,0.6-0.2l2.3-2.3l1.8,1.8
				l-2.3,2.3c-0.3,0.3-0.3,0.8,0,1.1c0.2,0.2,0.4,0.2,0.6,0.2s0.4-0.1,0.6-0.2l2.3-2.3l1.8,1.8l-2.3,2.3c-0.3,0.3-0.3,0.8,0,1.1
				c0.2,0.2,0.4,0.2,0.6,0.2c0.2,0,0.4-0.1,0.6-0.2l2.3-2.3l1.8,1.8l-2.3,2.3c-0.3,0.3-0.3,0.8,0,1.1c0.2,0.2,0.4,0.2,0.6,0.2
				s0.4-0.1,0.6-0.2l2.3-2.3l1.8,1.8l-2.3,2.3c-0.3,0.3-0.3,0.8,0,1.1c0.2,0.2,0.4,0.2,0.6,0.2s0.4-0.1,0.6-0.2l2.3-2.3l3.9,3.9
				L254.9,221.4L254.9,221.4z M276.3,194.8l19.8-19.8l0.9,0.9l-19.8,19.8L276.3,194.8z M275.2,193.7l-0.9-0.9L294,173l0.9,0.9
				L275.2,193.7z M273.4,194.2l2.4,2.4l-4,1.6L273.4,194.2z M298.2,174.8l-3-3l1.9-1.9l3,3L298.2,174.8z"/>
			<path id="XMLID_897_" class="st3" d="M296.7,226c-0.3-0.3-0.8-0.3-1.1,0c-0.3,0.3-0.3,0.8,0,1.1l2.5,2.5c0.2,0.2,0.4,0.2,0.6,0.2
				c0.2,0,0.4-0.1,0.6-0.2c0.3-0.3,0.3-0.8,0-1.1L296.7,226z"/>
			<path id="XMLID_896_" class="st3" d="M301.1,230.4c-0.3-0.3-0.8-0.3-1.1,0c-0.3,0.3-0.3,0.8,0,1.1l0.1,0c0.2,0.2,0.4,0.2,0.6,0.2
				c0.2,0,0.4-0.1,0.6-0.2C301.5,231.3,301.5,230.8,301.1,230.4L301.1,230.4z"/>
			<path id="XMLID_895_" class="st3" d="M275.7,171.7c0.2,0,0.4-0.1,0.6-0.2l0.1-0.1c0.3-0.3,0.3-0.8,0-1.1c-0.3-0.3-0.8-0.3-1.1,0
				l-0.1,0.1c-0.3,0.3-0.3,0.8,0,1.1C275.3,171.6,275.5,171.7,275.7,171.7z"/>
			<path id="XMLID_894_" class="st3" d="M271.3,176.1c0.2,0,0.4-0.1,0.6-0.2l2.5-2.5c0.3-0.3,0.3-0.8,0-1.1c-0.3-0.3-0.8-0.3-1.1,0
				l-2.5,2.5c-0.3,0.3-0.3,0.8,0,1.1C270.8,176,271.1,176.1,271.3,176.1z"/>
			<path id="XMLID_893_" class="st3" d="M266.9,180.5c0.2,0,0.4-0.1,0.6-0.2l2.5-2.5c0.3-0.3,0.3-0.8,0-1.1c-0.3-0.3-0.8-0.3-1.1,0
				l-2.5,2.5c-0.3,0.3-0.3,0.8,0,1.1C266.4,180.4,266.7,180.5,266.9,180.5z"/>
			<path id="XMLID_892_" class="st3" d="M262.5,184.9c0.2,0,0.4-0.1,0.6-0.2l2.5-2.5c0.3-0.3,0.3-0.8,0-1.1c-0.3-0.3-0.8-0.3-1.1,0
				l-2.5,2.5c-0.3,0.3-0.3,0.8,0,1.1C262,184.8,262.3,184.9,262.5,184.9z"/>
		</g>
		<g id="XMLID_1111_">
			<path id="XMLID_1130_" class="st3" d="M372.1,232.3h-11.6c-0.5,0-0.9-0.4-0.9-0.9V214c0-0.5,0.4-0.9,0.9-0.9h11.6
				c0.5,0,0.9,0.4,0.9,0.9v17.5C373,232,372.6,232.3,372.1,232.3z M361.4,230.6h9.8v-15.7h-9.8V230.6z"/>
			<path id="XMLID_1129_" class="st3" d="M390.6,232.3h-18.4c-0.5,0-0.9-0.4-0.9-0.9V214c0-0.5,0.4-0.9,0.9-0.9h18.4
				c0.5,0,0.9,0.4,0.9,0.9v17.5C391.4,232,391.1,232.3,390.6,232.3z M373,230.6h16.7v-15.7H373V230.6z"/>
			<path id="XMLID_1128_" class="st3" d="M372.1,214.8h-11.6c-0.3,0-0.5-0.1-0.7-0.4l-6.4-8.6c-0.2-0.3-0.2-0.6-0.1-0.9
				c0.1-0.3,0.5-0.5,0.8-0.5h11.6c0.3,0,0.5,0.1,0.7,0.4l6.4,8.6c0.2,0.3,0.2,0.6,0.1,0.9C372.8,214.7,372.5,214.8,372.1,214.8z
				 M361,213.1h9.4l-5.1-6.8H356L361,213.1z"/>
			<path id="XMLID_1127_" class="st3" d="M390.6,214.8h-18.4c-0.3,0-0.6-0.2-0.8-0.5c-0.2-0.3-0.1-0.6,0.1-0.9l6.2-8.6
				c0.2-0.2,0.4-0.4,0.7-0.4h18.4c0.3,0,0.6,0.2,0.8,0.5s0.1,0.6-0.1,0.9l-6.2,8.6C391.1,214.7,390.8,214.8,390.6,214.8z
				 M373.9,213.1h16.2l4.9-6.8h-16.2L373.9,213.1z"/>
			<path id="XMLID_1126_" class="st3" d="M372.4,185.3c-2.9,0-5.3-2.4-5.3-5.3s2.4-5.3,5.3-5.3c2.9,0,5.3,2.4,5.3,5.3
				S375.3,185.3,372.4,185.3z M372.4,176.4c-2,0-3.6,1.6-3.6,3.6c0,2,1.6,3.6,3.6,3.6c2,0,3.6-1.6,3.6-3.6
				C376,178,374.4,176.4,372.4,176.4z"/>
			<path id="XMLID_1125_" class="st3" d="M389.5,179.7c-1.6,0-3.2-0.6-4.3-1.8c-1.1-1.1-1.8-2.7-1.8-4.3c0-1.6,0.6-3.2,1.8-4.3
				c1.1-1.1,2.7-1.8,4.3-1.8c1.6,0,3.2,0.6,4.3,1.8c2.4,2.4,2.4,6.2,0,8.6C392.6,179,391.1,179.7,389.5,179.7z M389.5,169.3
				c-1.2,0-2.2,0.4-3.1,1.3c-0.8,0.8-1.3,1.9-1.3,3.1c0,1.2,0.4,2.2,1.3,3.1c0.8,0.8,1.9,1.3,3.1,1.3c1.2,0,2.2-0.4,3.1-1.3l0,0
				c1.7-1.7,1.7-4.4,0-6.1C391.7,169.7,390.6,169.3,389.5,169.3z"/>
			<path id="XMLID_1124_" class="st3" d="M412.1,202.3c-1.6,0-3.1-0.6-4.3-1.8c-1.1-1.1-1.8-2.7-1.8-4.3c0-1.6,0.6-3.2,1.8-4.3
				c2.4-2.4,6.2-2.4,8.6,0c2.4,2.4,2.4,6.2,0,8.6C415.2,201.7,413.6,202.3,412.1,202.3z M412.1,191.9c-1.1,0-2.2,0.4-3.1,1.3
				c-0.8,0.8-1.3,1.9-1.3,3.1c0,1.2,0.4,2.2,1.3,3.1c1.7,1.7,4.4,1.7,6.1,0c1.7-1.7,1.7-4.4,0-6.1
				C414.3,192.3,413.2,191.9,412.1,191.9z"/>
			<path id="XMLID_1123_" class="st3" d="M406.9,199.2c-0.2,0-0.5-0.1-0.6-0.3l-18.8-18.8c-0.3-0.3-0.3-0.9,0-1.2
				c0.3-0.3,0.9-0.3,1.2,0l18.8,18.8c0.3,0.3,0.3,0.9,0,1.2C407.3,199.1,407.1,199.2,406.9,199.2z"/>
			<path id="XMLID_1122_" class="st3" d="M415.8,193.4c-0.2,0-0.5-0.1-0.6-0.3l-11.8-11.8c-0.3-0.3-0.3-0.9,0-1.2
				c0.3-0.3,0.9-0.3,1.2,0l11.8,11.8c0.3,0.3,0.3,0.9,0,1.2C416.2,193.3,416,193.4,415.8,193.4z"/>
			<path id="XMLID_1121_" class="st3" d="M401.2,178.8c-0.2,0-0.5-0.1-0.6-0.3l-8-8c-0.3-0.3-0.3-0.9,0-1.2c0.3-0.3,0.9-0.3,1.2,0
				l8,8c0.3,0.3,0.3,0.9,0,1.2C401.7,178.8,401.4,178.8,401.2,178.8z"/>
			<path id="XMLID_1120_" class="st3" d="M417.3,232.5c-0.5,0-0.9-0.4-0.9-0.9v-35c0-0.5,0.4-0.9,0.9-0.9c0.5,0,0.9,0.4,0.9,0.9v35
				C418.2,232.1,417.8,232.5,417.3,232.5z"/>
			<path id="XMLID_1119_" class="st3" d="M406.9,232.5c-0.5,0-0.9-0.4-0.9-0.9v-35c0-0.5,0.4-0.9,0.9-0.9c0.5,0,0.9,0.4,0.9,0.9v35
				C407.8,232.1,407.4,232.5,406.9,232.5z"/>
			<path id="XMLID_1118_" class="st3" d="M417.3,232.5h-63.1c-0.5,0-0.9-0.4-0.9-0.9s0.4-0.9,0.9-0.9h63.1c0.5,0,0.9,0.4,0.9,0.9
				S417.8,232.5,417.3,232.5z"/>
			<path id="XMLID_1117_" class="st3" d="M376.2,203.5h-7.6c-0.5,0-0.9-0.4-0.9-0.9v-5c0-0.5,0.4-0.9,0.9-0.9c0.5,0,0.9,0.4,0.9,0.9
				v4.2h5.9v-4.2c0-0.5,0.4-0.9,0.9-0.9c0.5,0,0.9,0.4,0.9,0.9v5C377.1,203.1,376.7,203.5,376.2,203.5z"/>
			<path id="XMLID_1116_" class="st3" d="M370.4,176.9c-0.1,0-0.2,0-0.3-0.1c-0.2-0.1-0.4-0.3-0.5-0.5c-0.2-0.4,0-1,0.5-1.2l0.1,0
				c0.4-0.2,1,0,1.2,0.5c0.2,0.4,0,0.9-0.4,1.1c0,0-0.1,0-0.1,0.1C370.7,176.8,370.5,176.9,370.4,176.9z"/>
			<path id="XMLID_1115_" class="st3" d="M370.8,176.7c-0.3,0-0.7-0.2-0.8-0.5c-0.2-0.4,0-1,0.5-1.2l16.4-6.9c0.4-0.2,1,0,1.2,0.5
				s0,1-0.5,1.2l-16.4,6.9C371,176.7,370.9,176.7,370.8,176.7z"/>
			<path id="XMLID_1138_" class="st3" d="M373.7,185.1c-0.4,0-0.7-0.2-0.8-0.6c-0.2-0.5,0.1-1,0.6-1.1l14.4-4.7
				c0.5-0.2,1,0.1,1.1,0.6c0.2,0.5-0.1,1-0.6,1.1l-14.4,4.7C373.9,185.1,373.8,185.1,373.7,185.1z"/>
			<circle id="XMLID_1114_" class="st3" cx="389.5" cy="173.6" r="1.2"/>
			<circle id="XMLID_1113_" class="st3" cx="412.1" cy="196.2" r="1.2"/>
			<circle id="XMLID_1112_" class="st3" cx="372.4" cy="180" r="1.2"/>
			<g id="XMLID_1137_">
				<line id="XMLID_949_" class="st3" x1="372" y1="185" x2="372" y2="193"/>
				<path id="XMLID_1136_" class="st3" d="M372,192.5c-0.5,0-1-0.4-1-0.9v-7.1c0-0.5,0.5-0.9,1-0.9s1,0.4,1,0.9v7.1
					C373,192.1,372.5,192.5,372,192.5z"/>
			</g>
			<g id="XMLID_1135_">
				<line id="XMLID_820_" class="st3" x1="387" y1="225" x2="387" y2="233"/>
				<path id="XMLID_948_" class="st3" d="M387,232.3c-0.5,0-1-0.4-1-0.9v-7.1c0-0.5,0.5-0.9,1-0.9s1,0.4,1,0.9v7.1
					C388,231.9,387.5,232.3,387,232.3z"/>
			</g>
			<path id="XMLID_1132_" class="st3" d="M377,199h-9.6c-0.5,0-1.4-1-1.4-1.5V195c0-0.3,0.4-0.5,0.6-0.7l4.9-3.6
				c0.3-0.2,0.8-0.2,1.1,0l4.9,3.6c0.2,0.2,0.4,0.4,0.4,0.7v2.6C378,198,377.5,199,377,199z M368,197h8v-1.6l-4-2.9l-4,2.9V197z"/>
		</g>
		<g id="XMLID_428_">
			<path id="XMLID_848_" class="st3" d="M157.1,210.7c0.5-0.5,0.5-1.3,0-1.8c-0.5-0.5-1.3-0.5-1.8,0c-0.5,0.5-0.5,1.3,0,1.8
				C155.8,211.2,156.6,211.2,157.1,210.7z"/>
			<path id="XMLID_840_" class="st3" d="M149.4,221.6c-0.2,0-0.4-0.1-0.6-0.2c-0.3-0.3-0.3-0.8,0-1.2l1.9-1.9c1-1,2.3-1.5,3.7-1.5
				h17.6c2.2,0,4.4-1,5.9-2.6l12.3-12.9c0.6-0.6,0.8-1.3,0.8-2.1s-0.4-1.5-1-2.1c-1.2-1.1-3-1-4.1,0.2l-9.2,10.1
				c-0.3,0.3-0.8,0.4-1.2,0.1c-0.3-0.3-0.4-0.8-0.1-1.2l9.2-10.1c1.7-1.9,4.6-2,6.4-0.3c0.9,0.8,1.5,2,1.5,3.2
				c0,1.2-0.4,2.4-1.3,3.3l-12.3,13c-1.8,1.9-4.4,3.1-7.1,3.1h-17.6c-1,0-1.9,0.3-2.6,1l-1.9,1.9
				C149.9,221.6,149.7,221.6,149.4,221.6z"/>
			<path id="XMLID_837_" class="st3" d="M172.2,211.2h-12.8c-0.5,0-0.8-0.4-0.8-0.8s0.4-0.8,0.8-0.8h12.8c1.7,0,3.1-1.4,3.1-3.1
				c-0.1-1.7-1.4-3-3.1-3h-14.7c0,0,0,0-0.1,0l-0.5,0c-0.1,0-0.2,0-0.3-0.1c-1.9-0.9-3.9-1.4-6-1.4c-5.4,0-10.1,3-11.9,7.7
				c-0.2,0.4-0.6,0.6-1.1,0.5c-0.4-0.2-0.6-0.6-0.5-1.1c2.1-5.3,7.3-8.7,13.4-8.7c2.3,0,4.5,0.5,6.6,1.5l0.3,0h14.7
				c2.5,0,4.6,2,4.8,4.4c0,0,0,0.1,0,0.1v0.2c0,0,0,0.1,0,0.1C176.8,209.2,174.7,211.2,172.2,211.2z"/>
			<path id="XMLID_638_" class="st3" d="M143.3,230.9c-0.2,0-0.4-0.1-0.6-0.2L128.1,216c-0.3-0.3-0.3-0.8,0-1.2l7.2-7.2
				c0.6-0.6,1.6-0.6,2.2,0l13.6,13.6c0.6,0.6,0.6,1.6,0,2.2l-7.2,7.2C143.8,230.9,143.5,230.9,143.3,230.9z M129.8,215.5l13.5,13.5
				l6.5-6.5l-13.5-13.5L129.8,215.5z"/>
			<path id="XMLID_849_" class="st3" d="M167.7,196.3c-7.5,0-13.6-6.1-13.6-13.6s6.1-13.6,13.6-13.6c7.5,0,13.6,6.1,13.6,13.6
				S175.2,196.3,167.7,196.3z M167.7,170.7c-6.6,0-12,5.4-12,12s5.4,12,12,12c6.6,0,12-5.4,12-12S174.3,170.7,167.7,170.7z"/>
			<path id="XMLID_432_" class="st3" d="M168.4,174.5H164c-0.5,0-1.1,0.3-1.1,0.9v10.4h-1.1c-0.5,0-0.9,0.4-0.9,0.9s0.4,0.9,0.9,0.9
				h1.1v1.5c0,0.5,0.4,0.9,0.9,0.9s0.9-0.4,0.9-0.9v-1.5h2c0.5,0,0.9-0.4,0.9-0.9s-0.4-0.9-0.9-0.9h-2v-1.2h3.6c3.6,0,6.6-1.1,6.6-5
				C175,175.6,172,174.5,168.4,174.5z M168.5,182.9h-3.7v-6.6h3.7c2.6,0,4.6,0.6,4.6,3.3C173.1,182.2,171,182.9,168.5,182.9z"/>
		</g>
	</g>
	<g id="XMLID_1158_">
		<polygon id="XMLID_1161_" class="st4" points="622.3,8.1 584.6,147 493.3,147 		"/>
		<polygon id="XMLID_1162_" class="st5" points="584,238.7 621.6,8.7 584,147.6 		"/>
	</g>
</g>
<g id="XMLID_407_">
	<g id="XMLID_360_">
		<g id="XMLID_373_">
			<line id="XMLID_375_" class="st6" x1="14" y1="353" x2="14" y2="341"/>
			<polyline id="XMLID_374_" class="st7" points="17.5,348.1 14,353.8 10.5,348.1 			"/>
		</g>
		<path id="XMLID_372_" class="st8" d="M18.3,334.3v-16.4c0-1.1,0.9-2,2-2h39.5c7,0,12.6-5.6,12.6-12.6l0,0
			c0-6.9-5.7-12.6-12.6-12.6H22.6c-2.4,0-4.4-1.9-4.4-4.3v-0.1c0-2.4,2-4.3,4.4-4.3h57.1c1.1,0,2,0.9,2,2v50.3"/>
		<path id="XMLID_371_" class="st8" d="M90,334.3v-52.5c0-4.4-3.6-8-8-8H22.7c-7,0-12.7,5.6-12.7,12.6v0c0,7,5.7,12.6,12.7,12.6
			h37.1c2.4,0,4.4,1.9,4.4,4.3l0,0c0,2.4-2,4.3-4.4,4.3H18c-4.4,0-8,3.6-8,8v18.6"/>
		<g id="XMLID_365_">
			<line id="XMLID_370_" class="st9" x1="84.5" y1="341.8" x2="84.5" y2="353.8"/>
			<polyline id="XMLID_369_" class="st10" points="81,346.7 84.5,341 88,346.7 			"/>
		</g>
		<g id="XMLID_361_">
			<path id="XMLID_364_" class="st7" d="M48,343.8c0.1-1.7-0.6-3.9-1.7-6.3c-0.2-0.5-0.4-1-0.7-1.4c-0.3-0.6-0.6-1.1-0.9-1.7
				c0,0,0,0,0,0c0,2.4-1.5,3.8-1.5,3.8c1.5-4.9-4.8-14.2-4.8-14.2c1.3,7.3-7.9,10.4-9.7,17.5c-0.2,0.8-0.3,2.4-0.3,2.5
				c0,5.4,4.4,9.7,9.8,9.7s9.8-4.4,9.8-9.7C48.1,344,48,343.9,48,343.8z"/>
			<path id="XMLID_363_" class="st7" d="M42.5,349.6C42.5,349.6,42.5,349.6,42.5,349.6C42.5,349.6,42.5,349.6,42.5,349.6
				c0-0.1,0-0.1,0-0.1c0-0.5-0.1-1-0.3-1.5c-1-2.9-3.9-6.8-3.9-6.8s-2.9,3.9-3.9,6.8c-0.2,0.5-0.3,1-0.3,1.5c0,0,0,0,0,0.1
				c0,0,0,0,0,0c0,0,0,0,0,0c0,0,0,0,0,0.1c0.1,2.3,1.9,4.1,4.2,4.1C40.5,353.8,42.4,352,42.5,349.6
				C42.5,349.7,42.5,349.7,42.5,349.6z"/>
		</g>
	</g>
	<g id="XMLID_327_">
		<path id="XMLID_359_" class="st10" d="M529.1,347"/>
		<g id="XMLID_356_">
			<line id="XMLID_358_" class="st11" x1="591" y1="289" x2="582" y2="289"/>
			<path id="XMLID_357_" class="st11" d="M594.5,311.8l-3.6-27.4c-0.1-1.2-0.9-2.2-2-2.2h-4.1c-1,0-1.9,0.9-2,2.2l-3.6,27.4"/>
		</g>
		<line id="XMLID_355_" class="st8" x1="587" y1="278" x2="597" y2="278"/>
		<line id="XMLID_354_" class="st8" x1="594" y1="274" x2="608" y2="274"/>
		<path id="XMLID_353_" class="st9" d="M556.8,310.7l-0.8-6c-0.2-1.2-1.9-2.2-4-2.2h-8.2c-2.1,0-3.8,0.9-4,2.2l-0.7,4.9l-0.1,1"/>
		<path id="XMLID_352_" class="st10" d="M606.1,347"/>
		<path id="XMLID_351_" class="st11" d="M605.4,353.7h-76c-0.6,0-1-0.4-1-1v-39.8c0-0.6,0.4-1,1-1h76c0.6,0,1,0.4,1,1v39.8
			C606.4,353.2,605.9,353.7,605.4,353.7z"/>
		<g id="XMLID_340_">
			<g id="XMLID_346_">
				<polyline id="XMLID_411_" class="st12" points="599.2,344.5 599.2,346 597.7,346 				"/>
				<line id="XMLID_410_" class="st13" x1="594.7" y1="346" x2="577.8" y2="346"/>
				<polyline id="XMLID_409_" class="st12" points="576.2,346 574.7,346 574.7,344.5 				"/>
				<line id="XMLID_408_" class="st14" x1="574.7" y1="341.1" x2="574.7" y2="322.8"/>
				<polyline id="XMLID_350_" class="st12" points="574.7,321.1 574.7,319.6 576.2,319.6 				"/>
				<line id="XMLID_349_" class="st13" x1="579.3" y1="319.6" x2="596.2" y2="319.6"/>
				<polyline id="XMLID_348_" class="st12" points="597.7,319.6 599.2,319.6 599.2,321.1 				"/>
				<line id="XMLID_347_" class="st14" x1="599.2" y1="324.4" x2="599.2" y2="342.8"/>
			</g>
		</g>
		<g id="XMLID_329_">
			<g id="XMLID_413_">
				<polyline id="XMLID_421_" class="st12" points="560.2,344.5 560.2,346 558.7,346 				"/>
				<line id="XMLID_420_" class="st13" x1="555.7" y1="346" x2="538.8" y2="346"/>
				<polyline id="XMLID_419_" class="st12" points="537.2,346 535.7,346 535.7,344.5 				"/>
				<line id="XMLID_418_" class="st14" x1="535.7" y1="341.1" x2="535.7" y2="322.8"/>
				<polyline id="XMLID_417_" class="st12" points="535.7,321.1 535.7,319.6 537.2,319.6 				"/>
				<line id="XMLID_416_" class="st13" x1="540.3" y1="319.6" x2="557.2" y2="319.6"/>
				<polyline id="XMLID_415_" class="st12" points="558.7,319.6 560.2,319.6 560.2,321.1 				"/>
				<line id="XMLID_414_" class="st14" x1="560.2" y1="324.4" x2="560.2" y2="342.8"/>
			</g>
		</g>
		<line id="XMLID_328_" class="st11" x1="567.4" y1="311.9" x2="567.4" y2="353.7"/>
	</g>
	<g id="XMLID_304_">
		<line id="XMLID_326_" class="st15" x1="462.9" y1="343.7" x2="478.5" y2="352.7"/>
		<line id="XMLID_325_" class="st15" x1="443.4" y1="332.4" x2="454.3" y2="338.7"/>
		<path id="XMLID_324_" class="st15" d="M455.7,325v12c0,1-0.8,1.8-1.8,1.8h-10.2"/>
		<line id="XMLID_323_" class="st15" x1="455.7" y1="301.1" x2="455.7" y2="308.7"/>
		<line id="XMLID_322_" class="st15" x1="463.9" y1="308.9" x2="463.9" y2="301.1"/>
		<path id="XMLID_321_" class="st15" d="M443.7,347h11.9h1.3c3.9,0,7-3.1,7-7v-1.5v-13.7"/>
		<circle id="XMLID_320_" class="st9" cx="459.6" cy="316.8" r="9"/>
		<path id="XMLID_319_" class="st9" d="M452.8,322.8c1.6-2,4.1-3.2,6.8-3.3c2.8,0,5.2,1.2,6.9,3.1"/>
		<line id="XMLID_318_" class="st9" x1="455.4" y1="313.3" x2="459" y2="316.9"/>
		<path id="XMLID_317_" class="st9" d="M463.3,300.5h-7.3c-1.1,0-2-0.9-2-2v-13.2h11.3v13.2C465.3,299.6,464.4,300.5,463.3,300.5z"
			/>
		<path id="XMLID_316_" class="st9" d="M466.2,285.1H453c-1.2,0-2.2-1-2.2-2.2v-0.1c0-1.2,1-2.2,2.2-2.2h13.1c1.2,0,2.2,1,2.2,2.2
			v0.1C468.4,284.1,467.4,285.1,466.2,285.1z"/>
		<path id="XMLID_315_" class="st15" d="M431.3,294.9v36.3c0,1-0.8,1.8-1.8,1.8h-21.4"/>
		<path id="XMLID_314_" class="st15" d="M408.1,340.8h22.6h1.9c3.9,0,7-3.1,7-7v-1.6v-37.4"/>
		<path id="XMLID_313_" class="st6" d="M439.2,294.3h-7.3c-1.1,0-2-0.9-2-2v-13.2h11.3v13.2C441.2,293.4,440.3,294.3,439.2,294.3z"
			/>
		<path id="XMLID_312_" class="st6" d="M442.1,278.8H429c-1.2,0-2.2-1-2.2-2.2v-0.1c0-1.2,1-2.2,2.2-2.2h13.1c1.2,0,2.2,1,2.2,2.2
			v0.1C444.3,277.9,443.3,278.8,442.1,278.8z"/>
		<path id="XMLID_311_" class="st6" d="M417.4,305.2v1.1c0,2.7,2.2,4.9,4.9,4.9h17.4"/>
		<circle id="XMLID_310_" class="st6" cx="417.8" cy="297.9" r="6.9"/>
		<line id="XMLID_309_" class="st6" x1="415.2" y1="295.4" x2="417.4" y2="297.6"/>
		<polyline id="XMLID_308_" class="st15" points="479,274 479,354 399,354 		"/>
		<path id="XMLID_307_" class="st16" d="M459.9,311.2c-0.1,0.5-0.4,1-0.9,1c-0.4,0.1-0.9-0.3-1.1-0.8c-0.2-0.5,0.2-1.1,0.9-1.2
			C459.5,310.2,460,310.7,459.9,311.2z"/>
		<path id="XMLID_306_" class="st16" d="M463.7,313c-0.4,0.4-1,0.4-1.3,0.1c-0.3-0.3-0.5-0.8-0.3-1.3c0.2-0.5,0.9-0.7,1.4-0.3
			C464,311.9,464.1,312.6,463.7,313z"/>
		<path id="XMLID_305_" class="st16" d="M465.2,316.8c-0.6,0-1-0.4-1.1-0.8c-0.1-0.4,0.2-0.9,0.7-1.1c0.5-0.2,1.1,0.1,1.3,0.8
			C466.2,316.2,465.8,316.8,465.2,316.8z"/>
	</g>
	<g id="XMLID_281_">
		<path id="XMLID_303_" class="st15" d="M313.3,342.4v2c0,1,0.8,1.7,1.7,1.7h11.2"/>
		<path id="XMLID_302_" class="st15" d="M326.2,353.8h-12.3h-1.9c-3.8,0-6.8-3.1-6.8-6.8v-1.5v-3"/>
		<path id="XMLID_301_" class="st15" d="M341,302.6v41.7c0,1-0.8,1.7-1.7,1.7H320"/>
		<path id="XMLID_300_" class="st15" d="M320,353.8h20.4h1.9c3.8,0,6.8-3.1,6.8-6.8v-1.5v-42.8"/>
		<path id="XMLID_299_" class="st8" d="M319.5,299.9v-1.3c0-1.1-0.9-2-2-2h-17.7c-1.1,0-2,0.9-2,2v1.3c0,1.1,0.9,2,2,2h17.7
			C318.6,301.9,319.5,301,319.5,299.9z"/>
		<g id="XMLID_296_">
			<path id="XMLID_298_" class="st8" d="M300.6,302.4v6.1h-3.2c-1.2,0-2.2,1-2.2,2.2v4.5c0,0.6-0.4,1.1-0.9,1.3l-2.2,1.2"/>
			<path id="XMLID_297_" class="st8" d="M292.9,324l2.3,1.2c0.5,0.2,0.9,0.7,0.9,1.3v4.3c0,1.1,0.9,2.1,2.1,2.1h3.1v7.8
				c0,0.6,0.5,1,1,1H315c0.6,0,1-0.5,1-1V331c3.1-2.1,5.2-5.6,5.2-9.6c0-4-2.1-7.5-5.2-9.6v-9.7"/>
		</g>
		<path id="XMLID_295_" class="st6" d="M310.4,284.4c0.7-0.7,0.7-1.9,0-2.6c1.1-1.1,1.1-2.8,0-3.8c-1.1-1.1-2.8-1.1-3.8,0"/>
		<line id="XMLID_294_" class="st6" x1="308" y1="293.3" x2="308" y2="286.3"/>
		<path id="XMLID_293_" class="st6" d="M303.9,293.3l-2.7-7.3c-2.5,0-4.5-2.1-4.5-4.5c0-2.5,2-4.5,4.6-4.5c0-1.7,1.4-3.1,3.1-3.1"/>
		<path id="XMLID_292_" class="st6" d="M312.1,293.3l2.7-7.3c2.5,0,4.5-2.1,4.5-4.5c0-2.5-2-4.5-4.6-4.5c0-1.7-1.4-3.1-3.1-3.1"/>
		<path id="XMLID_291_" class="st9" d="M292.7,321.9c0,6.1-4.6,11.1-10.6,11.7c-0.4,0-0.8,0.1-1.2,0.1c-6.5,0-11.8-5.3-11.8-11.8
			c0-6.5,5.3-11.8,11.8-11.8S292.7,315.4,292.7,321.9z"/>
		<g id="XMLID_284_">
			
				<ellipse id="XMLID_290_" transform="matrix(4.162421e-002 -0.9991 0.9991 4.162421e-002 -57.7983 579.1385)" class="st16" cx="273" cy="319.7" rx="0.9" ry="1"/>
			
				<ellipse id="XMLID_289_" transform="matrix(0.5384 -0.8427 0.8427 0.5384 -139.4863 377.7395)" class="st16" cx="275.1" cy="316.2" rx="0.9" ry="1"/>
			
				<ellipse id="XMLID_288_" transform="matrix(0.8869 -0.462 0.462 0.8869 -113.5564 164.2782)" class="st16" cx="278.7" cy="314" rx="0.9" ry="1"/>
			
				<ellipse id="XMLID_287_" transform="matrix(0.9991 4.281323e-002 -4.281323e-002 0.9991 13.703 -11.8261)" class="st16" cx="282.9" cy="314" rx="1" ry="1"/>
			
				<ellipse id="XMLID_286_" transform="matrix(0.8432 0.5376 -0.5376 0.8432 214.8922 -104.5373)" class="st16" cx="286.6" cy="316.1" rx="0.9" ry="1"/>
			
				<ellipse id="XMLID_285_" transform="matrix(0.4626 0.8866 -0.8866 0.4626 438.6781 -84.2022)" class="st16" cx="288.8" cy="319.7" rx="0.9" ry="1"/>
		</g>
		<line id="XMLID_283_" class="st9" x1="280.9" y1="323.6" x2="284.7" y2="319.2"/>
		<path id="XMLID_282_" class="st9" d="M303.9,324.1c1.1,2.2,3.3,3.8,6,3.8c3.7,0,6.6-3,6.6-6.6c0-3.6-3-6.6-6.6-6.6
			c-2.6,0-4.9,1.6-6,3.8"/>
	</g>
	<g id="XMLID_58_">
		<g id="XMLID_278_">
			<line id="XMLID_280_" class="st6" x1="143.6" y1="353" x2="143.6" y2="341"/>
			<polyline id="XMLID_279_" class="st7" points="147.1,348.1 143.6,353.8 140.1,348.1 			"/>
		</g>
		<g id="XMLID_275_">
			<path id="XMLID_277_" class="st7" d="M171.2,347.1c0-1.1-0.4-2.6-1.1-4.2c-0.1-0.3-0.3-0.6-0.4-1c-0.2-0.4-0.4-0.8-0.6-1.1
				c0,0,0,0,0,0c0,1.6-1,2.5-1,2.5c1-3.3-3.2-9.5-3.2-9.5c0.9,4.9-5.3,7-6.5,11.8c-0.1,0.6-0.2,1.6-0.2,1.7c0,3.6,2.9,6.5,6.6,6.5
				s6.6-2.9,6.6-6.5C171.2,347.2,171.2,347.1,171.2,347.1z"/>
			<path id="XMLID_276_" class="st7" d="M167.4,351C167.4,351,167.4,351,167.4,351C167.4,351,167.4,351,167.4,351
				C167.4,350.9,167.4,350.9,167.4,351c0-0.4-0.1-0.8-0.2-1.1c-0.7-1.9-2.6-4.6-2.6-4.6s-1.9,2.6-2.6,4.6c-0.1,0.3-0.2,0.6-0.2,1
				c0,0,0,0,0,0c0,0,0,0,0,0c0,0,0,0,0,0c0,0,0,0,0,0c0,1.5,1.3,2.7,2.8,2.7C166.2,353.8,167.4,352.6,167.4,351
				C167.4,351,167.4,351,167.4,351z"/>
		</g>
		<g id="XMLID_272_">
			<line id="XMLID_274_" class="st9" x1="215.1" y1="341.8" x2="215.1" y2="353.8"/>
			<polyline id="XMLID_273_" class="st10" points="211.6,346.7 215.1,341 218.6,346.7 			"/>
		</g>
		<line id="XMLID_271_" class="st17" x1="182.6" y1="353.8" x2="182.6" y2="327.9"/>
		<line id="XMLID_270_" class="st10" x1="200.6" y1="273.8" x2="200.6" y2="326.4"/>
		<line id="XMLID_269_" class="st10" x1="205" y1="273.8" x2="205" y2="326.4"/>
		<line id="XMLID_268_" class="st10" x1="196.3" y1="273.8" x2="196.3" y2="326.4"/>
		<g id="XMLID_206_">
			<path id="XMLID_267_" class="st18" d="M202.8,340.4C202.8,340.4,202.8,340.4,202.8,340.4c0-0.3,0-0.6-0.1-0.9
				c-0.4-2.2-2.2-5.4-2.2-5.4s-1.7,3.2-2.2,5.4c-0.1,0.3-0.1,0.5-0.1,0.8c0,0,0,0,0,0c0,0.1,0,0.2,0,0.4c0.2,1.4,1.1,2.4,2.2,2.4
				c1.1,0,2.1-1,2.2-2.4C202.8,340.6,202.8,340.5,202.8,340.4z"/>
			<g id="XMLID_264_">
				<path id="XMLID_266_" class="st18" d="M199.1,351C199.1,351,199.1,351,199.1,351c0-0.3,0-0.6-0.1-0.9c-0.4-2.2-2.2-5.4-2.2-5.4
					s-1.7,3.2-2.2,5.4c-0.1,0.3-0.1,0.5-0.1,0.8c0,0,0,0,0,0c0,0.1,0,0.2,0,0.4c0.2,1.4,1.1,2.4,2.2,2.4c1.1,0,2.1-1,2.2-2.4
					C199.1,351.3,199.1,351.2,199.1,351z"/>
				<path id="XMLID_265_" class="st18" d="M206.6,351C206.6,351,206.6,351,206.6,351c0-0.3,0-0.6-0.1-0.9c-0.4-2.2-2.2-5.4-2.2-5.4
					s-1.7,3.2-2.2,5.4c-0.1,0.3-0.1,0.5-0.1,0.8c0,0,0,0,0,0c0,0.1,0,0.2,0,0.4c0.2,1.4,1.1,2.4,2.2,2.4s2.1-1,2.2-2.4
					C206.6,351.3,206.6,351.2,206.6,351z"/>
			</g>
		</g>
		<path id="XMLID_205_" class="st8" d="M219.6,334.3v-48.5c0-4.4-3.6-8-8-8h-0.2"/>
		<path id="XMLID_204_" class="st8" d="M190.1,277.8h-37.9c-7,0-12.7,5.6-12.7,12.6c0,7,5.7,12.6,12.7,12.6h25.1
			c2.4,0,4.4,1.9,4.4,4.3s-2,4.3-4.4,4.3h-29.8c-4.4,0-8,3.6-8,8v14.6"/>
		<path id="XMLID_203_" class="st8" d="M211.3,334.3V288"/>
		<path id="XMLID_159_" class="st8" d="M190.1,286h-37.9c-2.4,0-4.4,1.9-4.4,4.3v0.1c0,2.4,2,4.3,4.4,4.3h25.2
			c7,0,12.6,5.6,12.6,12.6s-5.7,12.6-12.6,12.6h-27.5c-1.1,0-2,0.9-2,2v12.4"/>
	</g>
</g>
<g id="XMLID_438_">
	<path id="XMLID_447_" class="st19" d="M337.5,753.5"/>
</g>
<path id="XMLID_437_" class="st20" d="M803.6,32.6l-0.7,0.3c0,0,0.1-0.1,0.1-0.1s-0.1,0.1-0.2,0.2l-2.8,1.4
	c-0.4,0.2-0.8,0.4-1.2,0.6c-0.4,0.2-0.8,0.4-1.3,0.6c-0.4,0.2-0.9,0.4-1.3,0.5c-0.4,0.2-0.9,0.3-1.3,0.4c-1.8,0.5-3.7,0.9-5.5,1.1
	c-1.9,0.2-3.8,0.3-5.7,0.3c-1,0-1.9,0-2.9-0.1l-1.4-0.1c-0.5,0-1-0.1-1.4-0.1c0.5,0.1,0.9,0.2,1.4,0.2l1.4,0.2
	c1,0.1,1.9,0.2,2.9,0.3c1.9,0.1,3.9,0.2,5.8,0.1c2.4-0.1,4.9-0.5,7.3-1.2c-1.3,1-2.7,1.9-4.1,2.8c-2.6,1.5-5.4,2.9-8.2,4
	c-2.8,1.2-5.8,2.1-8.7,3c-2.9,0.9-5.9,1.6-8.9,2.3c-3,0.6-6,1.1-9.1,1.6c-3,0.4-6.1,0.8-9.2,1.1c-3.1,0.3-6.1,0.4-9.2,0.5
	c-3.1,0.1-6.2,0.1-9.2,0c-3.1-0.1-6.2-0.2-9.2-0.5c-3.1-0.2-6.1-0.5-9.2-1c-3.1-0.4-6.1-0.9-9.1-1.5c-3-0.6-6-1.3-9-2.2
	c-5.9-1.7-11.7-3.8-17.1-6.8c-2.7-1.5-5.2-3.3-7.4-5.4c-2.2-2.1-4-4.7-4.8-7.8c0.5,3.1,2.2,5.9,4.3,8.3c2.1,2.4,4.6,4.3,7.3,6
	c2.6,1.7,5.5,3.2,8.3,4.5c2.9,1.3,5.8,2.4,8.8,3.4c3,1,6,1.8,9.1,2.5c3.1,0.7,6.1,1.3,9.2,1.8c3.1,0.5,6.2,0.9,9.3,1.2
	c3.1,0.3,6.3,0.5,9.4,0.6c3.2,0.1,6.3,0.1,9.4,0c3.1-0.1,6.3-0.3,9.4-0.6c3.1-0.3,6.2-0.7,9.4-1.1c3.1-0.5,6.2-1.1,9.3-1.8
	c6.1-1.4,12.2-3.3,17.9-5.9c2.9-1.3,5.7-2.8,8.4-4.5c1.3-0.9,2.6-1.8,3.8-2.8c-0.1,0.2-0.2,0.3-0.3,0.5c-0.4,0.6-0.6,1.2-1,1.8
	c-0.3,0.6-0.5,1.3-0.8,1.9c-0.1,0.3-0.2,0.7-0.3,1c-0.1,0.3-0.2,0.6-0.2,1c-0.1,0.7-0.3,1.3-0.3,1.9c0,0.6-0.1,1.2-0.1,1.7
	c0,0.5,0.1,1,0.1,1.4c0.1,0.4,0.2,0.8,0.3,1.1c0.2,0.6,0.3,0.9,0.3,0.9s0-0.4,0-0.9c0-0.3,0-0.7,0-1.1c0.1-0.4,0.1-0.9,0.2-1.4
	c0-0.5,0.2-1,0.3-1.6c0-0.3,0.1-0.6,0.2-0.8c0.1-0.3,0.2-0.6,0.2-0.9c0.1-0.6,0.4-1.2,0.6-1.8c0.2-0.6,0.5-1.2,0.8-1.8
	c0.3-0.6,0.6-1.2,0.9-1.8c0.3-0.6,0.6-1.1,0.9-1.7c0.3-0.5,0.6-1.1,0.9-1.5c0.3-0.5,0.6-0.9,0.9-1.4c0.2-0.3,0.4-0.6,0.6-0.9
	L803.6,32.6z"/>
</svg>
