<?xml version="1.0" encoding="utf-8"?>
<!-- Generator: Adobe Illustrator 19.0.0, SVG Export Plug-In . SVG Version: 6.00 Build 0)  -->
<svg version="1.1" id="Layer_1" xmlns="http://www.w3.org/2000/svg" xmlns:xlink="http://www.w3.org/1999/xlink" x="0px" y="0px"
	 width="1000px" height="1000px" viewBox="0 0 1000 1000" enable-background="new 0 0 1000 1000" xml:space="preserve">
<g id="XMLID_1_">
	<g id="XMLID_2_">
		<g id="XMLID_3_">
			<g id="XMLID_178_">
				<linearGradient id="XMLID_60_" gradientUnits="userSpaceOnUse" x1="211.6666" y1="22" x2="211.6666" y2="116">
					<stop  offset="0" style="stop-color:#A9B0FF"/>
					<stop  offset="1" style="stop-color:#2F40EC"/>
				</linearGradient>
				<path id="XMLID_179_" fill="url(#XMLID_60_)" d="M256.741,23.926c-1.242-1.242-2.896-1.926-4.657-1.926
					c-1.761,0-3.415,0.684-4.657,1.926l-6.324,6.323l1.451,0.78c1.717,0.923,3.027,1.864,4.123,2.96
					c1.096,1.095,2.036,2.404,2.959,4.122l0.78,1.452l6.323-6.324c1.242-1.242,1.926-2.896,1.926-4.657
					S257.982,25.168,256.741,23.926z M255.007,31.507l-4.029,4.03c-0.793-1.276-1.627-2.339-2.568-3.28
					c-0.941-0.941-2.005-1.776-3.28-2.569l4.029-4.028c0.779-0.779,1.818-1.208,2.924-1.208c1.106,0,2.145,0.429,2.924,1.208h0
					c0.779,0.778,1.208,1.817,1.208,2.924C256.216,29.689,255.786,30.727,255.007,31.507z M182.235,52.942l2.229,2.229
					c-4.548,2.52-7.31,7.41-7.004,12.68c0.068,1.168,0.672,2.226,1.658,2.902c1.011,0.692,2.304,0.883,3.464,0.511l13.595-4.378
					l6.039,6.039l-1.029,1.029c-0.739,0.738-1.145,1.718-1.145,2.762s0.406,2.024,1.145,2.762c1.523,1.523,4,1.521,5.524,0
					l1.029-1.029l6.039,6.039l-4.376,13.59c-0.374,1.161-0.181,2.458,0.516,3.471c0.679,0.987,1.739,1.589,2.909,1.652
					c0.252,0.014,0.501,0.021,0.751,0.021c4.974,0,9.519-2.708,11.914-7.021l2.23,2.231c1.523,1.523,4.001,1.521,5.524,0
					c0.738-0.739,1.145-1.719,1.145-2.763c0-1.043-0.407-2.024-1.145-2.762l-4.916-4.916l7.433-24.073l-1.646-0.015
					c-3.876-0.035-7.583-1.375-10.718-3.875l-1.387-1.106l-5.542,17.21l-3.207-3.208l1.029-1.029
					c0.739-0.738,1.145-1.719,1.145-2.762c0-1.043-0.407-2.024-1.145-2.761c-1.475-1.477-4.049-1.476-5.523-0.001l-1.029,1.029
					l-3.207-3.208l17.209-5.543l-1.105-1.386c-2.498-3.134-3.837-6.838-3.874-10.713l-0.015-1.644l-24.073,7.427l-4.917-4.917
					c-1.476-1.477-4.049-1.475-5.524,0C180.712,48.941,180.712,51.419,182.235,52.942z M183.968,49.151
					c0.551-0.55,1.506-0.551,2.057,0.001l5.961,5.961l22.412-6.915c0.31,3.24,1.447,6.412,3.293,9.183l-17.727,5.708l7.776,7.776
					l2.762-2.762c0.551-0.55,1.505-0.551,2.057,0.001c0.275,0.275,0.427,0.64,0.427,1.029c0,0.388-0.152,0.753-0.427,1.029
					l-2.761,2.762l7.776,7.776l5.709-17.728c2.773,1.849,5.947,2.986,9.189,3.295l-6.919,22.411l5.961,5.961
					c0.275,0.275,0.427,0.64,0.427,1.029c0,0.388-0.152,0.754-0.427,1.029c-0.568,0.568-1.492,0.568-2.057,0l-4.78-4.781
					l-0.686,1.738c-1.777,4.51-6.215,7.35-11.029,7.099c-0.555-0.031-0.88-0.385-1.023-0.595c-0.269-0.391-0.344-0.889-0.202-1.331
					l4.835-15.015l-8.831-8.831l-2.761,2.762c-0.568,0.567-1.491,0.568-2.058,0c-0.275-0.275-0.427-0.64-0.427-1.029
					c0-0.388,0.152-0.754,0.427-1.029l2.761-2.763l-8.831-8.831l-15.02,4.837c-0.439,0.143-0.937,0.069-1.328-0.2
					c-0.209-0.144-0.564-0.467-0.597-1.024c-0.279-4.818,2.575-9.251,7.103-11.032l1.74-0.685l-4.782-4.781
					C183.401,50.642,183.401,49.719,183.968,49.151z M238.349,99.136c-1.046-0.138-2.083,0.148-2.915,0.797
					c-13.195,10.268-31.265,10.904-45.243,1.682c0.763-3.14-0.129-6.405-2.433-8.708c-2.266-2.264-5.598-3.17-8.706-2.429
					c-9.224-13.977-8.587-32.05,1.68-45.243c1.314-1.683,1.011-4.14-0.684-5.483c-1.699-1.322-4.157-1.016-5.48,0.685
					c-12.57,16.148-13.216,38.161-1.687,55.016c-1.701,3.525-1.021,7.765,1.773,10.56c2.793,2.793,7.033,3.472,10.558,1.773
					c8.021,5.485,17.207,8.214,26.376,8.214c10.1-0.001,20.178-3.313,28.642-9.902c1.696-1.322,2.005-3.775,0.689-5.474
					C240.293,99.799,239.38,99.271,238.349,99.136z M238.725,104.164c-15.49,12.056-36.677,12.535-52.721,1.186l-0.648-0.459
					l-0.684,0.405c-2.688,1.592-6.093,1.173-8.285-1.018c-2.192-2.192-2.61-5.599-1.018-8.286l0.405-0.683l-0.459-0.649
					c-11.347-16.045-10.87-37.231,1.187-52.72c0.493-0.632,1.41-0.748,2.033-0.263c0.635,0.503,0.754,1.422,0.265,2.049
					c-11.108,14.275-11.618,33.916-1.269,48.873l0.532,0.768l0.882-0.309c2.51-0.883,5.225-0.278,7.082,1.579
					c1.857,1.856,2.463,4.571,1.581,7.082l-0.31,0.882l0.768,0.532c14.959,10.349,34.599,9.838,48.876-1.271
					c0.313-0.243,0.699-0.346,1.091-0.299c0.377,0.05,0.711,0.242,0.939,0.543l0.009,0.013
					C239.473,102.755,239.358,103.671,238.725,104.164z M234.276,31.769c-3.911,0-7.585,1.519-10.343,4.278
					c-2.759,2.759-4.278,6.432-4.278,10.342c0,3.911,1.519,7.585,4.278,10.344c2.759,2.759,6.432,4.278,10.344,4.278
					s7.585-1.519,10.344-4.278c2.758-2.759,4.277-6.432,4.277-10.344c0-3.91-1.519-7.584-4.277-10.342
					C241.861,33.288,238.188,31.769,234.276,31.769z M242.887,54.999c-2.296,2.296-5.353,3.561-8.61,3.561s-6.314-1.265-8.611-3.561
					c-2.296-2.295-3.56-5.353-3.56-8.61c0-3.256,1.264-6.314,3.56-8.609c2.296-2.296,5.353-3.561,8.61-3.561s6.314,1.265,8.61,3.561
					c2.296,2.295,3.56,5.353,3.56,8.609C246.447,49.646,245.182,52.704,242.887,54.999z M227.724,39.837
					c-1.751,1.75-2.715,4.077-2.715,6.552c0,2.476,0.964,4.803,2.714,6.553c1.751,1.75,4.078,2.714,6.553,2.714
					c2.475,0,4.802-0.964,6.553-2.714c3.613-3.614,3.613-9.492,0-13.105C237.216,36.225,231.336,36.226,227.724,39.837z
					 M239.096,51.209c-1.287,1.288-2.999,1.997-4.82,1.997c-1.82,0-3.532-0.71-4.82-1.997c-1.287-1.287-1.996-2.999-1.996-4.82
					c0-1.82,0.709-3.532,1.996-4.819c1.329-1.329,3.075-1.993,4.82-1.993c1.745,0,3.491,0.665,4.819,1.993
					C241.753,44.228,241.753,48.551,239.096,51.209z M234.277,42.484c-2.154,0-3.906,1.752-3.906,3.905
					c0,2.153,1.752,3.906,3.906,3.906c2.154,0,3.906-1.752,3.906-3.906C238.183,44.236,236.431,42.484,234.277,42.484z
					 M234.277,47.844c-0.802,0-1.455-0.653-1.455-1.455c0-0.802,0.653-1.455,1.455-1.455s1.455,0.653,1.455,1.455
					C235.732,47.191,235.079,47.844,234.277,47.844z"/>
			</g>
		</g>
	</g>
	<g id="XMLID_6_">
		<linearGradient id="XMLID_61_" gradientUnits="userSpaceOnUse" x1="64.5729" y1="32.9727" x2="64.5729" y2="105.0274">
			<stop  offset="0" style="stop-color:#A9B0FF"/>
			<stop  offset="1" style="stop-color:#2F40EC"/>
		</linearGradient>
		<path id="XMLID_28_" fill="url(#XMLID_61_)" d="M95.449,105.027c-5.623,0-10.446-3.807-11.777-9.166
			c-1.675-0.086-3.248-0.657-4.539-1.642c-1.537,1.07-3.339,1.652-5.157,1.652H50.888c-1.593,5.352-6.602,9.155-12.214,9.155
			c-5.619,0-10.439-3.801-11.774-9.155h-1.082c-2.353,0-4.495-0.929-6.034-2.616c-1.541-1.69-2.272-3.917-2.06-6.27l0.76-7.958
			h-1.087c-0.956,0-1.847-0.373-2.508-1.052c-0.662-0.679-1.013-1.58-0.988-2.537c0.052-1.95,1.68-3.535,3.629-3.535l33.161-0.003
			c1.544,0,2.834-1.257,2.875-2.802c0.035-1.339-0.919-2.491-2.228-2.707H24.749c-0.956,0-1.848-0.374-2.509-1.053
			s-1.012-1.58-0.986-2.537c0.051-1.948,1.678-3.534,3.628-3.534h26.983c1.523-0.014,2.803-1.27,2.843-2.801
			c0.035-1.34-0.879-2.463-2.183-2.698H13.472c-0.949,0-1.834-0.371-2.49-1.045c-0.657-0.674-1.005-1.568-0.98-2.519
			c0.051-1.936,1.667-3.51,3.603-3.51h28.308l-0.003-0.015H53.23c1.404,0,2.577-1.144,2.613-2.548
			c0.018-0.669-0.225-1.297-0.683-1.767c-0.457-0.47-1.077-0.729-1.745-0.729H22.069l0.676-5.406c0.173-1.815,1.76-3.26,3.61-3.26
			h52.974c2.354,0,4.497,0.929,6.034,2.616c1.541,1.688,2.272,3.915,2.06,6.27l-0.509,4.041l15.903,0.004
			c1.314,0,2.504,0.72,3.104,1.879l9.731,18.774c1.917,0,3.451,1.5,3.493,3.416l-0.017,0.448l-1.54,17.075
			c-0.417,4.618-4.518,8.376-9.142,8.376h-0.783C106.072,101.224,101.062,105.027,95.449,105.027z M79.212,91.518l0.667,0.639
			c1.117,1.071,2.621,1.661,4.235,1.661h1.256l0.149,0.851c0.841,4.812,5.018,8.305,9.93,8.305c4.938,0,9.32-3.515,10.42-8.355
			l0.182-0.8h2.396c3.589,0,6.771-2.919,7.095-6.507l1.552-17.227l-0.002-0.024c-0.019-0.83-0.65-1.448-1.439-1.448h-1.272
			l-10.285-19.885c-0.245-0.474-0.735-0.769-1.278-0.769l-18.233-0.004l0.796-6.317c0.156-1.736-0.388-3.405-1.535-4.663
			c-1.144-1.255-2.747-1.946-4.516-1.946H26.355c-0.803,0-1.491,0.628-1.567,1.43l-0.391,3.127h29.019
			c1.228,0,2.37,0.479,3.218,1.35c0.848,0.87,1.297,2.026,1.265,3.254c-0.065,2.508-2.159,4.549-4.668,4.549h-8.551l0.005,0.015
			h-31.08c-0.832,0-1.526,0.677-1.548,1.508c-0.01,0.392,0.131,0.758,0.397,1.032c0.267,0.273,0.628,0.424,1.019,0.424l39.295,0.012
			c2.34,0.359,4.059,2.421,3.996,4.796c-0.068,2.625-2.262,4.779-4.889,4.801H24.882c-0.846,0-1.552,0.688-1.573,1.533
			c-0.011,0.398,0.133,0.771,0.404,1.05c0.271,0.278,0.639,0.432,1.036,0.432l26.808,0.01c2.379,0.331,4.126,2.397,4.063,4.806
			c-0.07,2.648-2.281,4.803-4.93,4.803L17.53,73.959c-0.846,0-1.552,0.688-1.574,1.534c-0.011,0.397,0.134,0.771,0.405,1.049
			c0.271,0.278,0.639,0.432,1.036,0.432h3.349l-0.975,10.203c-0.16,1.767,0.384,3.436,1.532,4.694
			c1.144,1.255,2.747,1.946,4.515,1.946h2.777l0.149,0.851c0.841,4.812,5.018,8.305,9.93,8.305c4.938,0,9.319-3.515,10.419-8.355
			l0.182-0.8h24.701c1.617,0,3.226-0.605,4.53-1.705L79.212,91.518z M95.582,99.958c-1.969,0-3.803-0.77-5.164-2.167
			c-1.363-1.398-2.085-3.254-2.034-5.224c0.106-4.047,3.484-7.338,7.53-7.338c1.97,0,3.804,0.77,5.166,2.168
			s2.084,3.254,2.032,5.224C103.006,96.667,99.628,99.958,95.582,99.958z M95.914,87.284c-2.942,0-5.398,2.395-5.476,5.337
			c-0.037,1.41,0.479,2.737,1.451,3.735c0.972,0.997,2.283,1.547,3.692,1.547c2.942,0,5.398-2.395,5.476-5.337
			c0.037-1.41-0.478-2.737-1.45-3.735C98.636,87.834,97.324,87.284,95.914,87.284z M38.807,99.958c-1.97,0-3.804-0.77-5.166-2.168
			s-2.084-3.254-2.032-5.224c0.106-4.046,3.484-7.337,7.53-7.337c1.969,0,3.803,0.77,5.165,2.168s2.084,3.254,2.032,5.224
			C46.23,96.667,42.852,99.958,38.807,99.958z M39.139,87.284c-2.942,0-5.398,2.395-5.476,5.337c-0.037,1.41,0.478,2.737,1.45,3.735
			c0.972,0.997,2.283,1.547,3.693,1.547c2.941,0,5.397-2.395,5.475-5.337c0.037-1.41-0.478-2.737-1.45-3.735
			C41.86,87.834,40.548,87.284,39.139,87.284z M108.58,90.803h-2.524l-0.183-0.798c-1.05-4.587-5.091-7.79-9.826-7.79
			c-4.76,0-8.99,3.224-10.288,7.839l-0.211,0.749h-1.301c-0.937,0-1.78-0.36-2.378-1.014c-0.601-0.66-0.884-1.54-0.799-2.479
			l3.28-36.343l9.404,0.003L92.49,64.979c-0.16,1.771,0.384,3.44,1.531,4.699c1.145,1.256,2.748,1.947,4.516,1.947h15.405
			l-1.403,15.546C112.359,89.174,110.583,90.803,108.58,90.803z M107.666,88.748h0.914c0.934,0,1.827-0.823,1.912-1.762l1.2-13.306
			H98.537c-2.353,0-4.496-0.93-6.035-2.617c-1.54-1.689-2.271-3.916-2.059-6.27l1.062-11.769l-5.275-0.001l-3.112,34.472
			c-0.032,0.363,0.061,0.677,0.271,0.908c0.159,0.175,0.376,0.286,0.634,0.326c1.781-5.084,6.616-8.57,12.024-8.57
			C101.468,80.16,106.134,83.651,107.666,88.748z"/>
	</g>
	<g id="XMLID_26_">
		<path id="XMLID_37_" fill="#FFFFFF" d="M328.802,70.281c0-3.102,0.252-6.215,0.749-9.255l-2.585-0.423
			c-0.52,3.179-0.784,6.435-0.784,9.699l0.781,0.036L328.802,70.281z"/>
		<path id="XMLID_38_" fill="#FFFFFF" d="M333.68,47.176l-2.395-1.061c-1.324,2.991-2.406,6.105-3.218,9.256l2.536,0.653
			C331.38,53.012,332.415,50.035,333.68,47.176z"/>
		<path id="XMLID_47_" fill="#FFFFFF" d="M341.136,34.784l-2.061-1.616c-2.019,2.574-3.839,5.319-5.41,8.16l2.292,1.268
			C337.461,39.876,339.203,37.248,341.136,34.784z"/>
		<path id="XMLID_48_" fill="#FFFFFF" d="M363.732,17.025l-1.09-2.381c-2.96,1.355-5.838,2.948-8.553,4.734l1.44,2.188
			C358.132,19.854,360.892,18.325,363.732,17.025z"/>
		<path id="XMLID_70_" fill="#FFFFFF" d="M377.515,12.569L377.004,10c-3.199,0.637-6.368,1.52-9.421,2.624l0.891,2.463
			C371.404,14.027,374.446,13.18,377.515,12.569z"/>
		<path id="XMLID_71_" fill="#FFFFFF" d="M349.756,22.495c-2.568,2.015-4.993,4.24-7.207,6.613l1.915,1.787
			c2.122-2.275,4.447-4.407,6.909-6.34L349.756,22.495z"/>
		<path id="XMLID_72_" fill="#FFFFFF" d="M360.061,121.705l-1.247,2.303c2.859,1.548,5.866,2.891,8.937,3.992l0.884-2.466
			C365.688,124.478,362.803,123.189,360.061,121.705z"/>
		<path id="XMLID_73_" fill="#FFFFFF" d="M329.035,75.468l-2.608,0.237c0.294,3.252,0.86,6.498,1.682,9.648l2.534-0.66
			C329.858,81.681,329.317,78.577,329.035,75.468z"/>
		<path id="XMLID_74_" fill="#FFFFFF" d="M346.469,115.306c2.415,2.174,5.025,4.182,7.756,5.969l1.433-2.193
			c-2.619-1.713-5.121-3.638-7.438-5.723L346.469,115.306z"/>
		<path id="XMLID_75_" fill="#FFFFFF" d="M329.689,90.457c1.097,3.056,2.46,6.054,4.05,8.911l2.289-1.273
			c-1.521-2.734-2.825-5.601-3.874-8.523L329.689,90.457z"/>
		<path id="XMLID_76_" fill="#FFFFFF" d="M336.54,103.92c1.822,2.69,3.879,5.262,6.113,7.645l1.911-1.79
			c-2.141-2.284-4.11-4.748-5.856-7.323L336.54,103.92z"/>
	</g>
	<g id="XMLID_5_">
		<path id="XMLID_25_" fill="#FFFFFF" d="M440.297,10c-13.785,0-24.999,11.215-24.999,25.001c0,13.785,11.213,24.999,24.999,24.999
			c0.853,0,1.541-0.69,1.541-1.54c0-0.851-0.689-1.541-1.541-1.541c-12.086,0-21.915-9.833-21.915-21.917
			c0-12.086,9.829-21.918,21.915-21.918s21.914,9.833,21.914,21.918c0,5.049-2.688,10.058-6.534,12.176
			c-1.397,0.768-2.913,1.149-4.529,1.165c0.97-0.579,1.811-1.358,2.435-2.343c0.122-0.185,0.285-0.346,0.364-0.549
			c0.502-1.208,0.546-2.578,0.849-3.851c0.372-1.632-7.13-4.811-7.782-2.778c-0.236,0.755-0.597,3.135-1.07,3.762
			c-0.421,0.559-1.459,0.295-2.108-0.257c-1.71-1.457-3.618-3.6-5.293-5.291l0.003-0.002c-0.043-0.044-0.095-0.095-0.141-0.139
			c-0.047-0.046-0.095-0.095-0.142-0.141l0,0c-1.693-1.673-3.836-3.579-5.291-5.293c-0.551-0.649-0.817-1.684-0.257-2.106
			c0.628-0.474,3.009-0.831,3.762-1.068c2.03-0.651-1.148-8.157-2.78-7.782c-1.273,0.298-2.643,0.344-3.851,0.845
			c-0.205,0.086-0.364,0.245-0.549,0.367c-4.284,2.717-4.837,9.311-0.655,14.222c1.593,1.88,3.256,3.698,4.967,5.473l-0.009,0.006
			c0.047,0.047,0.096,0.092,0.145,0.138c0.046,0.047,0.09,0.095,0.135,0.145l0.009-0.009c1.775,1.711,3.88,4.231,7.299,6.513
			c7.198,4.808,12.722,3.465,15.976,1.681c5.617-3.093,8.131-9.701,8.131-14.876C465.298,21.215,454.082,10,440.297,10z"/>
	</g>
	<g id="XMLID_27_">
		<path id="XMLID_39_" fill="#00004A" d="M416.739,97.179c1.922,1.922,5.038,1.922,6.961,0l5.424-5.424
			c-1.916,0.222-3.071-0.423-3.457-0.52l-3.955,3.955c-0.823,0.823-2.161,0.823-2.983,0c-0.823-0.822-0.823-2.161,0-2.983
			c0.152-0.152,6.399-6.399,6.201-6.201c0.802-0.803,2.16-0.823,2.983,0c0.067,0.067,0.117,0.142,0.172,0.215
			c0.297-0.028,0.58,0.027,0.822-0.215l1.432-1.432c-0.139-0.19-0.266-0.385-0.438-0.556c-1.906-1.907-5.092-1.869-6.961,0
			l-6.201,6.201C414.817,92.14,414.817,95.257,416.739,97.179z"/>
		<path id="XMLID_40_" fill="#00004A" d="M437.856,76.062c-1.922-1.922-5.038-1.922-6.961,0l-5.189,5.189
			c1.916-0.222,3.071,0.424,3.457,0.52l3.72-3.72c0.822-0.823,2.16-0.823,2.983,0s0.823,2.161,0,2.983l-4.822,4.822L429.901,87
			c-0.802,0.803-2.16,0.823-2.983,0c-0.067-0.066-0.117-0.142-0.172-0.215c-0.297,0.028-0.58-0.027-0.822,0.215l-1.432,1.432
			c0.139,0.19,0.266,0.385,0.438,0.557c1.906,1.907,5.092,1.869,6.961,0l5.966-5.966C439.778,81.101,439.778,77.984,437.856,76.062z
			"/>
	</g>
	<g id="XMLID_42_">
		<g id="XMLID_920_">
			<g id="XMLID_921_">
				<path id="XMLID_922_" fill="#00004A" d="M80.165,229.009l-0.58-9.125c-0.264-4.156-2.969-7.736-6.89-9.122l-1.984-0.701
					l-0.648-0.229l-10.742-3.796c-0.042-0.015-0.084-0.027-0.126-0.039c-0.018-0.005-0.037-0.009-0.055-0.013
					c-0.023-0.005-0.047-0.011-0.07-0.015c-0.024-0.004-0.047-0.008-0.071-0.011c-0.017-0.003-0.035-0.005-0.052-0.007
					c-0.028-0.003-0.056-0.006-0.084-0.007c-0.011-0.001-0.022-0.001-0.033-0.001c-0.024-0.001-0.049-0.003-0.073-0.003
					c-0.086,0-0.17,0.008-0.253,0.021c-0.004,0.001-0.007,0.001-0.011,0.002c-0.261,0.04-0.506,0.141-0.721,0.294
					c-0.021,0.015-0.041,0.03-0.061,0.046c-0.016,0.013-0.032,0.025-0.048,0.038c-0.032,0.027-0.062,0.054-0.092,0.083l-3.367-1.039
					l0-2.558c3.2-2.147,5.671-6.049,5.814-9.664h0.091c1.406,0,2.55-1.144,2.55-2.55v-2.39c0-0.31-0.058-0.606-0.16-0.881
					c0.618-0.333,1.04-0.992,1.04-1.75v-1.335c0-0.968-0.688-1.776-1.593-1.947v-0.38c0-0.112-0.002-0.223-0.004-0.335
					c-0.029-1.153-0.214-2.292-0.55-3.384c-0.155-0.503-0.688-0.785-1.19-0.63c-0.503,0.155-0.785,0.687-0.63,1.19
					c0.285,0.926,0.442,1.893,0.467,2.873c0.003,0.095,0.004,0.191,0.004,0.287v1.299c0,0.526,0.426,0.952,0.952,0.952h0.594
					c0.016,0,0.047,0.027,0.047,0.076v1.335c0,0.049-0.031,0.076-0.047,0.076H33.755c-0.016,0-0.047-0.027-0.047-0.076v-1.335
					c0-0.049,0.031-0.076,0.047-0.076h0.594c0.526,0,0.952-0.426,0.952-0.952v-1.299c0-0.096,0.001-0.191,0.004-0.286
					c0.127-5.024,3.824-9.276,8.607-10.127v3.503v0.002c0,0.869,0.35,1.658,0.915,2.235c0.007,0.007,0.014,0.015,0.022,0.023
					c0.008,0.008,0.016,0.015,0.024,0.023c0.576,0.565,1.364,0.914,2.233,0.914h0.002h1.127h0.002c0.868,0,1.656-0.349,2.233-0.914
					c0.008-0.008,0.016-0.015,0.024-0.023c0.007-0.007,0.014-0.015,0.022-0.023c0.565-0.577,0.915-1.366,0.915-2.235v-0.002v-3.504
					c2.604,0.459,4.954,1.92,6.562,4.114c0.311,0.424,0.907,0.516,1.331,0.205c0.424-0.311,0.516-0.907,0.205-1.331
					c-2.039-2.782-5.091-4.567-8.447-4.962c-0.529-1.035-1.606-1.746-2.846-1.746h-1.127c-1.24,0-2.317,0.711-2.846,1.746
					c-2.806,0.331-5.416,1.637-7.405,3.718c-2.149,2.25-3.376,5.21-3.455,8.335c-0.003,0.111-0.004,0.223-0.004,0.335v0.38
					c-0.905,0.171-1.593,0.979-1.593,1.947v1.335c0,0.758,0.422,1.417,1.04,1.75c-0.102,0.275-0.16,0.571-0.16,0.881v2.39
					c0,1.406,1.144,2.55,2.55,2.55h0.09c0.133,3.618,2.609,7.537,5.815,9.69l0,2.533l-3.367,1.039
					c-0.03-0.029-0.06-0.057-0.092-0.083c-0.016-0.013-0.032-0.026-0.048-0.038c-0.02-0.016-0.04-0.031-0.061-0.045
					c-0.215-0.154-0.461-0.254-0.723-0.295c-0.002,0-0.005-0.001-0.007-0.001c-0.084-0.013-0.169-0.021-0.255-0.021
					c-0.025,0-0.05,0.002-0.075,0.003c-0.01,0-0.02,0.001-0.03,0.001c-0.029,0.002-0.057,0.004-0.085,0.008
					c-0.017,0.002-0.034,0.004-0.05,0.006c-0.024,0.004-0.049,0.007-0.073,0.012c-0.023,0.004-0.046,0.01-0.069,0.015
					c-0.019,0.004-0.038,0.008-0.056,0.013c-0.042,0.011-0.084,0.024-0.126,0.039l-9.238,3.265l-2.153,0.761h0l-1.984,0.701
					c-3.921,1.386-6.626,4.966-6.89,9.122l-0.07,1.097c-0.033,0.525,0.365,0.977,0.89,1.011c0.524,0.035,0.977-0.365,1.011-0.89
					l0.07-1.097c0.216-3.393,2.423-6.316,5.624-7.447l0.715-0.253v17.998h-5.821c-0.306,0-0.591-0.123-0.801-0.347
					c-0.211-0.225-0.316-0.518-0.297-0.826l0.266-4.19c0.033-0.525-0.365-0.977-0.89-1.011c-0.524-0.033-0.977,0.365-1.011,0.89
					l-0.266,4.19c-0.052,0.826,0.242,1.647,0.809,2.25c0.565,0.603,1.363,0.948,2.189,0.948h6.773h7.204H63.19h7.204h6.773
					c0.826,0,1.624-0.346,2.189-0.948C79.923,230.655,80.217,229.835,80.165,229.009z M60.026,187.573h0.082
					c0.356,0,0.646,0.29,0.646,0.646v2.39c0,0.356-0.29,0.646-0.646,0.646h-0.082V187.573z M45.817,170.989
					c0-0.104,0.014-0.209,0.043-0.322c0.001-0.006,0.002-0.012,0.003-0.017c0.149-0.548,0.649-0.953,1.244-0.953h1.127
					c0.595,0,1.096,0.405,1.244,0.953c0.001,0.006,0.002,0.012,0.003,0.017c0.029,0.113,0.043,0.218,0.043,0.322v4.028
					c0,0.356-0.144,0.678-0.377,0.912c0,0-0.001,0.001-0.001,0.001c-0.012,0.012-0.025,0.022-0.037,0.033
					c-0.23,0.214-0.538,0.345-0.876,0.345h-1.127c-0.338,0-0.646-0.132-0.876-0.345c-0.012-0.011-0.025-0.022-0.037-0.033
					l-0.001-0.001c-0.233-0.234-0.377-0.556-0.377-0.912L45.817,170.989L45.817,170.989z M35.316,191.256h-0.082
					c-0.356,0-0.646-0.29-0.646-0.646v-2.39c0-0.356,0.29-0.646,0.646-0.646h0.082V191.256z M31.2,230.303h-5.299v-18.671
					l3.407-1.204l1.892-0.669L31.2,230.303z M37.22,192.855v-0.647v-4.635h20.902v4.635l0,0.002v0.621
					c0,3.279-2.638,7.163-5.734,8.866c-0.008,0.004-0.016,0.009-0.024,0.013c-0.1,0.054-0.2,0.106-0.3,0.156
					c-0.017,0.008-0.034,0.017-0.05,0.025c-0.215,0.105-0.432,0.198-0.65,0.281c-0.029,0.011-0.059,0.021-0.088,0.032
					c-0.08,0.029-0.16,0.056-0.239,0.082c-0.031,0.01-0.062,0.02-0.093,0.03c-0.106,0.032-0.212,0.063-0.319,0.089l-0.125,0.031
					c-0.229,0.057-0.445,0.109-0.651,0.157c-0.891,0.206-1.584,0.322-2.239,0.322c-0.815,0-1.655-0.173-2.92-0.492
					c-0.107-0.027-0.213-0.058-0.319-0.091c-0.029-0.009-0.057-0.018-0.086-0.028c-0.084-0.027-0.169-0.056-0.253-0.087
					c-0.024-0.009-0.048-0.017-0.072-0.026c-0.223-0.085-0.444-0.181-0.664-0.289c-0.007-0.004-0.015-0.007-0.022-0.011
					C40.045,200.288,37.22,196.243,37.22,192.855z M41.881,207.146c0.695-0.214,1.161-0.847,1.161-1.574l0-1.697
					c0.07,0.029,0.141,0.056,0.212,0.083c0.063,0.024,0.127,0.048,0.191,0.07c0.094,0.034,0.188,0.065,0.281,0.095
					c0.039,0.012,0.078,0.025,0.117,0.037c0.127,0.039,0.255,0.075,0.381,0.107c0.324,0.082,0.627,0.155,0.914,0.22
					c0.084,0.019,0.168,0.037,0.249,0.055c0.01,0.002,0.02,0.004,0.03,0.007c0.806,0.172,1.49,0.267,2.179,0.268
					c0.004,0,0.009,0,0.013,0h0c0.751,0,1.492-0.11,2.391-0.309c0.3-0.066,0.617-0.142,0.958-0.227l0.125-0.031
					c0.127-0.032,0.255-0.068,0.383-0.106c0.042-0.012,0.083-0.026,0.124-0.039c0.087-0.028,0.174-0.057,0.261-0.088
					c0.047-0.016,0.094-0.032,0.141-0.05c0.102-0.038,0.203-0.077,0.304-0.119l0,1.723c0,0.727,0.467,1.359,1.161,1.573l2.557,0.789
					c-0.008,0.007-0.016,0.014-0.024,0.021c-0.125,0.109-0.252,0.216-0.381,0.32c-0.022,0.018-0.045,0.036-0.067,0.054
					c-0.129,0.103-0.259,0.203-0.392,0.3c-0.022,0.016-0.045,0.032-0.067,0.048c-0.135,0.098-0.272,0.193-0.41,0.285
					c-0.017,0.012-0.035,0.023-0.052,0.034c-0.143,0.094-0.288,0.186-0.434,0.274c-0.006,0.004-0.013,0.008-0.019,0.011
					c-0.145,0.087-0.292,0.17-0.44,0.25c-0.02,0.011-0.04,0.022-0.061,0.033c-0.143,0.077-0.288,0.15-0.434,0.221
					c-0.028,0.014-0.056,0.028-0.085,0.041c-0.143,0.068-0.287,0.134-0.432,0.196c-0.031,0.014-0.063,0.027-0.095,0.04
					c-0.145,0.061-0.291,0.12-0.438,0.176c-0.031,0.012-0.062,0.023-0.093,0.034c-0.15,0.056-0.302,0.109-0.454,0.159
					c-0.025,0.008-0.051,0.016-0.076,0.024c-0.155,0.049-0.31,0.096-0.467,0.14c-0.016,0.004-0.031,0.009-0.047,0.013
					c-0.157,0.043-0.316,0.082-0.475,0.119c-0.025,0.006-0.051,0.012-0.076,0.018c-0.158,0.036-0.317,0.068-0.476,0.097
					c-0.032,0.006-0.064,0.012-0.096,0.018c-0.158,0.028-0.316,0.053-0.475,0.075c-0.033,0.005-0.067,0.009-0.1,0.013
					c-0.161,0.021-0.322,0.039-0.484,0.054c-0.03,0.003-0.06,0.005-0.09,0.008c-0.167,0.014-0.335,0.026-0.503,0.034
					c-0.02,0.001-0.041,0.001-0.061,0.002c-0.179,0.007-0.358,0.012-0.538,0.012c-0.001,0-0.002,0-0.002,0
					c-0.183,0-0.365-0.005-0.547-0.012c-0.017-0.001-0.034-0.001-0.05-0.002c-0.174-0.008-0.346-0.02-0.518-0.035
					c-0.024-0.002-0.047-0.004-0.071-0.006c-0.169-0.015-0.337-0.034-0.505-0.056c-0.025-0.003-0.05-0.007-0.074-0.01
					c-0.168-0.023-0.335-0.049-0.501-0.079c-0.021-0.004-0.043-0.008-0.064-0.012c-0.17-0.031-0.34-0.066-0.508-0.104
					c-0.012-0.003-0.025-0.006-0.037-0.009c-0.352-0.081-0.7-0.177-1.043-0.287c-0.012-0.004-0.024-0.007-0.036-0.011
					c-0.164-0.053-0.326-0.11-0.487-0.17c-0.02-0.007-0.04-0.015-0.06-0.022c-0.157-0.059-0.312-0.122-0.467-0.187
					c-0.022-0.009-0.044-0.019-0.066-0.028c-0.153-0.066-0.306-0.135-0.457-0.208c-0.02-0.01-0.039-0.019-0.059-0.029
					c-0.153-0.075-0.306-0.152-0.456-0.233c-0.013-0.007-0.026-0.014-0.038-0.021c-0.313-0.169-0.618-0.353-0.917-0.549
					c-0.014-0.009-0.028-0.018-0.041-0.027c-0.141-0.094-0.28-0.19-0.417-0.29c-0.02-0.015-0.041-0.029-0.062-0.044
					c-0.133-0.098-0.265-0.198-0.394-0.302c-0.022-0.018-0.045-0.036-0.067-0.054c-0.128-0.104-0.255-0.21-0.38-0.319
					c-0.008-0.007-0.017-0.015-0.025-0.022L41.881,207.146z M36.532,207.874l0.831,0.832c2.738,2.743,6.392,4.255,10.29,4.259
					c0.006,0,0.012,0,0.018,0h0.001c2.421,0,4.747-0.582,6.82-1.679c1.16-0.614,2.24-1.388,3.212-2.313
					c0.005-0.005,0.01-0.009,0.015-0.014c0.056-0.053,0.11-0.108,0.166-0.162c0.031-0.031,0.063-0.061,0.094-0.092l0,0l0.831-0.832
					l0.748,0.264l0.307,0.108l-1.214,1.247c-2.93,2.906-6.829,4.507-10.98,4.507s-8.05-1.601-10.98-4.507l-1.214-1.247
					L36.532,207.874z M62.238,230.303H33.104v-21.217l0.395-0.14l1.832,1.882c0.004,0.004,0.008,0.008,0.012,0.012
					c3.29,3.266,7.668,5.065,12.328,5.065s9.038-1.799,12.328-5.065c0.004-0.004,0.008-0.008,0.012-0.012l1.832-1.882l0.395,0.14
					V230.303z M69.441,230.303h-5.299v-20.544l1.892,0.669l3.407,1.204V230.303z M77.968,229.956
					c-0.21,0.224-0.494,0.347-0.801,0.347h-5.821v-17.998l0.715,0.253c3.201,1.131,5.408,4.054,5.624,7.447l0.58,9.125
					C78.284,229.437,78.179,229.731,77.968,229.956z"/>
			</g>
		</g>
		<g id="XMLID_891_">
			<path id="XMLID_906_" fill="#00004A" d="M261.54,200.608c-0.228-0.228-0.57-0.296-0.868-0.173
				c-0.297,0.123-0.491,0.414-0.491,0.736v14.131c0,0.44,0.356,0.796,0.796,0.796h14.131c0.322,0,0.612-0.194,0.736-0.491
				c0.123-0.298,0.055-0.64-0.173-0.868L261.54,200.608z M261.773,214.506v-11.412l11.412,11.412H261.773z"/>
			<path id="XMLID_898_" fill="#00004A" d="M301.723,172.405l-4.14-4.14c-0.311-0.311-0.815-0.311-1.126,0l-23.926,23.926
				c-0.077,0.077-0.137,0.168-0.177,0.268l-2.623,6.585l-10.553-10.553l1.894-1.894c0.311-0.311,0.311-0.815,0-1.126
				c-0.311-0.311-0.815-0.311-1.126,0l-1.894,1.894l-3.177-3.177v-15.892c0-0.44-0.356-0.796-0.796-0.796h-9.129
				c-0.44,0-0.796,0.356-0.796,0.796v63.408c0,0.44,0.356,0.796,0.796,0.796h9.129c0.44,0,0.796-0.356,0.796-0.796v-8.708h36.555
				l2.224,2.224c0.155,0.155,0.359,0.233,0.563,0.233s0.408-0.078,0.563-0.233c0.311-0.311,0.311-0.815,0-1.126l-23.837-23.837
				l6.585-2.623c0.1-0.04,0.192-0.1,0.268-0.177l23.926-23.926c0.149-0.149,0.233-0.352,0.233-0.563
				C301.956,172.757,301.872,172.554,301.723,172.405z M253.283,230.908h-7.536v-1.417h1.368c0.44,0,0.796-0.356,0.796-0.796
				c0-0.44-0.356-0.796-0.796-0.796h-1.368v-2.507h1.368c0.44,0,0.796-0.356,0.796-0.796c0-0.44-0.356-0.796-0.796-0.796h-1.368
				v-2.507h1.368c0.44,0,0.796-0.356,0.796-0.796s-0.356-0.796-0.796-0.796h-1.368v-2.507h1.368c0.44,0,0.796-0.356,0.796-0.796
				s-0.356-0.796-0.796-0.796h-1.368v-2.507h1.368c0.44,0,0.796-0.356,0.796-0.796s-0.356-0.796-0.796-0.796h-1.368v-2.507h1.368
				c0.44,0,0.796-0.356,0.796-0.796s-0.356-0.796-0.796-0.796h-1.368v-2.507h1.368c0.44,0,0.796-0.356,0.796-0.796
				c0-0.44-0.356-0.796-0.796-0.796h-1.368v-2.507h1.368c0.44,0,0.796-0.356,0.796-0.796s-0.356-0.796-0.796-0.796h-1.368v-2.507
				h1.368c0.44,0,0.796-0.356,0.796-0.796c0-0.44-0.356-0.796-0.796-0.796h-1.368v-2.507h1.368c0.44,0,0.796-0.356,0.796-0.796
				s-0.356-0.796-0.796-0.796h-1.368v-2.507h1.368c0.44,0,0.796-0.356,0.796-0.796c0-0.44-0.356-0.796-0.796-0.796h-1.368v-2.507
				h1.368c0.44,0,0.796-0.356,0.796-0.796c0-0.44-0.356-0.796-0.796-0.796h-1.368V180.3h1.368c0.44,0,0.796-0.356,0.796-0.796
				s-0.356-0.796-0.796-0.796h-1.368v-2.507h1.368c0.44,0,0.796-0.356,0.796-0.796c0-0.44-0.356-0.796-0.796-0.796h-1.368v-2.507
				h1.368c0.44,0,0.796-0.356,0.796-0.796c0-0.44-0.356-0.796-0.796-0.796h-1.368v-1.417h7.536L253.283,230.908L253.283,230.908z
				 M254.875,221.404v-34.963l3.875,3.875l-2.266,2.265c-0.311,0.311-0.311,0.815,0,1.126c0.155,0.155,0.359,0.233,0.563,0.233
				s0.408-0.078,0.563-0.233l2.265-2.265l1.773,1.773l-2.266,2.265c-0.311,0.311-0.311,0.815,0,1.126
				c0.155,0.155,0.359,0.233,0.563,0.233s0.408-0.078,0.563-0.233l2.265-2.265l1.773,1.773l-2.266,2.265
				c-0.311,0.311-0.311,0.815,0,1.126c0.155,0.155,0.359,0.233,0.563,0.233s0.408-0.078,0.563-0.233l2.265-2.265l1.773,1.773
				l-2.266,2.265c-0.311,0.311-0.311,0.815,0,1.126c0.155,0.155,0.359,0.233,0.563,0.233s0.408-0.078,0.563-0.233l2.265-2.265
				l1.773,1.773l-2.266,2.265c-0.311,0.311-0.311,0.815,0,1.126c0.155,0.155,0.359,0.233,0.563,0.233s0.408-0.078,0.563-0.233
				l2.265-2.265l1.773,1.773l-2.265,2.265c-0.311,0.311-0.311,0.815,0,1.126c0.155,0.155,0.359,0.233,0.563,0.233
				s0.408-0.078,0.563-0.233l2.265-2.265l1.773,1.773l-2.265,2.265c-0.311,0.311-0.311,0.815,0,1.126
				c0.155,0.155,0.359,0.233,0.563,0.233s0.408-0.078,0.563-0.233l2.265-2.265l1.773,1.773l-2.265,2.265
				c-0.311,0.311-0.311,0.815,0,1.126c0.155,0.155,0.359,0.233,0.563,0.233c0.204,0,0.408-0.078,0.563-0.233l2.265-2.265
				l1.773,1.773l-2.266,2.265c-0.311,0.311-0.311,0.815,0,1.126c0.155,0.155,0.359,0.233,0.563,0.233s0.408-0.078,0.563-0.233
				l2.265-2.265l1.773,1.773l-2.266,2.265c-0.311,0.311-0.311,0.815,0,1.126c0.155,0.155,0.359,0.233,0.563,0.233
				s0.408-0.078,0.563-0.233l2.265-2.265l3.875,3.875L254.875,221.404L254.875,221.404z M276.29,194.824l19.798-19.798l0.944,0.944
				l-19.798,19.798L276.29,194.824z M275.164,193.698l-0.944-0.944l19.798-19.798l0.944,0.944L275.164,193.698z M273.386,194.173
				l2.429,2.429l-4.037,1.608L273.386,194.173z M298.158,174.844l-3.014-3.014l1.876-1.876l3.014,3.014L298.158,174.844z"/>
			<path id="XMLID_897_" fill="#00004A" d="M296.725,226.039c-0.311-0.311-0.815-0.311-1.126,0c-0.311,0.311-0.311,0.815,0,1.126
				l2.457,2.457c0.155,0.155,0.359,0.233,0.563,0.233c0.204,0,0.408-0.078,0.563-0.233c0.311-0.311,0.311-0.815,0-1.126
				L296.725,226.039z"/>
			<path id="XMLID_896_" fill="#00004A" d="M301.127,230.44c-0.311-0.311-0.815-0.311-1.126,0c-0.311,0.311-0.311,0.815,0,1.126
				l0.05,0.05c0.155,0.155,0.359,0.233,0.563,0.233c0.204,0,0.408-0.078,0.563-0.233c0.311-0.311,0.311-0.815,0-1.126
				L301.127,230.44z"/>
			<path id="XMLID_895_" fill="#00004A" d="M275.659,171.681c0.204,0,0.408-0.078,0.563-0.233l0.127-0.127
				c0.311-0.311,0.311-0.815,0-1.126c-0.311-0.311-0.815-0.311-1.126,0l-0.127,0.127c-0.311,0.311-0.311,0.815,0,1.126
				C275.252,171.603,275.455,171.681,275.659,171.681z"/>
			<path id="XMLID_894_" fill="#00004A" d="M271.257,176.082c0.204,0,0.408-0.078,0.563-0.233l2.457-2.457
				c0.311-0.311,0.311-0.815,0-1.126c-0.311-0.311-0.815-0.311-1.126,0l-2.457,2.457c-0.311,0.311-0.311,0.815,0,1.126
				C270.85,176.005,271.054,176.082,271.257,176.082z"/>
			<path id="XMLID_893_" fill="#00004A" d="M266.856,180.484c0.204,0,0.408-0.078,0.563-0.233l2.457-2.457
				c0.311-0.311,0.311-0.815,0-1.126c-0.311-0.311-0.815-0.311-1.126,0l-2.457,2.457c-0.311,0.311-0.311,0.815,0,1.126
				C266.448,180.406,266.652,180.484,266.856,180.484z"/>
			<path id="XMLID_892_" fill="#00004A" d="M262.454,184.886c0.204,0,0.408-0.078,0.563-0.233l2.457-2.457
				c0.311-0.311,0.311-0.815,0-1.126c-0.311-0.311-0.815-0.311-1.126,0l-2.457,2.457c-0.311,0.311-0.311,0.815,0,1.126
				C262.046,184.808,262.25,184.886,262.454,184.886z"/>
		</g>
		<g id="XMLID_1111_">
			<path id="XMLID_1130_" fill="#00004A" d="M372.138,232.346h-11.573c-0.487,0-0.883-0.395-0.883-0.883v-17.462
				c0-0.487,0.395-0.883,0.883-0.883h11.573c0.487,0,0.883,0.395,0.883,0.883v17.462
				C373.021,231.95,372.626,232.346,372.138,232.346z M361.448,230.58h9.807v-15.696h-9.807V230.58z"/>
			<path id="XMLID_1129_" fill="#00004A" d="M390.563,232.346h-18.425c-0.487,0-0.883-0.395-0.883-0.883v-17.462
				c0-0.487,0.395-0.883,0.883-0.883h18.425c0.487,0,0.883,0.395,0.883,0.883v17.462
				C391.446,231.95,391.051,232.346,390.563,232.346z M373.021,230.58h16.66v-15.696h-16.66V230.58z"/>
			<path id="XMLID_1128_" fill="#00004A" d="M372.138,214.842h-11.573c-0.28,0-0.543-0.132-0.709-0.357l-6.363-8.58
				c-0.199-0.268-0.229-0.625-0.079-0.923c0.15-0.298,0.455-0.486,0.788-0.486h11.573c0.28,0,0.543,0.132,0.709,0.357l6.363,8.58
				c0.199,0.268,0.229,0.625,0.079,0.923C372.777,214.654,372.472,214.842,372.138,214.842z M361.01,213.077h9.374l-5.054-6.814
				h-9.374L361.01,213.077z"/>
			<path id="XMLID_1127_" fill="#00004A" d="M390.563,214.842h-18.425c-0.331,0-0.635-0.185-0.786-0.48
				c-0.151-0.295-0.124-0.649,0.069-0.918l6.175-8.58c0.166-0.23,0.433-0.367,0.717-0.367h18.425c0.331,0,0.635,0.185,0.786,0.48
				s0.124,0.649-0.069,0.918l-6.175,8.58C391.114,214.706,390.847,214.842,390.563,214.842z M373.861,213.077h16.25l4.904-6.814
				h-16.25L373.861,213.077z"/>
			<path id="XMLID_1126_" fill="#00004A" d="M372.379,185.305c-2.947,0-5.344-2.397-5.344-5.343s2.397-5.344,5.344-5.344
				c2.947,0,5.343,2.397,5.343,5.344S375.325,185.305,372.379,185.305z M372.379,176.383c-1.973,0-3.578,1.605-3.578,3.578
				c0,1.973,1.605,3.578,3.578,3.578c1.973,0,3.578-1.605,3.578-3.578C375.956,177.988,374.351,176.383,372.379,176.383z"/>
			<path id="XMLID_1125_" fill="#00004A" d="M389.49,179.666c-1.625,0-3.152-0.633-4.301-1.782
				c-1.149-1.149-1.782-2.676-1.782-4.301c0-1.625,0.633-3.152,1.782-4.301c1.149-1.149,2.677-1.782,4.301-1.782
				c1.625,0,3.152,0.633,4.301,1.782c2.372,2.372,2.372,6.231,0,8.602C392.642,179.033,391.115,179.666,389.49,179.666z
				 M389.49,169.266c-1.153,0-2.237,0.449-3.053,1.265c-0.815,0.816-1.264,1.9-1.264,3.053c0,1.153,0.449,2.237,1.265,3.053
				c0.816,0.816,1.9,1.265,3.053,1.265c1.153,0,2.237-0.449,3.053-1.265l0,0c1.683-1.683,1.683-4.422,0-6.106
				C391.727,169.715,390.643,169.266,389.49,169.266z"/>
			<path id="XMLID_1124_" fill="#00004A" d="M412.092,202.266c-1.557,0-3.115-0.593-4.301-1.779
				c-1.149-1.149-1.782-2.677-1.782-4.301c0-1.625,0.633-3.152,1.782-4.301c2.371-2.372,6.23-2.372,8.602,0
				c2.372,2.372,2.372,6.231,0,8.603C415.207,201.672,413.65,202.266,412.092,202.266z M412.092,191.87
				c-1.106,0-2.211,0.421-3.053,1.262c-0.816,0.816-1.265,1.9-1.265,3.053c0,1.153,0.449,2.237,1.265,3.053
				c1.683,1.683,4.422,1.684,6.106,0c1.683-1.683,1.683-4.422,0-6.106C414.303,192.291,413.198,191.87,412.092,191.87z"/>
			<path id="XMLID_1123_" fill="#00004A" d="M406.892,199.222c-0.226,0-0.452-0.086-0.624-0.259l-18.836-18.836
				c-0.345-0.345-0.345-0.904,0-1.248c0.345-0.345,0.904-0.345,1.248,0l18.836,18.836c0.345,0.345,0.345,0.904,0,1.248
				C407.344,199.136,407.118,199.222,406.892,199.222z"/>
			<path id="XMLID_1122_" fill="#00004A" d="M415.769,193.391c-0.226,0-0.452-0.086-0.624-0.259l-11.84-11.84
				c-0.345-0.345-0.345-0.904,0-1.248c0.345-0.345,0.904-0.345,1.248,0l11.84,11.84c0.345,0.345,0.345,0.904,0,1.248
				C416.221,193.305,415.995,193.391,415.769,193.391z"/>
			<path id="XMLID_1121_" fill="#00004A" d="M401.215,178.837c-0.226,0-0.452-0.086-0.624-0.259l-8.048-8.048
				c-0.345-0.345-0.345-0.904,0-1.248c0.344-0.345,0.904-0.345,1.248,0l8.048,8.048c0.345,0.345,0.345,0.904,0,1.248
				C401.667,178.751,401.441,178.837,401.215,178.837z"/>
			<path id="XMLID_1120_" fill="#00004A" d="M417.292,232.5c-0.487,0-0.883-0.395-0.883-0.883v-34.99
				c0-0.487,0.395-0.883,0.883-0.883c0.487,0,0.883,0.395,0.883,0.883v34.99C418.175,232.105,417.78,232.5,417.292,232.5z"/>
			<path id="XMLID_1119_" fill="#00004A" d="M406.892,232.5c-0.487,0-0.883-0.395-0.883-0.883v-34.99
				c0-0.487,0.395-0.883,0.883-0.883c0.487,0,0.883,0.395,0.883,0.883v34.99C407.775,232.105,407.379,232.5,406.892,232.5z"/>
			<path id="XMLID_1118_" fill="#00004A" d="M417.292,232.5h-63.09c-0.487,0-0.883-0.395-0.883-0.883s0.395-0.883,0.883-0.883h63.09
				c0.487,0,0.883,0.395,0.883,0.883S417.78,232.5,417.292,232.5z"/>
			<path id="XMLID_1117_" fill="#00004A" d="M376.195,203.521h-7.633c-0.478,0-0.865-0.387-0.865-0.865v-5.038
				c0-0.478,0.387-0.865,0.865-0.865c0.478,0,0.865,0.387,0.865,0.865v4.173h5.903v-4.173c0-0.478,0.387-0.865,0.865-0.865
				c0.478,0,0.865,0.387,0.865,0.865v5.038C377.06,203.133,376.672,203.521,376.195,203.521z"/>
			<path id="XMLID_1116_" fill="#00004A" d="M370.414,176.858c-0.106,0-0.212-0.019-0.313-0.057
				c-0.23-0.087-0.413-0.267-0.505-0.495c-0.181-0.448,0.027-0.969,0.472-1.156l0.116-0.049c0.445-0.188,0.957,0.018,1.151,0.46
				c0.19,0.435,0.002,0.941-0.423,1.148c-0.041,0.024-0.072,0.041-0.104,0.057C370.683,176.827,370.549,176.858,370.414,176.858z"/>
			<path id="XMLID_1115_" fill="#00004A" d="M370.775,176.693c-0.345,0-0.673-0.203-0.815-0.541
				c-0.189-0.45,0.023-0.967,0.472-1.156l16.448-6.902c0.45-0.189,0.967,0.023,1.156,0.472s-0.023,0.967-0.472,1.156l-16.448,6.902
				C371.005,176.671,370.889,176.693,370.775,176.693z"/>
			<path id="XMLID_1138_" fill="#00004A" d="M373.696,185.107c-0.371,0-0.716-0.236-0.838-0.607c-0.152-0.463,0.1-0.962,0.563-1.114
				l14.36-4.72c0.463-0.151,0.962,0.1,1.114,0.563c0.152,0.463-0.1,0.962-0.563,1.114l-14.36,4.72
				C373.881,185.093,373.787,185.107,373.696,185.107z"/>
			<circle id="XMLID_1114_" fill="#00004A" cx="389.49" cy="173.583" r="1.229"/>
			<circle id="XMLID_1113_" fill="#00004A" cx="412.092" cy="196.185" r="1.229"/>
			<circle id="XMLID_1112_" fill="#00004A" cx="372.378" cy="179.961" r="1.229"/>
			<g id="XMLID_1137_">
				<line id="XMLID_949_" fill="#00004A" x1="372" y1="185" x2="372" y2="193"/>
				<path id="XMLID_1136_" fill="#00004A" d="M372,192.489c-0.487,0-1-0.395-1-0.883v-7.063c0-0.487,0.513-0.883,1-0.883
					s1,0.395,1,0.883v7.063C373,192.093,372.487,192.489,372,192.489z"/>
			</g>
			<g id="XMLID_1135_">
				<line id="XMLID_820_" fill="#00004A" x1="387" y1="225" x2="387" y2="233"/>
				<path id="XMLID_948_" fill="#00004A" d="M387,232.342c-0.487,0-1-0.395-1-0.883v-7.063c0-0.487,0.513-0.883,1-0.883
					s1,0.395,1,0.883v7.063C388,231.947,387.487,232.342,387,232.342z"/>
			</g>
			<path id="XMLID_1132_" fill="#00004A" d="M377.006,199h-9.585c-0.487,0-1.421-0.979-1.421-1.467v-2.574
				c0-0.278,0.4-0.539,0.622-0.706l4.927-3.601c0.314-0.236,0.814-0.236,1.128,0l4.882,3.601c0.222,0.167,0.442,0.428,0.442,0.706
				v2.574C378,198.021,377.494,199,377.006,199z M368,197h8v-1.599l-4-2.938l-4,2.938V197z"/>
		</g>
		<g id="XMLID_428_">
			<path id="XMLID_848_" fill="#00004A" d="M157.093,210.741c0.494-0.495,0.494-1.297,0-1.792c-0.495-0.494-1.296-0.494-1.791,0
				c-0.494,0.495-0.494,1.297,0,1.792C155.797,211.234,156.598,211.234,157.093,210.741z"/>
			<path id="XMLID_840_" fill="#00004A" d="M149.441,221.641c-0.21,0-0.42-0.08-0.58-0.24c-0.32-0.32-0.32-0.84,0-1.16l1.936-1.88
				c0.997-0.997,2.323-1.492,3.733-1.492h17.646c2.213,0,4.358-0.972,5.888-2.571l12.348-12.943
				c0.551-0.576,0.838-1.346,0.809-2.143s-0.372-1.537-0.964-2.071c-1.193-1.076-3.043-0.988-4.124,0.201l-9.215,10.138
				c-0.305,0.335-0.823,0.359-1.159,0.054c-0.335-0.305-0.36-0.824-0.055-1.159l9.215-10.14c1.687-1.855,4.574-1.999,6.436-0.319
				c0.924,0.833,1.458,1.977,1.504,3.221c0.046,1.244-0.402,2.424-1.262,3.324l-12.348,12.971c-1.837,1.921-4.415,3.078-7.073,3.078
				h-17.646c-0.972,0-1.886,0.324-2.574,1.011l-1.936,1.908C149.861,221.588,149.651,221.641,149.441,221.641z"/>
			<path id="XMLID_837_" fill="#00004A" d="M172.203,211.245h-12.801c-0.453,0-0.82-0.367-0.82-0.82s0.367-0.82,0.82-0.82h12.801
				c1.668,0,3.081-1.398,3.132-3.073c-0.051-1.674-1.437-3.02-3.132-3.02h-14.739c-0.019,0-0.038-0.001-0.057-0.002l-0.46-0.032
				c-0.105-0.007-0.208-0.035-0.303-0.081c-1.913-0.933-3.925-1.406-5.98-1.406c-5.416,0-10.085,3.019-11.894,7.691
				c-0.163,0.422-0.638,0.632-1.061,0.468c-0.422-0.164-0.632-0.639-0.468-1.061c2.056-5.308,7.326-8.738,13.424-8.738
				c2.254,0,4.458,0.505,6.553,1.502l0.275,0.019h14.711c2.523,0,4.595,1.96,4.763,4.431c0.007,0.044,0.011,0.089,0.011,0.135v0.19
				c0,0.047-0.004,0.093-0.012,0.138C176.791,209.226,174.681,211.245,172.203,211.245z"/>
			<path id="XMLID_638_" fill="#00004A" d="M143.34,230.931c-0.21,0-0.42-0.08-0.58-0.24l-14.657-14.657
				c-0.32-0.32-0.32-0.84,0-1.16l7.188-7.188c0.6-0.6,1.575-0.599,2.175,0l13.642,13.642c0.6,0.6,0.6,1.575,0,2.175l-7.188,7.188
				C143.76,230.851,143.55,230.931,143.34,230.931z M129.843,215.454l13.497,13.497l6.536-6.536l-13.497-13.497L129.843,215.454z"/>
			<path id="XMLID_849_" fill="#00004A" d="M167.703,196.253c-7.495,0-13.592-6.097-13.592-13.592s6.097-13.592,13.592-13.592
				c7.495,0,13.592,6.097,13.592,13.592S175.198,196.253,167.703,196.253z M167.703,170.709c-6.59,0-11.952,5.361-11.952,11.952
				s5.361,11.952,11.952,11.952c6.59,0,11.952-5.361,11.952-11.952S174.293,170.709,167.703,170.709z"/>
			<path id="XMLID_432_" fill="#00004A" d="M168.37,174.455h-4.362c-0.535,0-1.091,0.345-1.091,0.88v10.367h-1.099
				c-0.512,0-0.926,0.426-0.926,0.937s0.415,0.937,0.926,0.937h1.099v1.464c0,0.518,0.42,0.937,0.937,0.937s0.937-0.42,0.937-0.937
				v-1.464h1.985c0.512,0,0.926-0.426,0.926-0.937s-0.415-0.937-0.926-0.937h-1.985v-1.172h3.578c3.614,0,6.624-1.135,6.624-5.038
				C174.994,175.59,171.984,174.455,168.37,174.455z M168.459,182.891h-3.668v-6.561h3.668c2.564,0,4.639,0.627,4.639,3.281
				C173.098,182.242,171.002,182.891,168.459,182.891z"/>
		</g>
	</g>
	<g id="XMLID_1158_">
		<polygon id="XMLID_1161_" opacity="0.55" fill="#1E25A2" points="622.25,8.051 584.646,147 493.25,147 		"/>
		<polygon id="XMLID_1162_" opacity="0.7" fill="#1E25A2" points="584,238.673 621.604,8.665 584,147.614 		"/>
	</g>
</g>
<g id="XMLID_41_">
</g>
<g id="XMLID_43_">
</g>
<g id="XMLID_44_">
</g>
<g id="XMLID_45_">
</g>
<g id="XMLID_46_">
</g>
<g id="XMLID_49_">
</g>
<g id="XMLID_50_">
</g>
<g id="XMLID_51_">
</g>
<g id="XMLID_52_">
</g>
<g id="XMLID_53_">
</g>
<g id="XMLID_54_">
</g>
<g id="XMLID_55_">
</g>
<g id="XMLID_56_">
</g>
<g id="XMLID_57_">
</g>
<g id="XMLID_58_">
</g>
</svg>
