<?xml version="1.0" encoding="utf-8"?>
<!-- Generator: Adobe Illustrator 19.0.0, SVG Export Plug-In . SVG Version: 6.00 Build 0)  -->
<svg version="1.1" id="Layer_1" xmlns="http://www.w3.org/2000/svg" xmlns:xlink="http://www.w3.org/1999/xlink" x="0px" y="0px"
	 width="1000px" height="1000px" viewBox="0 0 1000 1000" enable-background="new 0 0 1000 1000" xml:space="preserve">
<g id="XMLID_40_">
	<g id="XMLID_1_">
		<g id="XMLID_3_">
			<g id="XMLID_173_">
				<linearGradient id="XMLID_79_" gradientUnits="userSpaceOnUse" x1="211.6666" y1="22" x2="211.6666" y2="116">
					<stop  offset="0" style="stop-color:#A9B0FF"/>
					<stop  offset="1" style="stop-color:#2F40EC"/>
				</linearGradient>
				<path id="XMLID_177_" fill="url(#XMLID_79_)" d="M256.741,23.926c-1.242-1.242-2.896-1.926-4.657-1.926
					c-1.761,0-3.415,0.684-4.657,1.926l-6.324,6.323l1.451,0.78c1.717,0.923,3.027,1.864,4.123,2.96
					c1.096,1.095,2.036,2.404,2.959,4.122l0.78,1.452l6.323-6.324c1.242-1.242,1.926-2.896,1.926-4.657
					S257.982,25.168,256.741,23.926z M255.007,31.507l-4.029,4.03c-0.793-1.276-1.627-2.339-2.568-3.28
					c-0.941-0.941-2.005-1.776-3.28-2.569l4.029-4.028c0.779-0.779,1.818-1.208,2.924-1.208c1.106,0,2.145,0.429,2.924,1.208h0
					c0.779,0.778,1.208,1.817,1.208,2.924C256.216,29.689,255.786,30.727,255.007,31.507z M182.235,52.942l2.229,2.229
					c-4.548,2.52-7.31,7.41-7.004,12.68c0.068,1.168,0.672,2.226,1.658,2.902c1.011,0.692,2.304,0.883,3.464,0.511l13.595-4.378
					l6.039,6.039l-1.029,1.029c-0.739,0.738-1.145,1.718-1.145,2.762s0.406,2.024,1.145,2.762c1.523,1.523,4,1.521,5.524,0
					l1.029-1.029l6.039,6.039l-4.376,13.59c-0.374,1.161-0.181,2.458,0.516,3.471c0.679,0.987,1.739,1.589,2.909,1.652
					c0.252,0.014,0.501,0.021,0.751,0.021c4.974,0,9.519-2.708,11.914-7.021l2.23,2.231c1.523,1.523,4.001,1.521,5.524,0
					c0.738-0.739,1.145-1.719,1.145-2.763c0-1.043-0.407-2.024-1.145-2.762l-4.916-4.916l7.433-24.073l-1.646-0.015
					c-3.876-0.035-7.583-1.375-10.718-3.875l-1.387-1.106l-5.542,17.21l-3.207-3.208l1.029-1.029
					c0.739-0.738,1.145-1.719,1.145-2.762c0-1.043-0.407-2.024-1.145-2.761c-1.475-1.477-4.049-1.476-5.523-0.001l-1.029,1.029
					l-3.207-3.208l17.209-5.543l-1.105-1.386c-2.498-3.134-3.837-6.838-3.874-10.713l-0.015-1.644l-24.073,7.427l-4.917-4.917
					c-1.476-1.477-4.049-1.475-5.524,0C180.712,48.941,180.712,51.419,182.235,52.942z M183.968,49.151
					c0.551-0.55,1.506-0.551,2.057,0.001l5.961,5.961l22.412-6.915c0.31,3.24,1.447,6.412,3.293,9.183l-17.727,5.708l7.776,7.776
					l2.762-2.762c0.551-0.55,1.505-0.551,2.057,0.001c0.275,0.275,0.427,0.64,0.427,1.029c0,0.388-0.152,0.753-0.427,1.029
					l-2.761,2.762l7.776,7.776l5.709-17.728c2.773,1.849,5.947,2.986,9.189,3.295l-6.919,22.411l5.961,5.961
					c0.275,0.275,0.427,0.64,0.427,1.029c0,0.388-0.152,0.754-0.427,1.029c-0.568,0.568-1.492,0.568-2.057,0l-4.78-4.781
					l-0.686,1.738c-1.777,4.51-6.215,7.35-11.029,7.099c-0.555-0.031-0.88-0.385-1.023-0.595c-0.269-0.391-0.344-0.889-0.202-1.331
					l4.835-15.015l-8.831-8.831l-2.761,2.762c-0.568,0.567-1.491,0.568-2.058,0c-0.275-0.275-0.427-0.64-0.427-1.029
					c0-0.388,0.152-0.754,0.427-1.029l2.761-2.763l-8.831-8.831l-15.02,4.837c-0.439,0.143-0.937,0.069-1.328-0.2
					c-0.209-0.144-0.564-0.467-0.597-1.024c-0.279-4.818,2.575-9.251,7.103-11.032l1.74-0.685l-4.782-4.781
					C183.401,50.642,183.401,49.719,183.968,49.151z M238.349,99.136c-1.046-0.138-2.083,0.148-2.915,0.797
					c-13.195,10.268-31.265,10.904-45.243,1.682c0.763-3.14-0.129-6.405-2.433-8.708c-2.266-2.264-5.598-3.17-8.706-2.429
					c-9.224-13.977-8.587-32.05,1.68-45.243c1.314-1.683,1.011-4.14-0.684-5.483c-1.699-1.322-4.157-1.016-5.48,0.685
					c-12.57,16.148-13.216,38.161-1.687,55.016c-1.701,3.525-1.021,7.765,1.773,10.56c2.793,2.793,7.033,3.472,10.558,1.773
					c8.021,5.485,17.207,8.214,26.376,8.214c10.1-0.001,20.178-3.313,28.642-9.902c1.696-1.322,2.005-3.775,0.689-5.474
					C240.293,99.799,239.38,99.271,238.349,99.136z M238.725,104.164c-15.49,12.056-36.677,12.535-52.721,1.186l-0.648-0.459
					l-0.684,0.405c-2.688,1.592-6.093,1.173-8.285-1.018c-2.192-2.192-2.61-5.599-1.018-8.286l0.405-0.683l-0.459-0.649
					c-11.347-16.045-10.87-37.231,1.187-52.72c0.493-0.632,1.41-0.748,2.033-0.263c0.635,0.503,0.754,1.422,0.265,2.049
					c-11.108,14.275-11.618,33.916-1.269,48.873l0.532,0.768l0.882-0.309c2.51-0.883,5.225-0.278,7.082,1.579
					c1.857,1.856,2.463,4.571,1.581,7.082l-0.31,0.882l0.768,0.532c14.959,10.349,34.599,9.838,48.876-1.271
					c0.313-0.243,0.699-0.346,1.091-0.299c0.377,0.05,0.711,0.242,0.939,0.543l0.009,0.013
					C239.473,102.755,239.358,103.671,238.725,104.164z M234.276,31.769c-3.911,0-7.585,1.519-10.343,4.278
					c-2.759,2.759-4.278,6.432-4.278,10.342c0,3.911,1.519,7.585,4.278,10.344c2.759,2.759,6.432,4.278,10.344,4.278
					s7.585-1.519,10.344-4.278c2.758-2.759,4.277-6.432,4.277-10.344c0-3.91-1.519-7.584-4.277-10.342
					C241.861,33.288,238.188,31.769,234.276,31.769z M242.887,54.999c-2.296,2.296-5.353,3.561-8.61,3.561s-6.314-1.265-8.611-3.561
					c-2.296-2.295-3.56-5.353-3.56-8.61c0-3.256,1.264-6.314,3.56-8.609c2.296-2.296,5.353-3.561,8.61-3.561s6.314,1.265,8.61,3.561
					c2.296,2.295,3.56,5.353,3.56,8.609C246.447,49.646,245.182,52.704,242.887,54.999z M227.724,39.837
					c-1.751,1.75-2.715,4.077-2.715,6.552c0,2.476,0.964,4.803,2.714,6.553c1.751,1.75,4.078,2.714,6.553,2.714
					c2.475,0,4.802-0.964,6.553-2.714c3.613-3.614,3.613-9.492,0-13.105C237.216,36.225,231.336,36.226,227.724,39.837z
					 M239.096,51.209c-1.287,1.288-2.999,1.997-4.82,1.997c-1.82,0-3.532-0.71-4.82-1.997c-1.287-1.287-1.996-2.999-1.996-4.82
					c0-1.82,0.709-3.532,1.996-4.819c1.329-1.329,3.075-1.993,4.82-1.993c1.745,0,3.491,0.665,4.819,1.993
					C241.753,44.228,241.753,48.551,239.096,51.209z M234.277,42.484c-2.154,0-3.906,1.752-3.906,3.905
					c0,2.153,1.752,3.906,3.906,3.906c2.154,0,3.906-1.752,3.906-3.906C238.183,44.236,236.431,42.484,234.277,42.484z
					 M234.277,47.844c-0.802,0-1.455-0.653-1.455-1.455c0-0.802,0.653-1.455,1.455-1.455s1.455,0.653,1.455,1.455
					C235.732,47.191,235.079,47.844,234.277,47.844z"/>
			</g>
		</g>
	</g>
	<g id="XMLID_6_">
		<linearGradient id="XMLID_80_" gradientUnits="userSpaceOnUse" x1="64.5729" y1="32.9727" x2="64.5729" y2="105.0274">
			<stop  offset="0" style="stop-color:#A9B0FF"/>
			<stop  offset="1" style="stop-color:#2F40EC"/>
		</linearGradient>
		<path id="XMLID_28_" fill="url(#XMLID_80_)" d="M95.449,105.027c-5.623,0-10.446-3.807-11.777-9.166
			c-1.675-0.086-3.248-0.657-4.539-1.642c-1.537,1.07-3.339,1.652-5.157,1.652H50.888c-1.593,5.352-6.602,9.155-12.214,9.155
			c-5.619,0-10.439-3.801-11.774-9.155h-1.082c-2.353,0-4.495-0.929-6.034-2.616c-1.541-1.69-2.272-3.917-2.06-6.27l0.76-7.958
			h-1.087c-0.956,0-1.847-0.373-2.508-1.052c-0.662-0.679-1.013-1.58-0.988-2.537c0.052-1.95,1.68-3.535,3.629-3.535l33.161-0.003
			c1.544,0,2.834-1.257,2.875-2.802c0.035-1.339-0.919-2.491-2.228-2.707H24.749c-0.956,0-1.848-0.374-2.509-1.053
			s-1.012-1.58-0.986-2.537c0.051-1.948,1.678-3.534,3.628-3.534h26.983c1.523-0.014,2.803-1.27,2.843-2.801
			c0.035-1.34-0.879-2.463-2.183-2.698H13.472c-0.949,0-1.834-0.371-2.49-1.045c-0.657-0.674-1.005-1.568-0.98-2.519
			c0.051-1.936,1.667-3.51,3.603-3.51h28.308l-0.003-0.015H53.23c1.404,0,2.577-1.144,2.613-2.548
			c0.018-0.669-0.225-1.297-0.683-1.767c-0.457-0.47-1.077-0.729-1.745-0.729H22.069l0.676-5.406c0.173-1.815,1.76-3.26,3.61-3.26
			h52.974c2.354,0,4.497,0.929,6.034,2.616c1.541,1.688,2.272,3.915,2.06,6.27l-0.509,4.041l15.903,0.004
			c1.314,0,2.504,0.72,3.104,1.879l9.731,18.774c1.917,0,3.451,1.5,3.493,3.416l-0.017,0.448l-1.54,17.075
			c-0.417,4.618-4.518,8.376-9.142,8.376h-0.783C106.072,101.224,101.062,105.027,95.449,105.027z M79.212,91.518l0.667,0.639
			c1.117,1.071,2.621,1.661,4.235,1.661h1.256l0.149,0.851c0.841,4.812,5.018,8.305,9.93,8.305c4.938,0,9.32-3.515,10.42-8.355
			l0.182-0.8h2.396c3.589,0,6.771-2.919,7.095-6.507l1.552-17.227l-0.002-0.024c-0.019-0.83-0.65-1.448-1.439-1.448h-1.272
			l-10.285-19.885c-0.245-0.474-0.735-0.769-1.278-0.769l-18.233-0.004l0.796-6.317c0.156-1.736-0.388-3.405-1.535-4.663
			c-1.144-1.255-2.747-1.946-4.516-1.946H26.355c-0.803,0-1.491,0.628-1.567,1.43l-0.391,3.127h29.019
			c1.228,0,2.37,0.479,3.218,1.35c0.848,0.87,1.297,2.026,1.265,3.254c-0.065,2.508-2.159,4.549-4.668,4.549h-8.551l0.005,0.015
			h-31.08c-0.832,0-1.526,0.677-1.548,1.508c-0.01,0.392,0.131,0.758,0.397,1.032c0.267,0.273,0.628,0.424,1.019,0.424l39.295,0.012
			c2.34,0.359,4.059,2.421,3.996,4.796c-0.068,2.625-2.262,4.779-4.889,4.801H24.882c-0.846,0-1.552,0.688-1.573,1.533
			c-0.011,0.398,0.133,0.771,0.404,1.05c0.271,0.278,0.639,0.432,1.036,0.432l26.808,0.01c2.379,0.331,4.126,2.397,4.063,4.806
			c-0.07,2.648-2.281,4.803-4.93,4.803L17.53,73.959c-0.846,0-1.552,0.688-1.574,1.534c-0.011,0.397,0.134,0.771,0.405,1.049
			c0.271,0.278,0.639,0.432,1.036,0.432h3.349l-0.975,10.203c-0.16,1.767,0.384,3.436,1.532,4.694
			c1.144,1.255,2.747,1.946,4.515,1.946h2.777l0.149,0.851c0.841,4.812,5.018,8.305,9.93,8.305c4.938,0,9.319-3.515,10.419-8.355
			l0.182-0.8h24.701c1.617,0,3.226-0.605,4.53-1.705L79.212,91.518z M95.582,99.958c-1.969,0-3.803-0.77-5.164-2.167
			c-1.363-1.398-2.085-3.254-2.034-5.224c0.106-4.047,3.484-7.338,7.53-7.338c1.97,0,3.804,0.77,5.166,2.168
			s2.084,3.254,2.032,5.224C103.006,96.667,99.628,99.958,95.582,99.958z M95.914,87.284c-2.942,0-5.398,2.395-5.476,5.337
			c-0.037,1.41,0.479,2.737,1.451,3.735c0.972,0.997,2.283,1.547,3.692,1.547c2.942,0,5.398-2.395,5.476-5.337
			c0.037-1.41-0.478-2.737-1.45-3.735C98.636,87.834,97.324,87.284,95.914,87.284z M38.807,99.958c-1.97,0-3.804-0.77-5.166-2.168
			s-2.084-3.254-2.032-5.224c0.106-4.046,3.484-7.337,7.53-7.337c1.969,0,3.803,0.77,5.165,2.168s2.084,3.254,2.032,5.224
			C46.23,96.667,42.852,99.958,38.807,99.958z M39.139,87.284c-2.942,0-5.398,2.395-5.476,5.337c-0.037,1.41,0.478,2.737,1.45,3.735
			c0.972,0.997,2.283,1.547,3.693,1.547c2.941,0,5.397-2.395,5.475-5.337c0.037-1.41-0.478-2.737-1.45-3.735
			C41.86,87.834,40.548,87.284,39.139,87.284z M108.58,90.803h-2.524l-0.183-0.798c-1.05-4.587-5.091-7.79-9.826-7.79
			c-4.76,0-8.99,3.224-10.288,7.839l-0.211,0.749h-1.301c-0.937,0-1.78-0.36-2.378-1.014c-0.601-0.66-0.884-1.54-0.799-2.479
			l3.28-36.343l9.404,0.003L92.49,64.979c-0.16,1.771,0.384,3.44,1.531,4.699c1.145,1.256,2.748,1.947,4.516,1.947h15.405
			l-1.403,15.546C112.359,89.174,110.583,90.803,108.58,90.803z M107.666,88.748h0.914c0.934,0,1.827-0.823,1.912-1.762l1.2-13.306
			H98.537c-2.353,0-4.496-0.93-6.035-2.617c-1.54-1.689-2.271-3.916-2.059-6.27l1.062-11.769l-5.275-0.001l-3.112,34.472
			c-0.032,0.363,0.061,0.677,0.271,0.908c0.159,0.175,0.376,0.286,0.634,0.326c1.781-5.084,6.616-8.57,12.024-8.57
			C101.468,80.16,106.134,83.651,107.666,88.748z"/>
	</g>
	<g id="XMLID_26_">
		<path id="XMLID_37_" fill="#9B2C2C" d="M328.802,70.281c0-3.102,0.252-6.215,0.749-9.255l-2.585-0.423
			c-0.52,3.179-0.784,6.435-0.784,9.699l0.781,0.036L328.802,70.281z"/>
		<path id="XMLID_38_" fill="#9B2C2C" d="M333.68,47.176l-2.395-1.061c-1.324,2.991-2.406,6.105-3.218,9.256l2.536,0.653
			C331.38,53.012,332.415,50.035,333.68,47.176z"/>
		<path id="XMLID_47_" fill="#9B2C2C" d="M341.136,34.784l-2.061-1.616c-2.019,2.574-3.839,5.319-5.41,8.16l2.292,1.268
			C337.461,39.876,339.203,37.248,341.136,34.784z"/>
		<path id="XMLID_48_" fill="#9B2C2C" d="M363.732,17.025l-1.09-2.381c-2.96,1.355-5.838,2.948-8.553,4.734l1.44,2.188
			C358.132,19.854,360.892,18.325,363.732,17.025z"/>
		<path id="XMLID_70_" fill="#9B2C2C" d="M377.515,12.569L377.004,10c-3.199,0.637-6.368,1.52-9.421,2.624l0.891,2.463
			C371.404,14.027,374.446,13.18,377.515,12.569z"/>
		<path id="XMLID_71_" fill="#9B2C2C" d="M349.756,22.495c-2.568,2.015-4.993,4.24-7.207,6.613l1.915,1.787
			c2.122-2.275,4.447-4.407,6.909-6.34L349.756,22.495z"/>
		<path id="XMLID_72_" fill="#9B2C2C" d="M360.061,121.705l-1.247,2.303c2.859,1.548,5.866,2.891,8.937,3.992l0.884-2.466
			C365.688,124.478,362.803,123.189,360.061,121.705z"/>
		<path id="XMLID_73_" fill="#9B2C2C" d="M329.035,75.468l-2.608,0.237c0.294,3.252,0.86,6.498,1.682,9.648l2.534-0.66
			C329.858,81.681,329.317,78.577,329.035,75.468z"/>
		<path id="XMLID_74_" fill="#9B2C2C" d="M346.469,115.306c2.415,2.174,5.025,4.182,7.756,5.969l1.433-2.193
			c-2.619-1.713-5.121-3.638-7.438-5.723L346.469,115.306z"/>
		<path id="XMLID_75_" fill="#9B2C2C" d="M329.689,90.457c1.097,3.056,2.46,6.054,4.05,8.911l2.289-1.273
			c-1.521-2.734-2.825-5.601-3.874-8.523L329.689,90.457z"/>
		<path id="XMLID_76_" fill="#9B2C2C" d="M336.54,103.92c1.822,2.69,3.879,5.262,6.113,7.645l1.911-1.79
			c-2.141-2.284-4.11-4.748-5.856-7.323L336.54,103.92z"/>
	</g>
	<g id="XMLID_5_">
		<path id="XMLID_25_" fill="#FFFFFF" d="M440.297,10c-13.785,0-24.999,11.215-24.999,25.001c0,13.785,11.213,24.999,24.999,24.999
			c0.853,0,1.541-0.69,1.541-1.54c0-0.851-0.689-1.541-1.541-1.541c-12.086,0-21.915-9.833-21.915-21.917
			c0-12.086,9.829-21.918,21.915-21.918s21.914,9.833,21.914,21.918c0,5.049-2.688,10.058-6.534,12.176
			c-1.397,0.768-2.913,1.149-4.529,1.165c0.97-0.579,1.811-1.358,2.435-2.343c0.122-0.185,0.285-0.346,0.364-0.549
			c0.502-1.208,0.546-2.578,0.849-3.851c0.372-1.632-7.13-4.811-7.782-2.778c-0.236,0.755-0.597,3.135-1.07,3.762
			c-0.421,0.559-1.459,0.295-2.108-0.257c-1.71-1.457-3.618-3.6-5.293-5.291l0.003-0.002c-0.043-0.044-0.095-0.095-0.141-0.139
			c-0.047-0.046-0.095-0.095-0.142-0.141l0,0c-1.693-1.673-3.836-3.579-5.291-5.293c-0.551-0.649-0.817-1.684-0.257-2.106
			c0.628-0.474,3.009-0.831,3.762-1.068c2.03-0.651-1.148-8.157-2.78-7.782c-1.273,0.298-2.643,0.344-3.851,0.845
			c-0.205,0.086-0.364,0.245-0.549,0.367c-4.284,2.717-4.837,9.311-0.655,14.222c1.593,1.88,3.256,3.698,4.967,5.473l-0.009,0.006
			c0.047,0.047,0.096,0.092,0.145,0.138c0.046,0.047,0.09,0.095,0.135,0.145l0.009-0.009c1.775,1.711,3.88,4.231,7.299,6.513
			c7.198,4.808,12.722,3.465,15.976,1.681c5.617-3.093,8.131-9.701,8.131-14.876C465.298,21.215,454.082,10,440.297,10z"/>
	</g>
	<g id="XMLID_27_">
		<path id="XMLID_39_" fill="#FFFFFF" d="M416.739,97.179c1.922,1.922,5.038,1.922,6.961,0l5.424-5.424
			c-1.916,0.222-3.071-0.423-3.457-0.52l-3.955,3.955c-0.823,0.823-2.161,0.823-2.983,0c-0.823-0.822-0.823-2.161,0-2.983
			c0.152-0.152,6.399-6.399,6.201-6.201c0.802-0.803,2.16-0.823,2.983,0c0.067,0.067,0.117,0.142,0.172,0.215
			c0.297-0.028,0.58,0.027,0.822-0.215l1.432-1.432c-0.139-0.19-0.266-0.385-0.438-0.556c-1.906-1.907-5.092-1.869-6.961,0
			l-6.201,6.201C414.817,92.14,414.817,95.257,416.739,97.179z"/>
		<path id="XMLID_2_" fill="#FFFFFF" d="M437.856,76.062c-1.922-1.922-5.038-1.922-6.961,0l-5.189,5.189
			c1.916-0.222,3.071,0.424,3.457,0.52l3.72-3.72c0.822-0.823,2.16-0.823,2.983,0s0.823,2.161,0,2.983l-4.822,4.822L429.901,87
			c-0.802,0.803-2.16,0.823-2.983,0c-0.067-0.066-0.117-0.142-0.172-0.215c-0.297,0.028-0.58-0.027-0.822,0.215l-1.432,1.432
			c0.139,0.19,0.266,0.385,0.438,0.557c1.906,1.907,5.092,1.869,6.961,0l5.966-5.966C439.778,81.101,439.778,77.984,437.856,76.062z
			"/>
	</g>
</g>
<g id="XMLID_56_">
</g>
<g id="XMLID_57_">
</g>
<g id="XMLID_58_">
</g>
<g id="XMLID_59_">
</g>
<g id="XMLID_60_">
</g>
<g id="XMLID_61_">
</g>
<g id="XMLID_62_">
</g>
<g id="XMLID_63_">
</g>
<g id="XMLID_64_">
</g>
<g id="XMLID_65_">
</g>
<g id="XMLID_66_">
</g>
<g id="XMLID_67_">
</g>
<g id="XMLID_68_">
</g>
<g id="XMLID_69_">
</g>
<g id="XMLID_77_">
</g>
</svg>
